<svg xmlns="http://www.w3.org/2000/svg" xmlns:xlink="http://www.w3.org/1999/xlink" width="12.289" height="11.679" viewBox="0 0 12.289 11.679"><defs><clipPath id="a"><rect width="11.011" height="10.776" fill="#00a232"/></clipPath></defs><g transform="translate(-1477 -587.125)"><circle cx="4.834" cy="4.834" r="4.834" transform="translate(1477 589.137)" fill="#fff"/><g transform="translate(1478.277 587.125)" clip-path="url(#a)"><path d="M.7,5.064a3.252,3.252,0,0,1,1.117.285c.551.242,1.095.5,1.636.766a.173.173,0,0,0,.252-.052A52.235,52.235,0,0,1,7.459,2.042,13.26,13.26,0,0,1,9.488.374,2.4,2.4,0,0,1,10.293.02a.713.713,0,0,1,.5.064A.364.364,0,0,1,10.96.6a1.652,1.652,0,0,1-.273.361c-.317.321-.645.63-.967.946A22.306,22.306,0,0,0,6.228,6.365a29,29,0,0,0-2.057,4.181c-.048.121-.108.218-.254.23a.307.307,0,0,1-.3-.189c-.487-.793-.96-1.6-1.472-2.374A11.99,11.99,0,0,0,.17,5.952C.1,5.888,0,5.844,0,5.717a.637.637,0,0,1,.155-.455.74.74,0,0,1,.548-.2" transform="translate(0 -0.001)" fill="#00a232"/></g></g></svg>