<svg xmlns="http://www.w3.org/2000/svg" width="1374.791" height="291.545" viewBox="0 0 1374.791 291.545">
  <g id="Group_1370" data-name="Group 1370" transform="translate(-279.871 -5741.808)">
    <path id="Path_1356" data-name="Path 1356" d="M501.63,518.971H424.753a25.579,25.579,0,0,1-25.58-25.58V415.036a25.579,25.579,0,0,1,25.58-25.58H501.63a25.579,25.579,0,0,1,25.58,25.58v78.356a25.58,25.58,0,0,1-25.58,25.58" transform="translate(311.761 5359.938)" fill="#f27c00"/>
    <rect id="Rectangle_78" data-name="Rectangle 78" width="110.392" height="63.906" transform="translate(719.757 5786.271)" fill="#fff"/>
    <path id="Path_1357" data-name="Path 1357" d="M505.439,499.963h-86.69A11.851,11.851,0,0,1,406.9,488.111V469.493a11.851,11.851,0,0,1,11.851-11.851h86.69a11.852,11.852,0,0,1,11.85,11.851v18.618a11.851,11.851,0,0,1-11.85,11.852" transform="translate(312.86 5369.629)" fill="#fff"/>
    <path id="Path_1358" data-name="Path 1358" d="M406.9,416.424s.366-15.875,9.962-17.685,89.98-.8,89.98-.8,9.043,4.04,9.646,12.471,0,7.023,0,7.023H406.9Z" transform="translate(312.86 5361.12)" fill="#fff"/>
    <path id="Path_1359" data-name="Path 1359" d="M424.148,412.2h-.9a5.251,5.251,0,0,1-5.251-5.251V390.317a5.251,5.251,0,0,1,5.251-5.251h.9a5.25,5.25,0,0,1,5.251,5.251v16.628a5.25,5.25,0,0,1-5.251,5.251" transform="translate(314.438 5359.331)" fill="#2a2929"/>
    <path id="Path_1360" data-name="Path 1360" d="M440.811,412.2h-.9a5.251,5.251,0,0,1-5.251-5.251V390.317a5.251,5.251,0,0,1,5.251-5.251h.9a5.25,5.25,0,0,1,5.251,5.251v16.628a5.25,5.25,0,0,1-5.251,5.251" transform="translate(316.807 5359.331)" fill="#2a2929"/>
    <path id="Path_1361" data-name="Path 1361" d="M457.962,412.2h-.9a5.251,5.251,0,0,1-5.251-5.251V390.317a5.251,5.251,0,0,1,5.251-5.251h.9a5.25,5.25,0,0,1,5.251,5.251v16.628a5.25,5.25,0,0,1-5.251,5.251" transform="translate(319.246 5359.331)" fill="#2a2929"/>
    <path id="Path_1362" data-name="Path 1362" d="M476.344,412.2h-.9a5.251,5.251,0,0,1-5.251-5.251V390.317a5.251,5.251,0,0,1,5.251-5.251h.9a5.25,5.25,0,0,1,5.251,5.251v16.628a5.25,5.25,0,0,1-5.251,5.251" transform="translate(321.86 5359.331)" fill="#2a2929"/>
    <path id="Path_1363" data-name="Path 1363" d="M493.44,412.2h-.9a5.251,5.251,0,0,1-5.251-5.251V390.317a5.251,5.251,0,0,1,5.251-5.251h.9a5.25,5.25,0,0,1,5.251,5.251v16.628a5.25,5.25,0,0,1-5.251,5.251" transform="translate(324.291 5359.331)" fill="#2a2929"/>
    <rect id="Rectangle_79" data-name="Rectangle 79" width="14.118" height="14.118" transform="translate(742.746 5794.416)" fill="#aabd00"/>
    <rect id="Rectangle_80" data-name="Rectangle 80" width="14.118" height="14.118" transform="translate(767.657 5794.416)" fill="#aabd00"/>
    <rect id="Rectangle_81" data-name="Rectangle 81" width="14.118" height="14.118" transform="translate(793.044 5794.416)" fill="#aabd00"/>
    <rect id="Rectangle_82" data-name="Rectangle 82" width="14.118" height="14.118" transform="translate(742.746 5818.225)" fill="#aabd00"/>
    <rect id="Rectangle_83" data-name="Rectangle 83" width="14.118" height="14.118" transform="translate(767.657 5818.225)" fill="#aabd00"/>
    <rect id="Rectangle_84" data-name="Rectangle 84" width="14.118" height="14.118" transform="translate(793.044 5818.225)" fill="#aabd00"/>
    <rect id="Rectangle_85" data-name="Rectangle 85" width="14.118" height="14.118" transform="translate(742.746 5841.375)" fill="#aabd00"/>
    <rect id="Rectangle_86" data-name="Rectangle 86" width="14.118" height="14.118" transform="translate(767.657 5841.375)" fill="#aabd00"/>
    <rect id="Rectangle_87" data-name="Rectangle 87" width="14.118" height="14.118" transform="translate(793.044 5841.375)" fill="#aabd00"/>
    <path id="Path_1364" data-name="Path 1364" d="M1173.061,388.464l11.288,26.05s1.158,4.632-2.605,16.5-5.209,15.341-5.209,15.341l-23.445,66.284s3.183,10.13,2.025,13.025a87.871,87.871,0,0,1-4.921,8.973l17.162,44.285,1.364,41.391-33.576-75.835-26.339,74.1-3.764-39.654,15.4-44.864s-6.882-13.894,0-23.445,39.3-118.384,39.3-118.384,1.737-13.315,13.314-3.762" transform="translate(412.134 5359.291)" fill="#aabd00"/>
    <path id="Path_1365" data-name="Path 1365" d="M1121.239,465.792,1112.781,492l-13.315-32s17.5,0,21.773,5.789" transform="translate(411.342 5369.965)" fill="#aabd00"/>
    <path id="Path_1366" data-name="Path 1366" d="M1086.542,411.886l8.1-19.682s6.079-6.657,10.42,0,8.394,19.682,8.394,19.682-18.235-2.894-26.918,0" transform="translate(409.504 5359.925)" fill="#aabd00"/>
    <path id="Path_1367" data-name="Path 1367" d="M1122.873,578.978a32.309,32.309,0,1,1-32.308-32.308,32.308,32.308,0,0,1,32.308,32.308" transform="translate(405.481 5382.261)" fill="#aabd00"/>
    <path id="Path_1368" data-name="Path 1368" d="M1103.488,576.967a16.154,16.154,0,1,1-16.154-16.154,16.154,16.154,0,0,1,16.154,16.154" transform="translate(407.319 5384.272)" fill="#fff"/>
    <path id="Path_1369" data-name="Path 1369" d="M1218.535,577.933a32.309,32.309,0,1,1-32.308-32.308,32.308,32.308,0,0,1,32.308,32.308" transform="translate(419.084 5423.112)" fill="#aabd00"/>
    <path id="Path_1370" data-name="Path 1370" d="M1199.151,575.922A16.154,16.154,0,1,1,1183,559.768a16.154,16.154,0,0,1,16.154,16.154" transform="translate(420.922 5425.125)" fill="#fff"/>
    <path id="Path_1371" data-name="Path 1371" d="M1014.573,439v38.5s25.471,4.052,43.706-2.316a169.736,169.736,0,0,0,33.287-16.3s6.946-5.122,19.971-4.542,24.892,6.947,24.892,6.947l13.026-35.313s-17.946-8.1-29.524-7.525-35.891,2.315-44,6.947-21.13,13.893-31.839,15.051S1014.573,439,1014.573,439" transform="translate(399.27 5364.059)" fill="#f27c00"/>
    <path id="Path_1372" data-name="Path 1372" d="M1169.271,441.419s26.629,1.736,36.759-9.262,29.233-12.447,29.233-12.447v37.338s-23.735,13.894-33,16.788a90.12,90.12,0,0,1-30.392,4.745c-12.734-.113-15.75,0-15.75,0Z" transform="translate(419.398 5405.243)" fill="#f27c00"/>
    <path id="Path_1373" data-name="Path 1373" d="M60.709,512.008c2.618-10.822,13.206-10.949,13.206-10.949s95.627,1.358,113.843,0,15.785-12.675,15.785-12.675.3-81.029,0-90.083-14.875-10.637-14.875-10.637H172.882V410.3l-92.288-.906s-1.822-.9-10.929,1.132-9.108,9.959-9.108,9.959-.91,91.441,0,98.457,12.75,8.6,12.75,8.6H90l-.152-25.8" transform="translate(263.554 5359.683)" fill="none" stroke="#f27c00" stroke-miterlimit="10" stroke-width="4.37"/>
    <path id="Path_1374" data-name="Path 1374" d="M189.522,482s-.164-3.622-7.526-7.469-23.149-2.773-23.149-2.773V407.48" transform="translate(277.588 5362.505)" fill="none" stroke="#f27c00" stroke-miterlimit="10" stroke-width="4.37"/>
    <rect id="Rectangle_88" data-name="Rectangle 88" width="39.921" height="16.749" transform="translate(336.102 5776.668)" fill="none" stroke="#f27c00" stroke-miterlimit="10" stroke-width="4.37"/>
    <path id="Path_1375" data-name="Path 1375" d="M155.587,417.117H118.421a1.3,1.3,0,1,1,0-2.6h37.166a1.3,1.3,0,0,1,0,2.6Z" transform="translate(271.654 5363.514)" fill="none" stroke="#f27c00" stroke-miterlimit="10" stroke-width="4.37"/>
    <path id="Path_1376" data-name="Path 1376" d="M155.587,427.52H118.421a1.3,1.3,0,1,1,0-2.6h37.166a1.3,1.3,0,0,1,0,2.6Z" transform="translate(271.654 5364.991)" fill="none" stroke="#f27c00" stroke-miterlimit="10" stroke-width="4.37"/>
    <path id="Path_1377" data-name="Path 1377" d="M154.491,437.924H117.325a1.3,1.3,0,1,1,0-2.6h37.166a1.3,1.3,0,0,1,0,2.6Z" transform="translate(271.498 5366.467)" fill="none" stroke="#f27c00" stroke-miterlimit="10" stroke-width="4.37"/>
    <path id="Path_1378" data-name="Path 1378" d="M154.491,448.327H117.325a1.3,1.3,0,1,1,0-2.6h37.166a1.3,1.3,0,0,1,0,2.6Z" transform="translate(271.498 5367.944)" fill="none" stroke="#f27c00" stroke-miterlimit="10" stroke-width="4.37"/>
    <path id="Path_1379" data-name="Path 1379" d="M109.54,448.327H72.374a1.3,1.3,0,1,1,0-2.6H109.54a1.3,1.3,0,0,1,0,2.6Z" transform="translate(265.106 5367.944)" fill="none" stroke="#f27c00" stroke-miterlimit="10" stroke-width="4.37"/>
    <path id="Path_1380" data-name="Path 1380" d="M109.54,437.924H72.374a1.3,1.3,0,1,1,0-2.6H109.54a1.3,1.3,0,0,1,0,2.6Z" transform="translate(265.106 5366.467)" fill="none" stroke="#f27c00" stroke-miterlimit="10" stroke-width="4.37"/>
    <path id="Rectangle_89" data-name="Rectangle 89" d="M1.083,0h24.6a1.082,1.082,0,0,1,1.082,1.082V1.52A1.083,1.083,0,0,1,25.682,2.6H1.083A1.083,1.083,0,0,1,0,1.52V1.083A1.083,1.083,0,0,1,1.083,0Z" transform="translate(366.958 5824.953)" fill="none" stroke="#f27c00" stroke-miterlimit="10" stroke-width="4.37"/>
    <path id="Rectangle_90" data-name="Rectangle 90" d="M1.083,0h24.6a1.082,1.082,0,0,1,1.082,1.082V1.52A1.083,1.083,0,0,1,25.682,2.6H1.083A1.083,1.083,0,0,1,0,1.52V1.083A1.083,1.083,0,0,1,1.083,0Z" transform="translate(403.16 5824.953)" fill="none" stroke="#f27c00" stroke-miterlimit="10" stroke-width="4.37"/>
    <path id="Rectangle_91" data-name="Rectangle 91" d="M1.083,0h24.6a1.082,1.082,0,0,1,1.082,1.082V1.52A1.083,1.083,0,0,1,25.682,2.6H1.083A1.083,1.083,0,0,1,0,1.52V1.083A1.083,1.083,0,0,1,1.083,0Z" transform="translate(333.716 5824.953)" fill="none" stroke="#f27c00" stroke-miterlimit="10" stroke-width="4.37"/>
    <path id="Rectangle_92" data-name="Rectangle 92" d="M1.083,0h24.6a1.082,1.082,0,0,1,1.082,1.082V1.52A1.083,1.083,0,0,1,25.682,2.6H1.083A1.083,1.083,0,0,1,0,1.52V1.083A1.083,1.083,0,0,1,1.083,0Z" transform="translate(333.716 5836.766)" fill="none" stroke="#f27c00" stroke-miterlimit="10" stroke-width="4.37"/>
    <path id="Rectangle_93" data-name="Rectangle 93" d="M1.083,0h24.6a1.082,1.082,0,0,1,1.082,1.082v.439A1.082,1.082,0,0,1,25.683,2.6H1.083A1.083,1.083,0,0,1,0,1.52V1.083A1.083,1.083,0,0,1,1.083,0Z" transform="translate(366.958 5836.766)" fill="none" stroke="#f27c00" stroke-miterlimit="10" stroke-width="4.37"/>
    <path id="Rectangle_94" data-name="Rectangle 94" d="M1.083,0h24.6a1.082,1.082,0,0,1,1.082,1.082V1.52A1.083,1.083,0,0,1,25.682,2.6H1.083A1.083,1.083,0,0,1,0,1.52V1.083A1.083,1.083,0,0,1,1.083,0Z" transform="translate(402.477 5836.766)" fill="none" stroke="#f27c00" stroke-miterlimit="10" stroke-width="4.37"/>
    <path id="Rectangle_95" data-name="Rectangle 95" d="M1.083,0h24.6a1.082,1.082,0,0,1,1.082,1.082V1.52A1.083,1.083,0,0,1,25.682,2.6H1.083A1.083,1.083,0,0,1,0,1.52V1.083A1.083,1.083,0,0,1,1.083,0Z" transform="translate(403.16 5848.577)" fill="none" stroke="#f27c00" stroke-miterlimit="10" stroke-width="4.37"/>
    <path id="Rectangle_96" data-name="Rectangle 96" d="M1.083,0h24.6a1.082,1.082,0,0,1,1.082,1.082v.439A1.082,1.082,0,0,1,25.683,2.6H1.083A1.083,1.083,0,0,1,0,1.52V1.083A1.083,1.083,0,0,1,1.083,0Z" transform="translate(366.958 5848.577)" fill="none" stroke="#f27c00" stroke-miterlimit="10" stroke-width="4.37"/>
    <path id="Rectangle_97" data-name="Rectangle 97" d="M1.083,0h24.6a1.082,1.082,0,0,1,1.082,1.082V1.52A1.083,1.083,0,0,1,25.682,2.6H1.083A1.083,1.083,0,0,1,0,1.52V1.083A1.083,1.083,0,0,1,1.083,0Z" transform="translate(333.716 5848.577)" fill="none" stroke="#f27c00" stroke-miterlimit="10" stroke-width="4.37"/>
    <path id="Path_1381" data-name="Path 1381" d="M684.1,619.258H605.766a12.37,12.37,0,0,1-12.37-12.37v-110.8a12.369,12.369,0,0,1,12.37-12.369H684.1a12.369,12.369,0,0,1,12.37,12.369v110.8a12.37,12.37,0,0,1-12.37,12.37" transform="translate(339.379 5373.315)" fill="#f27c00"/>
    <path id="Path_1382" data-name="Path 1382" d="M709.245,501.909l-16.536,15.2-36.655-33.7,16.534-15.2Z" transform="translate(348.289 5371.127)" fill="#fff"/>
    <path id="Path_1383" data-name="Path 1383" d="M604.981,592.633a79.013,79.013,0,0,0,11.819-8.172c1.766-1.474,3.415-3.058,5.07-4.652,1.238-1.194,2.589-2.5,4.412-2.455l-2.519-2.517q-.218,6.959-.437,13.92a2.537,2.537,0,0,0,3.79,2.175l10.518-6.818c1.009-.653,2.1-1.884,3.171-.94,1.213,1.065,2.145,2.313,3.456,3.294a17.9,17.9,0,0,0,17.949,1.633,2.539,2.539,0,0,0,.9-3.446,2.576,2.576,0,0,0-3.445-.9,12.449,12.449,0,0,1-7.91.683,13.472,13.472,0,0,1-6.967-4.393,6.7,6.7,0,0,0-4.4-2.328c-1.924-.106-3.513.891-5.065,1.9l-10.757,6.972,3.79,2.175q.219-6.961.438-13.92a2.556,2.556,0,0,0-2.519-2.519c-4.964-.123-8.146,4.291-11.512,7.267a71.993,71.993,0,0,1-12.332,8.7c-2.822,1.592-.287,5.945,2.543,4.348" transform="translate(340.49 5385.907)" fill="#fff"/>
    <path id="Path_1384" data-name="Path 1384" d="M653.21,483.72v29.951l4.243,3.885h33.51V489.063l-31.269-5.355Z" transform="translate(347.885 5373.33)" fill="#fff"/>
    <path id="Path_1385" data-name="Path 1385" d="M659.191,483.708s-2.294-.021-2.381,3.671,0,21.953,0,21.953-.643,1.943,2.381,2.331,27.324.777,27.324.777a2.759,2.759,0,0,0,1.479-1.748c.211-1.166-28.8-26.984-28.8-26.984" transform="translate(348.389 5373.331)" fill="#f27c00"/>
    <path id="Path_1386" data-name="Path 1386" d="M689.469,521.945l18.595,16.514,7.818-8.257s4.86-10.2-3.17-14.086-14.58-1.553-14.58-1.553Z" transform="translate(353.041 5377.612)" fill="none" stroke="#aabd00" stroke-miterlimit="10" stroke-width="3.254"/>
    <path id="Path_1387" data-name="Path 1387" d="M689.23,520.43l-40.539,39.438s-4.316,3.5-4.339,8.548,0,13.959,0,13.959,1.077,3.915,6.337,4.3,18.55-.971,18.55-.971a24.4,24.4,0,0,0,7.63-5.052c4.226-3.886,12.891-11.462,12.891-11.462Z" transform="translate(346.624 5378.536)" fill="#fff"/>
    <path id="Path_1388" data-name="Path 1388" d="M647.992,511.655H607.038a1.926,1.926,0,0,1-1.927-1.927v-.809a1.926,1.926,0,0,1,1.927-1.927h40.955a1.926,1.926,0,0,1,1.927,1.927v.809a1.926,1.926,0,0,1-1.927,1.927" transform="translate(341.045 5376.639)" fill="#fff"/>
    <path id="Path_1389" data-name="Path 1389" d="M648.391,526.581H607.437a1.926,1.926,0,0,1-1.927-1.927v-.809a1.926,1.926,0,0,1,1.927-1.927h40.955a1.926,1.926,0,0,1,1.927,1.927v.809a1.926,1.926,0,0,1-1.927,1.927" transform="translate(341.102 5378.757)" fill="#fff"/>
    <path id="Path_1390" data-name="Path 1390" d="M648.391,541.507H607.437a1.926,1.926,0,0,1-1.927-1.927v-.809a1.926,1.926,0,0,1,1.927-1.927h40.955a1.926,1.926,0,0,1,1.927,1.927v.809a1.926,1.926,0,0,1-1.927,1.927" transform="translate(341.102 5380.875)" fill="#fff"/>
    <path id="Path_1391" data-name="Path 1391" d="M691.434,524.633l18.452,15.986-41.4,38.661-16.8,2.326s-1.951.978-1.773-1.743,1.413-16.513,1.413-16.513Z" transform="translate(347.414 5379.134)" fill="none" stroke="#aabd00" stroke-miterlimit="10" stroke-width="3.254"/>
    <path id="Path_1392" data-name="Path 1392" d="M648.391,556.434H607.437a1.926,1.926,0,0,1-1.927-1.927V553.7a1.926,1.926,0,0,1,1.927-1.927h40.955a1.926,1.926,0,0,1,1.927,1.927v.809a1.926,1.926,0,0,1-1.927,1.927" transform="translate(341.102 5382.994)" fill="#fff"/>
    <path id="Path_1394" data-name="Path 1394" d="M802.109,462.039H773.42v14.967H888.392V462.039h-14.38a60.841,60.841,0,0,0-10.272-39.621c-13.207-19.165-36.1-15.848-36.1-15.848s-41.381-2.054-39.913,52.241l.048,2.592" transform="translate(364.979 5362.345)" fill="none" stroke="#f27c00" stroke-miterlimit="10" stroke-width="4.464"/>
    <line id="Line_14" data-name="Line 14" x1="61.338" transform="translate(1177.652 5824.381)" fill="none" stroke="#f27c00" stroke-miterlimit="10" stroke-width="4.464"/>
    <path id="Path_1395" data-name="Path 1395" d="M814.211,441.895v-34.36s.1-2.8,2.152-2.706,18.979,0,18.979,0a5.513,5.513,0,0,1,1.566,2.155c.3,1.09.635,35.707.635,35.707" transform="translate(370.779 5362.134)" fill="none" stroke="#f27c00" stroke-miterlimit="10" stroke-width="4.464"/>
    <path id="Path_1396" data-name="Path 1396" d="M852.252,410.41l24.931-24.848,61.353,61.045" transform="translate(376.188 5359.396)" fill="none" stroke="#aabd00" stroke-miterlimit="10" stroke-width="4.464"/>
    <path id="Path_1397" data-name="Path 1397" d="M922.678,439.007v60.066s2.152,8.609-7.826,8.609h-71.61s-7.63-2.152-7.435-10.369,0-23.968,0-23.968" transform="translate(373.849 5366.98)" fill="none" stroke="#aabd00" stroke-miterlimit="10" stroke-width="4.464"/>
    <path id="Path_1398" data-name="Path 1398" d="M891.731,405.087V389.33h15.755v29.936" transform="translate(381.802 5359.936)" fill="none" stroke="#aabd00" stroke-miterlimit="10" stroke-width="4.464"/>
    <path id="Path_1399" data-name="Path 1399" d="M908.09,544.422c8.267,5.993,16.886,12.136,26.9,14.8a40.917,40.917,0,0,0,16.26.833,63.585,63.585,0,0,0,8.147-1.725c2.406-.665,5.293-1.236,7.1-3.1,3.131-3.237,2.048-8.45-.76-11.479a18.379,18.379,0,0,0-6-3.961c-2.276-1.034-4.712-2.114-7.268-1.629a5.406,5.406,0,0,0-4.361,4.475c-.263,2.3,1.35,4.015,3.379,4.795a34.285,34.285,0,0,0,7.624,1.45c2.8.377,5.607.651,8.426.8a103.685,103.685,0,0,0,37.15-4.856c2.286-.737,1.308-4.354-1-3.613a100.248,100.248,0,0,1-27.394,4.809,101.622,101.622,0,0,1-14.051-.5q-3.447-.365-6.859-.988c-.792-.144-4.177-.427-3.406-1.878.967-1.818,3.942-.466,5.246.1a19.286,19.286,0,0,1,5.06,2.881c2.495,2.166,3.717,6.506-.131,7.952-8.442,3.175-18.127,4.323-26.866,1.834-9.392-2.675-17.5-8.568-25.3-14.225-1.954-1.417-3.825,1.831-1.89,3.234" transform="translate(384.012 5381.042)" fill="#f27c00"/>
    <path id="Path_1400" data-name="Path 1400" d="M998.253,552.684l8.977-12.124a9.934,9.934,0,0,0,1.851-2.692,3.263,3.263,0,0,0-.728-2.581,6.042,6.042,0,0,0-4.187-2.153,35.6,35.6,0,0,0-6.242.009l-7.325.265-15.213.547c-2.4.087-2.415,3.833,0,3.746l17.186-.619,8.451-.3c1.123-.04,4.076-.41,4.447,1.091l.188-1.444q-5.32,7.186-10.639,14.37c-1.436,1.938,1.814,3.808,3.234,1.89" transform="translate(393.441 5380.326)" fill="#f27c00"/>
    <path id="Path_1401" data-name="Path 1401" d="M280.114,445.786c6.914-5.012,14.022-10.19,22.1-13.174a36.956,36.956,0,0,1,12.809-2.427,51.468,51.468,0,0,1,14.032,2.22c1.679.475,4.328.832,5.279,2.48a4.681,4.681,0,0,1-.088,4.218,9.48,9.48,0,0,1-4.228,3.845,15.988,15.988,0,0,1-5.705,2.242c-1.2.107-3.507-1.176-1.6-2.066,1.745-.814,4.062-.913,5.946-1.194a97.707,97.707,0,0,1,14.051-1.029,100.411,100.411,0,0,1,31.111,4.863c2.3.74,3.285-2.875,1-3.612a103.169,103.169,0,0,0-49.775-3.408c-2.1.37-4.484.724-5.9,2.5a4.5,4.5,0,0,0,.536,6c3.609,3.706,9.855.533,13.4-1.75,3.658-2.357,6.521-6.547,5.112-11.059a7.181,7.181,0,0,0-4.68-4.565,55.848,55.848,0,0,0-7.9-2.191,45.131,45.131,0,0,0-16.711-.726c-11.544,1.845-21.429,8.9-30.675,15.6-1.934,1.4-.066,4.652,1.89,3.235" transform="translate(294.447 5365.208)" fill="#f27c00"/>
    <path id="Path_1402" data-name="Path 1402" d="M365.152,435.936l10.64,14.37q-.094-.721-.19-1.444c-.354,1.436-3.061,1.138-4.164,1.1-2.911-.1-5.822-.21-8.733-.315l-17.184-.619c-2.411-.087-2.408,3.66,0,3.746l15.213.547,7.324.264a35.508,35.508,0,0,0,6.243.01,6.053,6.053,0,0,0,4.186-2.153,3.265,3.265,0,0,0,.728-2.581,9.628,9.628,0,0,0-1.85-2.692l-8.978-12.124c-1.419-1.917-4.67-.05-3.234,1.89" transform="translate(303.875 5366.169)" fill="#f27c00"/>
    <path id="Path_1403" data-name="Path 1403" d="M447.489,525.106c5.435.33,10.87.66,16.3,1.025,4.659.312,9.573.506,13.567,3.218a13.7,13.7,0,0,1,5.838,9.878c.25,2.9-.311,7.947-3.412,9.352-1.22.553-2.483-.218-3.312-1.114a5.8,5.8,0,0,1-1.409-4.969,6.9,6.9,0,0,1,8.417-5.376c4.247.987,7.451,4.2,10.169,7.423,2.932,3.47,5.523,7.254,8.784,10.434a21.555,21.555,0,0,0,13.283,6.339c5.287.471,10.54-1.113,15.245-3.412,2.34-1.144.291-4.638-2.045-3.5-4.621,2.259-10.007,3.7-15.138,2.548s-8.751-4.8-11.991-8.725c-3.275-3.97-6.206-8.371-10.324-11.539-3.678-2.827-8.7-4.923-13.318-3.243a10.976,10.976,0,0,0-7.108,11.562c.609,4.185,4.379,8.482,8.945,7.71,4.313-.73,6.522-5.631,7.09-9.489a17.751,17.751,0,0,0-3.732-13.766c-3.782-4.733-9.389-6.491-15.223-7.062-6.85-.67-13.76-.931-20.628-1.348-2.6-.159-2.6,3.893,0,4.05" transform="translate(318.354 5378.628)" fill="#f27c00"/>
    <path id="Path_1404" data-name="Path 1404" d="M511.539,547.426l21.455-.859c.649-.025,2.248-.442,2.429.352.256,1.116-1.291,2.739-1.9,3.509a59.1,59.1,0,0,1-6.778,7.2c-1.943,1.746.929,4.6,2.863,2.865a57.8,57.8,0,0,0,8.11-8.924c1.983-2.725,2.861-7.567-1.252-8.859-1.642-.516-3.555-.191-5.238-.123l-6.562.263-13.126.525c-2.6.1-2.611,4.154,0,4.05" transform="translate(327.462 5381.665)" fill="#f27c00"/>
    <path id="Path_1405" data-name="Path 1405" d="M608.04,447.252c6.914-5.012,14.022-10.19,22.1-13.174a36.955,36.955,0,0,1,12.809-2.427,51.467,51.467,0,0,1,14.032,2.22c1.679.475,4.328.832,5.279,2.48a4.681,4.681,0,0,1-.088,4.218,9.48,9.48,0,0,1-4.228,3.845,15.988,15.988,0,0,1-5.705,2.242c-1.2.107-3.507-1.176-1.6-2.066,1.745-.814,4.062-.913,5.947-1.194a97.688,97.688,0,0,1,14.05-1.029,100.408,100.408,0,0,1,31.111,4.863c2.3.74,3.285-2.875,1-3.612a103.169,103.169,0,0,0-49.775-3.408c-2.1.37-4.484.724-5.9,2.5a4.5,4.5,0,0,0,.536,6c3.609,3.706,9.855.533,13.4-1.75,3.659-2.357,6.521-6.547,5.112-11.059a7.179,7.179,0,0,0-4.68-4.565,55.842,55.842,0,0,0-7.9-2.191,45.13,45.13,0,0,0-16.711-.726c-11.544,1.845-21.429,8.9-30.675,15.6-1.934,1.4-.066,4.652,1.89,3.235" transform="translate(341.077 5365.417)" fill="#f27c00"/>
    <path id="Path_1406" data-name="Path 1406" d="M693.078,437.4l10.64,14.37q-.094-.721-.19-1.444c-.354,1.436-3.061,1.138-4.164,1.1-2.911-.1-5.822-.21-8.733-.315l-17.184-.619c-2.411-.087-2.408,3.66,0,3.746l15.213.547,7.324.264a35.5,35.5,0,0,0,6.243.01,6.049,6.049,0,0,0,4.186-2.154,3.261,3.261,0,0,0,.728-2.58,9.629,9.629,0,0,0-1.85-2.692l-8.978-12.124c-1.419-1.917-4.67-.05-3.234,1.89" transform="translate(350.505 5366.377)" fill="#f27c00"/>
    <text id="_7" data-name="7" transform="translate(279.871 5876.619)" fill="#2a2929" font-size="44" font-family="SegoeUI, Segoe UI"><tspan x="0" y="0">7</tspan></text>
    <path id="Path_1407" data-name="Path 1407" d="M282.347,522.023v-9.071s-3.023-3.023,8.063-2.771,12.851-.015,12.851-.015,3.527-2.5,2.771-5.781,1.009-5.292-8.819-5.039-30.991-.021-30.991-.021-2.772-1.743-8.568,4.807S238.5,525.55,238.5,525.55s-4.536,4.284-1.009,8.568,10.331,0,10.331,0l7.307-8.819.252,68.032s-1.512,7.307,5.543,7.307,7.559-6.3,7.559-6.3V557.3s-.5-4.032,4.283-4.032,4.283,8.568,4.283,8.568" transform="translate(288.581 5375.506)" fill="none" stroke="#f27c00" stroke-miterlimit="10" stroke-width="5.307"/>
    <path id="Path_1408" data-name="Path 1408" d="M275.606,482.193a11.59,11.59,0,1,1-11.591-11.59A11.591,11.591,0,0,1,275.606,482.193Z" transform="translate(290.894 5371.471)" fill="none" stroke="#f27c00" stroke-miterlimit="10" stroke-width="5.307"/>
    <path id="Path_1409" data-name="Path 1409" d="M308.049,542.633a12.821,12.821,0,1,1-12.821-12.821A12.821,12.821,0,0,1,308.049,542.633Z" transform="translate(295.158 5379.874)" fill="none" stroke="#2a2929" stroke-miterlimit="10" stroke-width="5.307"/>
    <path id="Path_1410" data-name="Path 1410" d="M273.209,606.786V568.235s3.317-15.313,23.328-15.971,21.27,17.484,21.27,17.484v37.039Z" transform="translate(293.85 5383.053)" fill="none" stroke="#2a2929" stroke-miterlimit="10" stroke-width="5.307"/>
    <path id="Path_1411" data-name="Path 1411" d="M107.7,521.23c5.436.33,10.87.66,16.3,1.025,4.659.312,9.573.506,13.568,3.218a13.7,13.7,0,0,1,5.838,9.878c.25,2.9-.312,7.947-3.412,9.352-1.22.553-2.484-.218-3.312-1.114a5.791,5.791,0,0,1-1.409-4.969,6.9,6.9,0,0,1,8.416-5.376c4.248.987,7.452,4.2,10.17,7.423,2.931,3.47,5.521,7.254,8.784,10.434a21.552,21.552,0,0,0,13.283,6.339c5.287.471,10.54-1.112,15.244-3.412,2.341-1.144.291-4.638-2.043-3.5-4.621,2.259-10.008,3.7-15.139,2.548s-8.75-4.8-11.99-8.725c-3.275-3.97-6.207-8.371-10.325-11.538-3.677-2.827-8.7-4.923-13.318-3.243a10.974,10.974,0,0,0-7.107,11.562c.608,4.185,4.378,8.482,8.945,7.71,4.312-.73,6.521-5.631,7.09-9.489a17.755,17.755,0,0,0-3.732-13.766c-3.783-4.733-9.389-6.491-15.224-7.062-6.85-.671-13.759-.931-20.628-1.348-2.6-.159-2.594,3.893,0,4.05" transform="translate(270.038 5378.078)" fill="#f27c00"/>
    <path id="Path_1412" data-name="Path 1412" d="M171.755,543.55l21.455-.859c.649-.025,2.248-.442,2.429.352.256,1.116-1.291,2.739-1.9,3.509a59.084,59.084,0,0,1-6.778,7.2c-1.943,1.746.929,4.6,2.863,2.865a57.788,57.788,0,0,0,8.11-8.924c1.983-2.725,2.861-7.567-1.252-8.859-1.642-.516-3.555-.191-5.238-.123l-6.563.263-13.125.525c-2.6.1-2.611,4.154,0,4.05" transform="translate(279.146 5381.115)" fill="#f27c00"/>
    <text id="_8" data-name="8" transform="translate(492.087 5992.003)" fill="#2a2929" font-size="45" font-family="SegoeUI, Segoe UI"><tspan x="0" y="0">8</tspan></text>
    <text id="_9" data-name="9" transform="translate(671.549 5876.715)" fill="#2a2929" font-size="45" font-family="SegoeUI, Segoe UI"><tspan x="0" y="0">9</tspan></text>
    <text id="_10" data-name="10" transform="translate(882.307 5991.912)" fill="#2a2929" font-size="45" font-family="SegoeUI, Segoe UI"><tspan x="0" y="0">10</tspan></text>
    <text id="_11" data-name="11" transform="translate(1101.472 5877.36)" fill="#2a2929" font-size="44" font-family="SegoeUI, Segoe UI"><tspan x="0" y="0">11</tspan></text>
    <text id="_12" data-name="12" transform="translate(1397.759 5990.77)" fill="#2a2929" font-size="45" font-family="SegoeUI, Segoe UI"><tspan x="0" y="0">12</tspan></text>
  </g>
</svg>
