<svg xmlns="http://www.w3.org/2000/svg" width="1400.068" height="263.245" viewBox="0 0 1400.068 263.245">
  <g id="Group_1369" data-name="Group 1369" transform="translate(-255 -5192.692)">
    <path id="Path_1297" data-name="Path 1297" d="M80.389,36.367s1.742,2.276,4.16,5.441H65.378a5.84,5.84,0,0,1,2.71-6.857c7.8-4.973,12.3,1.415,12.3,1.415" transform="translate(264.263 5197.4)" fill="#365424"/>
    <path id="Path_1298" data-name="Path 1298" d="M166.293,24.638a21.4,21.4,0,0,1-21.4,21.412H103.495c-1.082-9.575-9.781-17.03-20.345-17.03S63.88,36.474,62.8,46.049H21.4a21.408,21.408,0,1,1,0-42.816H144.888a21.4,21.4,0,0,1,21.4,21.4" transform="translate(255 5193.163)" fill="#f27c00"/>
    <path id="Path_1299" data-name="Path 1299" d="M92.347,52.023A20.236,20.236,0,0,1,78.845,62.3L70.451,50.125s-4.047-4.069-5.071-8.316a5.838,5.838,0,0,1,2.71-6.857c7.8-4.973,12.3,1.415,12.3,1.415s1.743,2.276,4.161,5.441c2.291,2.995,5.186,6.779,7.8,10.215" transform="translate(264.263 5197.397)" fill="#fff"/>
    <path id="Path_1300" data-name="Path 1300" d="M178.242,98.817l-43.919,31.335c-10.642-8.167-27.914-17.143-27.914-17.143s-16.795-7.8-19.867-7.8-12.065-4.965-12.3-8.515.7-5.677,5.677-8.757,17.264.954,17.264.954L78.845,62.3,70.451,50.125S66.4,46.056,65.38,41.809a5.836,5.836,0,0,1,2.71-6.857c7.8-4.973,12.3,1.415,12.3,1.415s1.743,2.276,4.161,5.441c2.29,2.995,5.186,6.78,7.8,10.216,2.455,3.222,4.659,6.131,5.869,7.76,3.863,5.207,4.886,7.569,7.96,5.443s-3.784-10.408-3.784-10.408a41.524,41.524,0,0,1,4.018-1.657c2.6-.946,7.334-1.415,10.65,4.019s6.146,4.738,8.038,2.6-4.5-9.66-4.5-9.66,9.227-3.82,12.306,0,3.785,7.056,8.75,5.406-2.838-9.461-2.838-9.461,8.749-.954,14.668,4.055,14.9,23.148,15.372,29.059,9.383,19.633,9.383,19.633" transform="translate(264.263 5197.388)" fill="#2a2929"/>
    <path id="Path_1301" data-name="Path 1301" d="M161.991,28.891c6.914-5.012,14.022-10.19,22.1-13.174A36.955,36.955,0,0,1,196.9,13.29a51.511,51.511,0,0,1,14.032,2.22c1.679.475,4.328.832,5.279,2.48a4.681,4.681,0,0,1-.088,4.218,9.48,9.48,0,0,1-4.228,3.845,15.988,15.988,0,0,1-5.705,2.242c-1.2.107-3.507-1.176-1.6-2.066,1.745-.814,4.062-.913,5.946-1.194a97.711,97.711,0,0,1,14.051-1.029A100.411,100.411,0,0,1,255.7,28.87c2.3.741,3.285-2.875,1-3.612a103.17,103.17,0,0,0-49.775-3.408c-2.1.37-4.484.724-5.9,2.5a4.5,4.5,0,0,0,.536,6c3.609,3.706,9.855.533,13.4-1.75,3.658-2.357,6.521-6.547,5.112-11.059a7.179,7.179,0,0,0-4.68-4.565,55.846,55.846,0,0,0-7.9-2.191,45.13,45.13,0,0,0-16.712-.726c-11.544,1.845-21.429,8.9-30.675,15.6-1.934,1.4-.066,4.652,1.89,3.234" transform="translate(277.65 5194.067)" fill="#f27c00"/>
    <path id="Path_1302" data-name="Path 1302" d="M247.029,19.04l10.64,14.37q-.094-.721-.19-1.444c-.354,1.436-3.061,1.138-4.164,1.1-2.911-.1-5.822-.21-8.733-.315L227.4,32.133c-2.411-.087-2.408,3.66,0,3.746l15.213.547,7.324.264a35.508,35.508,0,0,0,6.243.01,6.053,6.053,0,0,0,4.186-2.153,3.265,3.265,0,0,0,.728-2.581,9.628,9.628,0,0,0-1.85-2.692L250.263,17.15c-1.419-1.917-4.67-.05-3.234,1.89" transform="translate(287.078 5195.027)" fill="#f27c00"/>
    <path id="Path_1303" data-name="Path 1303" d="M370.174,179.364q7.451-4.261,14.921-8.49c4.148-2.335,8.509-4.793,13.443-4.335a13.7,13.7,0,0,1,10.423,6.606c1.147,1.952,3.336,7.407.327,8.86-2.744,1.325-5.936-1.448-6.652-3.938a6.868,6.868,0,0,1,4.423-8.484c3.747-1.316,7.776-.651,11.5.4,5.115,1.443,10.056,3.622,15.342,4.4a20.927,20.927,0,0,0,14.174-2.7,30.189,30.189,0,0,0,9.92-10.585c1.332-2.248-2.168-4.288-3.5-2.045-2.407,4.061-5.592,7.759-9.866,9.911-4.838,2.436-10.033,1.75-15.051.276-5.407-1.588-10.7-3.975-16.388-4.377-4.16-.295-8.861.553-11.886,3.653a11.022,11.022,0,0,0-1.226,13.532c2.255,3.221,6.684,5.291,10.529,3.777,4.34-1.71,4.72-7.029,3.525-10.924a17.617,17.617,0,0,0-9.856-10.983c-5.809-2.495-11.763-1.43-17.273,1.317-6.443,3.211-12.621,7.059-18.869,10.632-2.262,1.294-.224,4.795,2.045,3.5" transform="translate(307.207 5215.141)" fill="#f27c00"/>
    <path id="Path_1304" data-name="Path 1304" d="M435.915,162.387l17.557-12.539c.615-.439,1.85-1.849,2.38-.782a7.165,7.165,0,0,1,.187,3.58,56.06,56.06,0,0,1-1.7,9.759c-.668,2.523,3.238,3.6,3.905,1.077a58.422,58.422,0,0,0,1.922-11.93c.162-3.192-1.348-7.591-5.374-6.932-1.925.313-3.531,1.847-5.068,2.945l-5.286,3.776-10.572,7.551a2.08,2.08,0,0,0-.726,2.77,2.039,2.039,0,0,0,2.771.726" transform="translate(316.553 5213.222)" fill="#f27c00"/>
    <path id="Path_1305" data-name="Path 1305" d="M743.229,178.364q7.451-4.261,14.921-8.49c4.148-2.335,8.509-4.793,13.443-4.335a13.7,13.7,0,0,1,10.423,6.606c1.147,1.952,3.336,7.407.327,8.86-2.744,1.325-5.936-1.448-6.652-3.938a6.868,6.868,0,0,1,4.423-8.484c3.749-1.316,7.776-.651,11.5.4,5.115,1.443,10.056,3.622,15.343,4.4a20.925,20.925,0,0,0,14.172-2.7,30.189,30.189,0,0,0,9.92-10.585c1.332-2.248-2.168-4.288-3.5-2.045-2.407,4.061-5.592,7.759-9.866,9.911-4.838,2.436-10.033,1.75-15.051.276-5.407-1.588-10.7-3.975-16.388-4.377-4.16-.295-8.861.553-11.886,3.653a11.022,11.022,0,0,0-1.226,13.532c2.255,3.221,6.684,5.291,10.529,3.777,4.34-1.71,4.72-7.029,3.525-10.924a17.618,17.618,0,0,0-9.856-10.983c-5.809-2.495-11.764-1.43-17.274,1.317-6.443,3.211-12.621,7.059-18.869,10.632-2.262,1.294-.224,4.795,2.044,3.5" transform="translate(360.255 5214.999)" fill="#f27c00"/>
    <path id="Path_1306" data-name="Path 1306" d="M808.969,161.387l17.557-12.539c.615-.439,1.85-1.849,2.38-.782a7.165,7.165,0,0,1,.187,3.58,56.054,56.054,0,0,1-1.7,9.759c-.668,2.523,3.238,3.6,3.905,1.077a58.422,58.422,0,0,0,1.922-11.93c.162-3.192-1.348-7.591-5.374-6.932-1.925.313-3.53,1.847-5.068,2.945L817.5,150.34q-5.286,3.774-10.572,7.551a2.08,2.08,0,0,0-.726,2.77,2.039,2.039,0,0,0,2.771.726" transform="translate(369.601 5213.081)" fill="#f27c00"/>
    <path id="Path_1307" data-name="Path 1307" d="M584.085,27.188C591,22.177,598.106,17,606.181,14.014a37.007,37.007,0,0,1,12.809-2.427,51.512,51.512,0,0,1,14.032,2.222c1.679.475,4.328.83,5.279,2.48a4.681,4.681,0,0,1-.088,4.218,9.471,9.471,0,0,1-4.228,3.843,15.97,15.97,0,0,1-5.705,2.243c-1.2.107-3.506-1.176-1.6-2.067,1.745-.813,4.062-.911,5.946-1.192A97.711,97.711,0,0,1,646.679,22.3a100.411,100.411,0,0,1,31.111,4.863c2.3.74,3.285-2.875,1-3.612a103.17,103.17,0,0,0-49.775-3.408c-2.1.37-4.484.724-5.9,2.5a4.5,4.5,0,0,0,.536,6c3.609,3.706,9.855.533,13.4-1.751,3.658-2.356,6.521-6.547,5.113-11.058a7.177,7.177,0,0,0-4.68-4.565,55.847,55.847,0,0,0-7.9-2.191,45.13,45.13,0,0,0-16.712-.726c-11.544,1.845-21.429,8.9-30.675,15.6-1.934,1.4-.066,4.652,1.89,3.234" transform="translate(337.671 5193.825)" fill="#f27c00"/>
    <path id="Path_1308" data-name="Path 1308" d="M669.123,17.338l10.64,14.37q-.094-.721-.19-1.444c-.354,1.436-3.061,1.138-4.165,1.1-2.911-.1-5.822-.21-8.733-.315l-17.184-.619c-2.411-.087-2.408,3.66,0,3.746l15.213.547,7.325.264a35.494,35.494,0,0,0,6.242.01,6.049,6.049,0,0,0,4.186-2.154,3.257,3.257,0,0,0,.728-2.58,9.627,9.627,0,0,0-1.85-2.692l-8.977-12.124c-1.419-1.917-4.672-.05-3.235,1.89" transform="translate(347.099 5194.786)" fill="#f27c00"/>
    <text id="_1" data-name="1" transform="translate(278.192 5333.112)" fill="#2a2929" font-size="46" font-family="SegoeUI, Segoe UI"><tspan x="0" y="0">1</tspan></text>
    <path id="Path_1309" data-name="Path 1309" d="M239.786,48.31S227.8,46.061,226.929,59.8s0,100.235,0,100.235-2.046,8.766,8.766,9.059,158.1,0,158.1,0,7.89-.292,8.183-11.4,0-100.527,0-100.527-.292-8.855-11.106-8.855Z" transform="translate(287.213 5199.53)" fill="#2a2929"/>
    <path id="Path_1310" data-name="Path 1310" d="M246.93,55.289s-10.73-1.911-11.514,9.759,0,85.163,0,85.163-1.832,7.448,7.85,7.7,141.577,0,141.577,0,7.066-.249,7.327-9.684,0-85.412,0-85.412-.262-7.524-9.944-7.524Z" transform="translate(288.426 5200.526)" fill="#fff"/>
    <rect id="Rectangle_70" data-name="Rectangle 70" width="167.447" height="20.456" transform="translate(518.524 5342.603)" fill="#2a2929"/>
    <path id="Path_1311" data-name="Path 1311" d="M289.256,154.15s-1.168,14.774-1.753,18.281-2.63,3.8-2.63,3.8H272.6s-3.215,4.383,0,4.383h70.427s3.214-5.114,0-5.187-11.982,0-11.982,0-1.558.219-1.85-4.164-1.364-17.111-1.364-17.111Z" transform="translate(293.56 5214.583)" fill="#2a2929"/>
    <path id="Path_1312" data-name="Path 1312" d="M269.444,186.419H247.38s-3.944-1.461-5.7,5.406-8.62,26.593-8.62,26.593-2.923,7.979,8.475,7.979H387.651s8.182-.089,6.574-8.271-8.766-28.055-8.766-28.055-2.338-4.059-8.329-3.783-107.686.13-107.686.13" transform="translate(288.093 5219.141)" fill="#2a2929"/>
    <path id="Path_1313" data-name="Path 1313" d="M265.777,201.877h-4.81a1.978,1.978,0,0,1-1.978-1.978v-1.157a1.978,1.978,0,0,1,1.978-1.978h4.81a1.978,1.978,0,0,1,1.978,1.978V199.9a1.978,1.978,0,0,1-1.978,1.978" transform="translate(291.828 5220.634)" fill="#aabd00"/>
    <path id="Path_1314" data-name="Path 1314" d="M279.252,201.877h-4.81a1.978,1.978,0,0,1-1.978-1.978v-1.157a1.978,1.978,0,0,1,1.978-1.978h4.81a1.978,1.978,0,0,1,1.978,1.978V199.9a1.978,1.978,0,0,1-1.978,1.978" transform="translate(293.744 5220.634)" fill="#aabd00"/>
    <path id="Path_1315" data-name="Path 1315" d="M293.067,201.877h-4.81a1.978,1.978,0,0,1-1.978-1.978v-1.157a1.978,1.978,0,0,1,1.978-1.978h4.81a1.978,1.978,0,0,1,1.978,1.978V199.9a1.978,1.978,0,0,1-1.978,1.978" transform="translate(295.708 5220.634)" fill="#aabd00"/>
    <path id="Path_1316" data-name="Path 1316" d="M306.969,201.877h-4.811a1.978,1.978,0,0,1-1.978-1.978v-1.157a1.978,1.978,0,0,1,1.978-1.978h4.811a1.977,1.977,0,0,1,1.977,1.978V199.9a1.978,1.978,0,0,1-1.977,1.978" transform="translate(297.685 5220.634)" fill="#aabd00"/>
    <path id="Path_1317" data-name="Path 1317" d="M320.614,201.877H315.8a1.978,1.978,0,0,1-1.978-1.978v-1.157a1.978,1.978,0,0,1,1.978-1.978h4.81a1.978,1.978,0,0,1,1.978,1.978V199.9a1.978,1.978,0,0,1-1.978,1.978" transform="translate(299.625 5220.634)" fill="#aabd00"/>
    <path id="Path_1318" data-name="Path 1318" d="M334.444,201.877h-4.81a1.978,1.978,0,0,1-1.978-1.978v-1.157a1.978,1.978,0,0,1,1.978-1.978h4.81a1.978,1.978,0,0,1,1.978,1.978V199.9a1.978,1.978,0,0,1-1.978,1.978" transform="translate(301.592 5220.634)" fill="#aabd00"/>
    <path id="Path_1319" data-name="Path 1319" d="M347.748,201.877h-4.81a1.978,1.978,0,0,1-1.978-1.978v-1.157a1.978,1.978,0,0,1,1.978-1.978h4.81a1.978,1.978,0,0,1,1.978,1.978V199.9a1.978,1.978,0,0,1-1.978,1.978" transform="translate(303.484 5220.634)" fill="#aabd00"/>
    <path id="Path_1320" data-name="Path 1320" d="M347.748,211h-4.81a1.978,1.978,0,0,1-1.978-1.978v-1.157a1.978,1.978,0,0,1,1.978-1.978h4.81a1.978,1.978,0,0,1,1.978,1.978v1.157A1.978,1.978,0,0,1,347.748,211" transform="translate(303.484 5221.93)" fill="#aabd00"/>
    <path id="Path_1321" data-name="Path 1321" d="M334.444,211h-4.81a1.978,1.978,0,0,1-1.978-1.978v-1.157a1.978,1.978,0,0,1,1.978-1.978h4.81a1.978,1.978,0,0,1,1.978,1.978v1.157A1.978,1.978,0,0,1,334.444,211" transform="translate(301.592 5221.93)" fill="#aabd00"/>
    <path id="Path_1322" data-name="Path 1322" d="M320.614,211H315.8a1.978,1.978,0,0,1-1.978-1.978v-1.157a1.978,1.978,0,0,1,1.978-1.978h4.81a1.978,1.978,0,0,1,1.978,1.978v1.157A1.978,1.978,0,0,1,320.614,211" transform="translate(299.625 5221.93)" fill="#aabd00"/>
    <path id="Path_1323" data-name="Path 1323" d="M306.841,211H302.03a1.978,1.978,0,0,1-1.978-1.978v-1.157a1.978,1.978,0,0,1,1.978-1.978h4.811a1.978,1.978,0,0,1,1.978,1.978v1.157A1.979,1.979,0,0,1,306.841,211" transform="translate(297.667 5221.93)" fill="#aabd00"/>
    <path id="Path_1324" data-name="Path 1324" d="M293.067,211h-4.81a1.978,1.978,0,0,1-1.978-1.978v-1.157a1.978,1.978,0,0,1,1.978-1.978h4.81a1.978,1.978,0,0,1,1.978,1.978v1.157A1.978,1.978,0,0,1,293.067,211" transform="translate(295.708 5221.93)" fill="#aabd00"/>
    <path id="Path_1325" data-name="Path 1325" d="M279.252,211h-4.81a1.978,1.978,0,0,1-1.978-1.978v-1.157a1.978,1.978,0,0,1,1.978-1.978h4.81a1.978,1.978,0,0,1,1.978,1.978v1.157A1.978,1.978,0,0,1,279.252,211" transform="translate(293.744 5221.93)" fill="#aabd00"/>
    <path id="Path_1326" data-name="Path 1326" d="M265.436,211h-4.81a1.978,1.978,0,0,1-1.978-1.978v-1.157a1.978,1.978,0,0,1,1.978-1.978h4.81a1.978,1.978,0,0,1,1.978,1.978v1.157A1.978,1.978,0,0,1,265.436,211" transform="translate(291.779 5221.93)" fill="#aabd00"/>
    <path id="Path_1327" data-name="Path 1327" d="M309.133,144.1h-9.618a1.694,1.694,0,0,1,0-3.388h9.618a1.694,1.694,0,1,1,0,3.388" transform="translate(297.35 5212.679)" fill="#aabd00"/>
    <rect id="Rectangle_71" data-name="Rectangle 71" width="98.011" height="58.446" transform="translate(555.199 5271.699)" fill="none" stroke="#f27c00" stroke-miterlimit="10" stroke-width="3.077"/>
    <path id="Path_1328" data-name="Path 1328" d="M262.826,69.18l46.334,36.53,51.676-36.53Z" transform="translate(292.373 5202.523)" fill="none" stroke="#f27c00" stroke-miterlimit="10" stroke-width="3.077"/>
    <path id="Path_1329" data-name="Path 1329" d="M262.826,99.123l21.439-15.145,24.9,19.627L335,85.34l25.839,15.536" transform="translate(292.373 5204.625)" fill="none" stroke="#f27c00" stroke-miterlimit="10" stroke-width="3.077"/>
    <text id="_2" data-name="2" transform="translate(468.408 5443.456)" fill="#2a2929" font-size="46" font-family="SegoeUI, Segoe UI"><tspan x="0" y="0">2</tspan></text>
    <path id="Path_1330" data-name="Path 1330" d="M501.22,31.3s7.343,6.584,7.216,14.56-7.216,6.331-7.216,6.331-8.1.633-2.405,7.6,26.715,27.221,26.715,27.221,5.444,5.065,7.216-2.026,2.279-8.483,5.317-8.356,11.9,2.786,13.928,5.064,2.279,4.684.506,10.508-7.724,10.129-7.724,10.129,39.249,1.267,25.575-52.29-81.6-36.843-89.609-25.827-27,24.308-19.4,57.734,41.4,41.78,47.1,42.161,11.269-.127,12.155,3.419-1.267,5.792-9.243,5.111-50.265-10.809-57.228-50.944S477.8,13.32,494.889,7.748s49-7.722,67.988,15.826S582.755,64.6,577.692,84.98,550.218,116,529.327,107.644,483.115,65.23,483.115,65.23s-6.837-14.307-1.013-23.8S498.524,28.317,501.22,31.3" transform="translate(319.431 5193.273)" fill="#aabd00"/>
    <path id="Path_1331" data-name="Path 1331" d="M510.111,21.206v6.646s18.137.191,26.778,10.351S547.239,52.351,548,57.954s.949,8.737.949,8.737h6.362S557.02,56.245,548,41.716s-26.4-20.226-37.888-20.51" transform="translate(327.537 5195.713)" fill="#aabd00"/>
    <path id="Path_1332" data-name="Path 1332" d="M510.111,31.431v4.94s13.407.142,19.8,7.693,7.65,10.515,8.212,14.68.7,6.492.7,6.492h4.7s1.263-7.764-5.4-18.561S518.6,31.642,510.111,31.431" transform="translate(327.537 5197.166)" fill="#aabd00"/>
    <text id="_3" data-name="3" transform="translate(745.192 5334.449)" fill="#2a2929" font-size="46" font-family="SegoeUI, Segoe UI"><tspan x="0" y="0">3</tspan></text>
    <path id="Path_1333" data-name="Path 1333" d="M619.449,47.694s-11.982-2.249-12.858,11.486,0,100.235,0,100.235-2.046,8.766,8.766,9.059,158.1,0,158.1,0,7.89-.292,8.183-11.4,0-100.527,0-100.527-.292-8.855-11.106-8.855Z" transform="translate(341.2 5199.442)" fill="#2a2929"/>
    <path id="Path_1334" data-name="Path 1334" d="M626.593,54.673s-10.73-1.911-11.515,9.759,0,85.163,0,85.163-1.832,7.448,7.85,7.7,141.577,0,141.577,0,7.066-.249,7.327-9.684,0-85.412,0-85.412-.262-7.524-9.944-7.524Z" transform="translate(342.413 5200.438)" fill="#fff"/>
    <rect id="Rectangle_74" data-name="Rectangle 74" width="167.447" height="20.456" transform="translate(952.175 5341.899)" fill="#2a2929"/>
    <path id="Path_1335" data-name="Path 1335" d="M668.919,153.534s-1.169,14.774-1.753,18.281-2.631,3.8-2.631,3.8H652.262s-3.215,4.383,0,4.383h70.427s3.214-5.114,0-5.187-11.982,0-11.982,0-1.558.219-1.85-4.164-1.364-17.111-1.364-17.111Z" transform="translate(347.547 5214.496)" fill="#2a2929"/>
    <path id="Path_1336" data-name="Path 1336" d="M649.107,185.8H627.043s-3.944-1.461-5.7,5.406-8.62,26.593-8.62,26.593-2.923,7.979,8.475,7.979H767.314s8.182-.089,6.575-8.272-8.766-28.054-8.766-28.054-2.338-4.059-8.329-3.783-107.686.13-107.686.13" transform="translate(342.08 5219.054)" fill="#2a2929"/>
    <path id="Path_1337" data-name="Path 1337" d="M645.44,201.261h-4.81a1.978,1.978,0,0,1-1.978-1.978v-1.157a1.978,1.978,0,0,1,1.978-1.978h4.81a1.978,1.978,0,0,1,1.978,1.978v1.157a1.978,1.978,0,0,1-1.978,1.978" transform="translate(345.815 5220.547)" fill="#aabd00"/>
    <path id="Path_1338" data-name="Path 1338" d="M658.915,201.261h-4.81a1.978,1.978,0,0,1-1.978-1.978v-1.157a1.978,1.978,0,0,1,1.978-1.978h4.81a1.978,1.978,0,0,1,1.978,1.978v1.157a1.978,1.978,0,0,1-1.978,1.978" transform="translate(347.731 5220.547)" fill="#aabd00"/>
    <path id="Path_1339" data-name="Path 1339" d="M672.73,201.261h-4.81a1.978,1.978,0,0,1-1.978-1.978v-1.157a1.978,1.978,0,0,1,1.978-1.978h4.81a1.978,1.978,0,0,1,1.978,1.978v1.157a1.978,1.978,0,0,1-1.978,1.978" transform="translate(349.695 5220.547)" fill="#aabd00"/>
    <path id="Path_1340" data-name="Path 1340" d="M686.632,201.261h-4.81a1.978,1.978,0,0,1-1.978-1.978v-1.157a1.978,1.978,0,0,1,1.978-1.978h4.81a1.978,1.978,0,0,1,1.978,1.978v1.157a1.978,1.978,0,0,1-1.978,1.978" transform="translate(351.672 5220.547)" fill="#aabd00"/>
    <path id="Path_1341" data-name="Path 1341" d="M700.277,201.261h-4.81a1.978,1.978,0,0,1-1.978-1.978v-1.157a1.978,1.978,0,0,1,1.978-1.978h4.81a1.978,1.978,0,0,1,1.978,1.978v1.157a1.978,1.978,0,0,1-1.978,1.978" transform="translate(353.613 5220.547)" fill="#aabd00"/>
    <path id="Path_1342" data-name="Path 1342" d="M714.107,201.261H709.3a1.978,1.978,0,0,1-1.978-1.978v-1.157a1.978,1.978,0,0,1,1.978-1.978h4.81a1.978,1.978,0,0,1,1.978,1.978v1.157a1.978,1.978,0,0,1-1.978,1.978" transform="translate(355.579 5220.547)" fill="#aabd00"/>
    <path id="Path_1343" data-name="Path 1343" d="M727.411,201.261H722.6a1.978,1.978,0,0,1-1.978-1.978v-1.157a1.978,1.978,0,0,1,1.978-1.978h4.81a1.978,1.978,0,0,1,1.978,1.978v1.157a1.978,1.978,0,0,1-1.978,1.978" transform="translate(357.471 5220.547)" fill="#aabd00"/>
    <path id="Path_1344" data-name="Path 1344" d="M727.411,210.386H722.6a1.978,1.978,0,0,1-1.978-1.978V207.25a1.978,1.978,0,0,1,1.978-1.978h4.81a1.978,1.978,0,0,1,1.978,1.978v1.157a1.978,1.978,0,0,1-1.978,1.978" transform="translate(357.471 5221.842)" fill="#aabd00"/>
    <path id="Path_1345" data-name="Path 1345" d="M714.107,210.386H709.3a1.978,1.978,0,0,1-1.978-1.978V207.25a1.978,1.978,0,0,1,1.978-1.978h4.81a1.978,1.978,0,0,1,1.978,1.978v1.157a1.978,1.978,0,0,1-1.978,1.978" transform="translate(355.579 5221.842)" fill="#aabd00"/>
    <path id="Path_1346" data-name="Path 1346" d="M700.277,210.386h-4.81a1.978,1.978,0,0,1-1.978-1.978V207.25a1.978,1.978,0,0,1,1.978-1.978h4.81a1.978,1.978,0,0,1,1.978,1.978v1.157a1.978,1.978,0,0,1-1.978,1.978" transform="translate(353.613 5221.842)" fill="#aabd00"/>
    <path id="Path_1347" data-name="Path 1347" d="M686.5,210.386h-4.81a1.978,1.978,0,0,1-1.978-1.978V207.25a1.978,1.978,0,0,1,1.978-1.978h4.81a1.978,1.978,0,0,1,1.978,1.978v1.157a1.978,1.978,0,0,1-1.978,1.978" transform="translate(351.654 5221.842)" fill="#aabd00"/>
    <path id="Path_1348" data-name="Path 1348" d="M672.73,210.386h-4.81a1.978,1.978,0,0,1-1.978-1.978V207.25a1.978,1.978,0,0,1,1.978-1.978h4.81a1.978,1.978,0,0,1,1.978,1.978v1.157a1.978,1.978,0,0,1-1.978,1.978" transform="translate(349.695 5221.842)" fill="#aabd00"/>
    <path id="Path_1349" data-name="Path 1349" d="M658.915,210.386h-4.81a1.978,1.978,0,0,1-1.978-1.978V207.25a1.978,1.978,0,0,1,1.978-1.978h4.81a1.978,1.978,0,0,1,1.978,1.978v1.157a1.978,1.978,0,0,1-1.978,1.978" transform="translate(347.731 5221.842)" fill="#aabd00"/>
    <path id="Path_1350" data-name="Path 1350" d="M645.1,210.386h-4.81a1.978,1.978,0,0,1-1.978-1.978V207.25a1.978,1.978,0,0,1,1.978-1.978h4.81a1.978,1.978,0,0,1,1.978,1.978v1.157a1.978,1.978,0,0,1-1.978,1.978" transform="translate(345.766 5221.842)" fill="#aabd00"/>
    <path id="Path_1351" data-name="Path 1351" d="M688.8,143.48h-9.618a1.694,1.694,0,0,1,0-3.388H688.8a1.694,1.694,0,0,1,0,3.388" transform="translate(351.337 5212.592)" fill="#aabd00"/>
    <rect id="Rectangle_75" data-name="Rectangle 75" width="98.011" height="58.446" transform="translate(988.849 5270.996)" fill="none" stroke="#f27c00" stroke-miterlimit="10" stroke-width="3.077"/>
    <path id="Path_1352" data-name="Path 1352" d="M642.489,68.564l46.334,36.53L740.5,68.564Z" transform="translate(346.36 5202.436)" fill="none" stroke="#f27c00" stroke-miterlimit="10" stroke-width="3.077"/>
    <path id="Path_1353" data-name="Path 1353" d="M642.489,98.507l21.439-15.145,24.9,19.627,25.838-18.265L740.5,100.26" transform="translate(346.36 5204.539)" fill="none" stroke="#f27c00" stroke-miterlimit="10" stroke-width="3.077"/>
    <text id="_4" data-name="4" transform="translate(899.528 5443.937)" fill="#2a2929" font-size="46" font-family="SegoeUI, Segoe UI"><tspan x="0" y="0">4</tspan></text>
    <path id="Path_1354" data-name="Path 1354" d="M996.513,17.231h22.442s-4.7,23.086,10.961,20.939S1041.4,17.231,1041.4,17.231h34.446v99.861h-34.968s5.22,20.4-9.915,20.939c0,0-15.581,2.147-14.576-19.865l-35.006-.537V77.66S963.11,85.952,960.5,67.7s20.877-11.275,20.877-11.275V17.231Z" transform="translate(374.552 5195.138)" fill="#aabd00"/>
    <path id="Path_1355" data-name="Path 1355" d="M969.45,37.253V60.339S947.008,55.507,949.1,71.614,969.45,83.425,969.45,83.425v35.436H872.375V82.888s-19.832,5.369-20.354-10.2c0,0-2.088-16.027,19.31-14.994l.522-36.01h38.854S902.645,2.892,920.391.208s10.96,21.476,10.96,21.476h38.1Z" transform="translate(359.147 5192.693)" fill="#f27c00"/>
    <text id="_5" data-name="5" transform="translate(1195.304 5333.204)" fill="#2a2929" font-size="46" font-family="SegoeUI, Segoe UI"><tspan x="0" y="0">5</tspan></text>
    <path id="Rectangle_98" data-name="Rectangle 98" d="M6.407,0H122.443a6.406,6.406,0,0,1,6.406,6.406V152.887a6.407,6.407,0,0,1-6.407,6.407H6.407A6.407,6.407,0,0,1,0,152.887V6.407A6.407,6.407,0,0,1,6.407,0Z" transform="translate(1523.871 5283.41)" fill="none" stroke="#aabd00" stroke-miterlimit="10" stroke-width="4.696"/>
    <path id="Path_1393" data-name="Path 1393" d="M1124.42,90.749s-2.962-6.44,7.557-10.2,68.906-30.374,68.906-30.374,7.191-2.361,7.727,4.616a115.442,115.442,0,0,1,0,14.6L1221.276,68s5.151,1.609,5.044,5.8,0,9.874,0,9.874" transform="translate(399.835 5199.771)" fill="none" stroke="#aabd00" stroke-miterlimit="10" stroke-width="4.696"/>
    <line id="Line_13" data-name="Line 13" y1="14.275" x2="63.969" transform="translate(1544.477 5269.16)" fill="none" stroke="#aabd00" stroke-miterlimit="10" stroke-width="4.696"/>
    <path id="Rectangle_99" data-name="Rectangle 99" d="M5.961,0H88.92a5.96,5.96,0,0,1,5.96,5.96V49.851a5.961,5.961,0,0,1-5.961,5.961H5.961A5.961,5.961,0,0,1,0,49.851V5.961A5.961,5.961,0,0,1,5.961,0Z" transform="translate(1541.472 5300.164)" fill="none" stroke="#aabd00" stroke-miterlimit="10" stroke-width="4.696"/>
    <rect id="Rectangle_100" data-name="Rectangle 100" width="93.593" height="6.01" rx="2.186" transform="translate(1542.759 5403.185)" fill="none" stroke="#aabd00" stroke-miterlimit="10" stroke-width="4.696"/>
    <rect id="Rectangle_101" data-name="Rectangle 101" width="93.593" height="6.01" rx="2.186" transform="translate(1542.759 5419.066)" fill="none" stroke="#aabd00" stroke-miterlimit="10" stroke-width="4.696"/>
    <text id="_6" data-name="6" transform="translate(1476.031 5443.118)" fill="#2a2929" font-size="45" font-family="SegoeUI, Segoe UI"><tspan x="0" y="0">6</tspan></text>
    <path id="Path_1413" data-name="Path 1413" d="M995.344,135.7q7.967,1.8,15.927,3.636c4.371,1.017,9.213,1.906,12.659,5.013a13.9,13.9,0,0,1,4.605,10.836c-.126,2.967-1.533,7.962-4.842,8.915-1.451.417-2.672-.8-3.328-1.961a5.82,5.82,0,0,1-.1-5.455,6.956,6.956,0,0,1,9.625-2.953c3.945,2.013,6.427,5.746,8.586,9.47,2.279,3.928,4.29,8.025,7.1,11.62a20.83,20.83,0,0,0,12.062,7.783,29.911,29.911,0,0,0,14.843-.988c2.488-.752,1.428-4.662-1.077-3.905-4.716,1.424-9.789,2.014-14.56.492-4.849-1.547-8.033-5.335-10.6-9.542-2.729-4.48-4.89-9.367-8.266-13.424-2.919-3.508-7.353-6.746-12.143-6.477a11.023,11.023,0,0,0-10.179,9.47c-.507,4.34,2.3,9.679,7.076,9.994,4.592.3,7.711-4.364,8.983-8.187a17.7,17.7,0,0,0-1.574-14.418c-2.989-5.1-8.133-7.742-13.689-9.2-6.619-1.741-13.352-3.111-20.027-4.62-2.539-.575-3.623,3.329-1.077,3.905" transform="translate(386.329 5211.399)" fill="#f27c00"/>
    <path id="Path_1414" data-name="Path 1414" d="M1055.527,168l21.063,2.576a9.712,9.712,0,0,1,1.869.276c.481.159.343.077.406.411.2,1.063-1.711,2.513-2.352,3.1a56.181,56.181,0,0,1-7.786,6.021c-2.187,1.4-.159,4.91,2.043,3.5a58.219,58.219,0,0,0,9.472-7.467,8,8,0,0,0,2.638-4.773,4.285,4.285,0,0,0-2.279-4.291c-1.648-.827-3.722-.793-5.516-1.012l-6.52-.8-13.039-1.594a2.036,2.036,0,0,0-2.025,2.025,2.075,2.075,0,0,0,2.025,2.025" transform="translate(394.805 5215.974)" fill="#f27c00"/>
  </g>
</svg>
