<svg xmlns="http://www.w3.org/2000/svg" width="54.441" height="54.441" viewBox="0 0 54.441 54.441"><g transform="translate(-276.235 -0.001)"><path d="M34.347,13.91a4.933,4.933,0,0,0-2.832-2.832,8.271,8.271,0,0,0-2.772-.515c-1.573-.072-2.045-.087-6.03-.087s-4.457.016-6.03.087a8.271,8.271,0,0,0-2.772.515,4.933,4.933,0,0,0-2.832,2.832,8.269,8.269,0,0,0-.515,2.771c-.072,1.575-.086,2.047-.086,6.032s.014,4.457.086,6.03a8.271,8.271,0,0,0,.515,2.772,4.933,4.933,0,0,0,2.832,2.832,8.244,8.244,0,0,0,2.772.514c1.573.072,2.044.087,6.03.087s4.457-.016,6.03-.087a8.244,8.244,0,0,0,2.772-.514,4.933,4.933,0,0,0,2.832-2.832,8.244,8.244,0,0,0,.514-2.772c.073-1.573.087-2.045.087-6.03s-.014-4.457-.087-6.032a8.242,8.242,0,0,0-.514-2.771M22.712,30.377a7.664,7.664,0,1,1,7.664-7.664,7.664,7.664,0,0,1-7.664,7.664m7.967-13.84a1.791,1.791,0,1,1,1.791-1.791,1.791,1.791,0,0,1-1.791,1.791" transform="translate(280.744 4.51)" fill="#fff"/><path d="M20.528,15.552A4.975,4.975,0,1,0,25.5,20.527a4.975,4.975,0,0,0-4.973-4.975" transform="translate(282.928 6.694)" fill="#fff"/><path d="M27.22,0A27.221,27.221,0,1,0,54.441,27.221,27.22,27.22,0,0,0,27.22,0M42.056,33.375A10.965,10.965,0,0,1,41.362,37,7.64,7.64,0,0,1,37,41.363a11,11,0,0,1-3.623.694c-1.592.072-2.1.089-6.153.089s-4.561-.017-6.153-.089a11.01,11.01,0,0,1-3.623-.694A7.632,7.632,0,0,1,13.079,37a10.929,10.929,0,0,1-.694-3.623c-.073-1.592-.09-2.1-.09-6.153s.017-4.561.09-6.153a10.929,10.929,0,0,1,.694-3.623,7.632,7.632,0,0,1,4.364-4.365,10.973,10.973,0,0,1,3.623-.694c1.592-.072,2.1-.09,6.153-.09s4.561.019,6.153.09A10.965,10.965,0,0,1,37,13.079a7.64,7.64,0,0,1,4.365,4.365,10.965,10.965,0,0,1,.694,3.623c.073,1.592.09,2.1.09,6.153s-.017,4.561-.09,6.153" transform="translate(276.235 0.001)" fill="#fff"/><rect width="54.441" height="54.441" transform="translate(276.235 0.001)" fill="none"/><path d="M34.347,13.91a4.933,4.933,0,0,0-2.832-2.832,8.271,8.271,0,0,0-2.772-.515c-1.573-.072-2.045-.087-6.03-.087s-4.457.016-6.03.087a8.271,8.271,0,0,0-2.772.515,4.933,4.933,0,0,0-2.832,2.832,8.269,8.269,0,0,0-.515,2.771c-.072,1.575-.086,2.047-.086,6.032s.014,4.457.086,6.03a8.271,8.271,0,0,0,.515,2.772,4.933,4.933,0,0,0,2.832,2.832,8.244,8.244,0,0,0,2.772.514c1.573.072,2.044.087,6.03.087s4.457-.016,6.03-.087a8.244,8.244,0,0,0,2.772-.514,4.933,4.933,0,0,0,2.832-2.832,8.244,8.244,0,0,0,.514-2.772c.073-1.573.087-2.045.087-6.03s-.014-4.457-.087-6.032a8.242,8.242,0,0,0-.514-2.771M22.712,30.377a7.664,7.664,0,1,1,7.664-7.664,7.664,7.664,0,0,1-7.664,7.664m7.967-13.84a1.791,1.791,0,1,1,1.791-1.791,1.791,1.791,0,0,1-1.791,1.791" transform="translate(280.744 4.51)" fill="#fff"/><path d="M20.528,15.552A4.975,4.975,0,1,0,25.5,20.527a4.975,4.975,0,0,0-4.973-4.975" transform="translate(282.928 6.694)" fill="#fff"/><path d="M27.22,0A27.221,27.221,0,1,0,54.441,27.221,27.22,27.22,0,0,0,27.22,0M42.056,33.375A10.965,10.965,0,0,1,41.362,37,7.64,7.64,0,0,1,37,41.363a11,11,0,0,1-3.623.694c-1.592.072-2.1.089-6.153.089s-4.561-.017-6.153-.089a11.01,11.01,0,0,1-3.623-.694A7.632,7.632,0,0,1,13.079,37a10.929,10.929,0,0,1-.694-3.623c-.073-1.592-.09-2.1-.09-6.153s.017-4.561.09-6.153a10.929,10.929,0,0,1,.694-3.623,7.632,7.632,0,0,1,4.364-4.365,10.973,10.973,0,0,1,3.623-.694c1.592-.072,2.1-.09,6.153-.09s4.561.019,6.153.09A10.965,10.965,0,0,1,37,13.079a7.64,7.64,0,0,1,4.365,4.365,10.965,10.965,0,0,1,.694,3.623c.073,1.592.09,2.1.09,6.153s-.017,4.561-.09,6.153" transform="translate(276.235 0.001)" fill="#fff"/></g></svg>