<svg xmlns="http://www.w3.org/2000/svg" width="54.441" height="54.441" viewBox="0 0 54.441 54.441"><g transform="translate(-202.675 65.999)"><path d="M27.221,0a27.221,27.221,0,1,0,27.22,27.22A27.221,27.221,0,0,0,27.221,0m-6.71,39.352H14.877v-18.2h5.634ZM17.668,18.769A3.359,3.359,0,1,1,21,15.411a3.345,3.345,0,0,1-3.331,3.359M41.624,39.352H36.017V29.8c0-2.62-1-4.084-3.067-4.084-2.256,0-3.433,1.525-3.433,4.084v9.553h-5.4v-18.2h5.4V23.6A6.347,6.347,0,0,1,35,20.6c3.858,0,6.621,2.357,6.621,7.232Z" transform="translate(202.675 -65.999)" fill="#fff"/></g></svg>