<svg xmlns="http://www.w3.org/2000/svg" xmlns:xlink="http://www.w3.org/1999/xlink" width="162" height="39.284" viewBox="0 0 162 39.284"><defs><clipPath id="a"><path d="M0,5.6H162V-33.682H0Z" transform="translate(0 33.682)" fill="none"/></clipPath></defs><g transform="translate(-146 -449.682)"><g transform="translate(146 449.682)"><g transform="translate(0 0)" clip-path="url(#a)"><g transform="translate(84.317 30.719)"><path d="M.22.479c0,.233.013.358.038.376A.131.131,0,0,0,.342.9C.377.9.428.907.5.909s.15,0,.245,0h.545a.851.851,0,0,0,.5-.1c.07-.057.1-.188.1-.4V.207C1.892.169,1.89.131,1.89.1V.007a.435.435,0,0,0,0-.058.326.326,0,0,1,0-.038c0-.241.108-.363.324-.363.241,0,.362.112.362.336a1.034,1.034,0,0,1-.006.136L2.517.33c0,.048-.008.094-.009.14s0,.091,0,.139V.674c0,.026,0,.056.006.09a.258.258,0,0,0,0,.045.258.258,0,0,1,0,.045c0,.051.007.1.009.152s0,.087,0,.113q0,.369-.421.37l-.045,0a.6.6,0,0,0-.077,0l-.078,0c-.03,0-.062,0-.1,0a.847.847,0,0,0-.1-.006H1.591c-.034,0-.07,0-.106,0s-.077,0-.12,0L.9,1.456H-.227c-.051,0-.11,0-.175.006q-.038,0-.087,0c-.031,0-.065,0-.1,0l-.061,0c-.028,0-.057,0-.087.009s-.077.007-.113.009-.071,0-.1,0c-.246,0-.37-.1-.37-.31,0-.19.1-.285.3-.285-.009,0,.009,0,.055.006l.106.013q.045,0,.084,0l.052,0C-.583.926-.512.8-.512.55V-1.941c0-.251-.071-.376-.213-.376a.6.6,0,0,0-.11.013.98.98,0,0,1-.188.02.3.3,0,0,1-.211-.082.272.272,0,0,1-.087-.21c0-.2.126-.3.376-.3h.052a.291.291,0,0,1,.058.007H-.842l.33.038.233.022c.069.007.12.01.155.01a1.672,1.672,0,0,0,.171-.01l.217-.022L.55-2.873H.543A.217.217,0,0,1,.6-2.88H.647c.254,0,.383.1.383.3a.272.272,0,0,1-.087.21.3.3,0,0,1-.211.082A1.051,1.051,0,0,1,.543-2.3a.249.249,0,0,0-.051-.009.435.435,0,0,0-.058,0c-.142,0-.213.125-.213.376Z" transform="translate(1.321 2.88)" fill="#ff7d23"/></g><g transform="translate(88.304 31.825)"><path d="M.43.465C.266.465.174.4.151.265A1.294,1.294,0,0,1-.7.543,1.192,1.192,0,0,1-1.8.051a.945.945,0,0,1-.1-.233,1.118,1.118,0,0,1-.045-.259c0-.051-.006-.125-.006-.22V-1.5q0-.758-.078-.758l-.038,0-.058.009c-.022,0-.052.009-.093.014s-.057.006-.049.006c-.211,0-.317-.1-.317-.292s.124-.278.369-.278l.082,0c.033,0,.065,0,.1.009s.068.007.1.009l.08,0,.071,0a.534.534,0,0,0,.1-.016l.051-.009a.512.512,0,0,1,.065,0c.2,0,.3.106.3.317v.129l-.006.408-.02.453V-1.1a3.693,3.693,0,0,0,.022.447,1.828,1.828,0,0,0,.056.292.541.541,0,0,0,.575.33.792.792,0,0,0,.4-.1.565.565,0,0,0,.25-.279,2.7,2.7,0,0,0,.091-.874v-.737C.093-2.165.074-2.234.049-2.234a.6.6,0,0,0-.091.013H-.133c-.211,0-.317-.092-.317-.278s.114-.3.343-.3l.078,0,.1.009.1.01c.03,0,.052,0,.065,0H.284a.512.512,0,0,0,.08-.006.624.624,0,0,1,.082-.009c.028,0,.052,0,.075,0,.194,0,.29.092.29.278A.761.761,0,0,1,.8-2.356v-.007c-.008.078-.016.173-.022.285s-.01.241-.01.388v.945q0,.362.007.4c.022.177.043.265.065.265l.044,0L.954-.1l.087-.013c.037,0,.051-.006.042-.006.212,0,.317.094.317.285s-.12.3-.362.3H.977A.309.309,0,0,1,.909.458l-.027,0-.019,0C.76.44.7.433.689.433l-.016,0a.068.068,0,0,1-.022,0A.428.428,0,0,0,.579.445H.585A.643.643,0,0,1,.43.465" transform="translate(2.586 2.797)" fill="#ff7d23"/></g><g transform="translate(92.381 31.723)"><path d="M.143.016a.245.245,0,0,1,.279.2A1.27,1.27,0,0,1,1.3-.094a1.355,1.355,0,0,1,.68.181H1.974a.984.984,0,0,1,.447.46,1.463,1.463,0,0,1,.1.576v1.47q.007.1.045.129l.084,0a.625.625,0,0,0,.085-.01L2.789,2.7a.512.512,0,0,1,.065,0,.3.3,0,0,1,.208.082.25.25,0,0,1,.09.19.27.27,0,0,1-.1.217.376.376,0,0,1-.252.087l-.1,0a.953.953,0,0,1-.139-.015c-.065-.009-.135-.016-.211-.023s-.141-.009-.2-.009-.087,0-.133,0a1.1,1.1,0,0,0-.119.009l-.233.029-.1.009c-.233,0-.349-.1-.349-.3,0-.181.1-.272.31-.272a.194.194,0,0,0,.051.007.323.323,0,0,1,.049,0,.328.328,0,0,0,.049,0l.051.01.033,0a.135.135,0,0,0,.026.006c.03,0,.047-.082.051-.246,0-.051,0-.1.007-.159s.006-.106.006-.159L1.852,1.8V1.329A2.069,2.069,0,0,0,1.819.9.5.5,0,0,0,1.748.718.517.517,0,0,0,1.625.585V.592a.686.686,0,0,0-.4-.129.674.674,0,0,0-.622.3,1.651,1.651,0,0,0-.129.777v.815a1.777,1.777,0,0,0,.016.3c.012.051.029.078.056.078L.59,2.727l.071-.013a.645.645,0,0,1,.075-.02.6.6,0,0,1,.087-.006.26.26,0,0,1,.3.292q0,.29-.35.29c-.021,0-.063,0-.126-.013s-.133-.017-.21-.026a1.946,1.946,0,0,0-.285-.02q-.059,0-.14.007c-.054,0-.118.01-.19.019l-.143.014a.633.633,0,0,1-.11.015l-.064,0c-.243,0-.363-.1-.363-.3s.1-.279.3-.279a.36.36,0,0,1,.055,0l.049.009a.719.719,0,0,0,.175.02c.051,0,.079-.089.084-.265,0-.113,0-.226.006-.341s.007-.227.007-.339V1.039L-.2.825c-.009-.1-.017-.163-.026-.2S-.25.554-.271.546A.162.162,0,0,1-.329.556.406.406,0,0,0-.4.566L-.472.575a.613.613,0,0,1-.065,0C-.753.579-.86.483-.86.294S-.735.009-.484.009a.227.227,0,0,0,.042,0A.071.071,0,0,1-.4.016l.213.026c.021,0,.047,0,.075,0A.585.585,0,0,0-.032.028L.056.019q.035,0,.087,0" transform="translate(0.86 0.094)" fill="#ff7d23"/></g><g transform="translate(96.601 31.723)"><path d="M.254.175a.364.364,0,0,1,.068-.23.37.37,0,0,1,.224-.12C.48-.378.3-.478.008-.478a.706.706,0,0,0-.6.31A1.382,1.382,0,0,0-.82.667a1.444,1.444,0,0,0,.213.841.686.686,0,0,0,.595.3.647.647,0,0,0,.4-.133A.678.678,0,0,0,.629,1.3l.077-.266A.325.325,0,0,1,1,.868a.351.351,0,0,1,.246.09.308.308,0,0,1,.1.233.946.946,0,0,1-.11.4,1.657,1.657,0,0,1-.253.392,1.388,1.388,0,0,1-.446.3,1.424,1.424,0,0,1-.563.111,1.4,1.4,0,0,1-1.094-.472,1.778,1.778,0,0,1-.4-1.211A1.886,1.886,0,0,1-1.112-.563,1.426,1.426,0,0,1,.021-1.054a1.372,1.372,0,0,1,.886.285.93.93,0,0,1,.357.744.635.635,0,0,1-.153.437.505.505,0,0,1-.4.171A.47.47,0,0,1,.387.463.374.374,0,0,1,.254.175" transform="translate(1.526 1.054)" fill="#ff7d23"/></g><g transform="translate(99.694 30.719)"><path d="M.193.044l-.026.965A1.317,1.317,0,0,1,.552.8,1.431,1.431,0,0,1,.99.737a1.537,1.537,0,0,1,.524.084,1.143,1.143,0,0,1,.4.239,1.05,1.05,0,0,1,.255.372,1.237,1.237,0,0,1,.091.483V3.228a.469.469,0,0,0,.007.117c.013.138.031.208.058.208h.044a.2.2,0,0,0,.065-.014A.229.229,0,0,1,2.5,3.526h.065c.22,0,.33.1.33.286s-.134.29-.4.29a2.049,2.049,0,0,1-.239-.019L2.018,4.06c-.069-.006-.127-.009-.175-.009s-.085,0-.126,0-.077,0-.107.009a2.649,2.649,0,0,1-.33.038.382.382,0,0,1-.259-.09.291.291,0,0,1-.1-.227.244.244,0,0,1,.094-.19.327.327,0,0,1,.223-.082.618.618,0,0,1,.195.04l.033,0a.215.215,0,0,0,.038,0c.048,0,.076-.1.084-.31V3.137c0-.051,0-.112.007-.181,0-.034,0-.077,0-.129s0-.094,0-.129v-.33a1.89,1.89,0,0,0-.11-.8.542.542,0,0,0-.531-.279.692.692,0,0,0-.622.292,1.393,1.393,0,0,0-.142.686q0,.11,0,.22c0,.073,0,.146,0,.219v.062a.361.361,0,0,1-.007.075v.372a.661.661,0,0,0,.007.126q.019.22.077.22A.269.269,0,0,0,.31,3.558c.021,0,.048-.008.077-.013a.281.281,0,0,1,.075-.016l.069,0c.2,0,.3.091.3.272q0,.3-.374.3a2.591,2.591,0,0,1-.272-.019c-.073-.009-.143-.015-.208-.02S-.143,4.056-.2,4.056s-.157.007-.279.02l-.21.02C-.738,4.1-.775,4.1-.8,4.1c-.237,0-.356-.1-.356-.31q0-.266.336-.266a.636.636,0,0,1,.142.013H-.681A.329.329,0,0,0-.6,3.553h.045c.008,0,.015-.037.02-.111a5.98,5.98,0,0,0,.044-.75c0-.182,0-.365,0-.551s0-.369,0-.551A10.006,10.006,0,0,0-.519.445C-.531.342-.551.286-.577.278A.09.09,0,0,1-.619.287.589.589,0,0,0-.681.3.244.244,0,0,1-.765.31H-.849C-1.056.31-1.16.217-1.16.031a.264.264,0,0,1,.1-.213A.386.386,0,0,1-.8-.266c.03,0,.1.006.22.019H-.59q.058.007.115.01c.04,0,.083,0,.129,0,.009,0,.029,0,.062,0s.064-.006.094-.01l.068-.009c.023,0,.047,0,.068,0,.164,0,.246.1.246.292Z" transform="translate(1.16 0.266)" fill="#ff7d23"/></g><g transform="translate(107.007 30.719)"><path d="M.115.134c0-.246-.069-.373-.208-.381A.139.139,0,0,1-.14-.242a.414.414,0,0,0-.075.007h.007A1.211,1.211,0,0,1-.4-.216c-.2,0-.3-.094-.3-.285s.129-.3.388-.3h.042A.217.217,0,0,1-.208-.8l.323.045c.061.008.121.015.184.019s.128.007.2.007a3.084,3.084,0,0,0,.337-.02l.408-.045c.038,0,.084-.007.139-.009s.113,0,.177,0a2.533,2.533,0,0,1,.99.169,1.713,1.713,0,0,1,.835.764,2.515,2.515,0,0,1,.3,1.262,2.667,2.667,0,0,1-.246,1.138,1.768,1.768,0,0,1-.285.434,1.733,1.733,0,0,1-.376.317,2.263,2.263,0,0,1-.556.213,2.738,2.738,0,0,1-.66.078c-.048,0-.1,0-.142,0s-.1-.006-.142-.01L.854,3.519C.71,3.506.562,3.5.407,3.5a2.193,2.193,0,0,0-.324.019l-.3.045a.133.133,0,0,0-.045.007H-.318c-.25,0-.376-.1-.376-.3a.276.276,0,0,1,.087-.211A.3.3,0,0,1-.4,2.975a1.131,1.131,0,0,1,.188.02A.393.393,0,0,1-.156,3L-.1,3c.142,0,.213-.125.213-.376ZM.847,2.7a.25.25,0,0,0,.2.272,3.014,3.014,0,0,0,.5.02,1.593,1.593,0,0,0,.589-.1,1.056,1.056,0,0,0,.408-.275,1.676,1.676,0,0,0,.281-.537,2.2,2.2,0,0,0,.1-.686,2.075,2.075,0,0,0-.223-1,1.027,1.027,0,0,0-.625-.524,2.173,2.173,0,0,0-.627-.078A1.654,1.654,0,0,0,.9-.164V-.171c-.034.022-.051.1-.051.24Z" transform="translate(0.694 0.805)" fill="#ff7d23"/></g><g transform="translate(111.649 30.828)"><path d="M.192.451V.688A.655.655,0,0,0,.2.807C.212.937.23,1,.256,1L.289.995c.026,0,.058-.01.1-.02L.38.982A.478.478,0,0,1,.429.969.313.313,0,0,1,.5.962c.225,0,.337.1.337.286a.261.261,0,0,1-.107.213.421.421,0,0,1-.268.084q-.052,0-.129-.007c-.051,0-.112-.01-.181-.019L-.016,1.5a1,1,0,0,0-.115-.009c-.048,0-.1,0-.159.006s-.12.012-.185.02l-.2.022a1.065,1.065,0,0,1-.133.01c-.232,0-.349-.1-.349-.3s.1-.286.317-.286l.075.007c.041,0,.073.008.1.013A.288.288,0,0,0-.591.995h.038c.034,0,.058-.1.071-.31V-.876c-.013-.2-.038-.3-.078-.3A.353.353,0,0,0-.6-1.173c-.022,0-.048.01-.078.02a.281.281,0,0,1-.075.016l-.068,0c-.22,0-.33-.1-.33-.286s.125-.29.376-.29h.117A.27.27,0,0,1-.6-1.7c.061.009.111.015.152.02l.082.006c.008,0,.027,0,.055,0s.055-.006.08-.01L-.06-1.71c.185,0,.278.107.278.323V-1.3a.236.236,0,0,0-.006.042v.022A1.123,1.123,0,0,0,.2-1.05c0,.03,0,.061,0,.093s0,.066,0,.1Q.192-.727.192-.6V.451ZM-.235-1.866a.445.445,0,0,1-.317-.122.4.4,0,0,1-.129-.3.394.394,0,0,1,.129-.3.453.453,0,0,1,.317-.12.461.461,0,0,1,.32.12.39.39,0,0,1,.133.3.4.4,0,0,1-.133.3.453.453,0,0,1-.32.122" transform="translate(1.154 2.714)" fill="#ff7d23"/></g><g transform="translate(113.655 31.723)"><path d="M.143.016a.245.245,0,0,1,.279.2A1.27,1.27,0,0,1,1.3-.094a1.355,1.355,0,0,1,.68.181H1.974a.984.984,0,0,1,.447.46,1.463,1.463,0,0,1,.1.576v1.47q.007.1.045.129l.084,0a.625.625,0,0,0,.085-.01L2.789,2.7a.512.512,0,0,1,.065,0,.3.3,0,0,1,.208.082.25.25,0,0,1,.09.19.27.27,0,0,1-.1.217.376.376,0,0,1-.252.087l-.1,0a.953.953,0,0,1-.139-.015c-.065-.009-.135-.016-.211-.023s-.141-.009-.2-.009-.087,0-.133,0a1.1,1.1,0,0,0-.119.009l-.233.029-.1.009c-.233,0-.349-.1-.349-.3,0-.181.1-.272.31-.272a.194.194,0,0,0,.051.007.323.323,0,0,1,.049,0,.328.328,0,0,0,.049,0l.051.01.033,0a.135.135,0,0,0,.026.006c.03,0,.047-.082.051-.246,0-.051,0-.1.007-.159s.006-.106.006-.159L1.852,1.8V1.329A2.069,2.069,0,0,0,1.819.9.514.514,0,0,0,1.625.585V.592a.686.686,0,0,0-.4-.129.671.671,0,0,0-.62.3,1.636,1.636,0,0,0-.129.777v.815a1.819,1.819,0,0,0,.015.3c.012.051.029.078.056.078L.59,2.727l.071-.013a.645.645,0,0,1,.075-.02.6.6,0,0,1,.087-.006.26.26,0,0,1,.3.292q0,.29-.35.29c-.021,0-.063,0-.126-.013s-.133-.017-.21-.026a1.946,1.946,0,0,0-.285-.02q-.059,0-.14.007c-.054,0-.118.01-.19.019l-.143.014a.633.633,0,0,1-.11.015l-.064,0c-.243,0-.363-.1-.363-.3s.1-.279.3-.279a.36.36,0,0,1,.055,0l.049.009a.719.719,0,0,0,.175.02c.051,0,.079-.089.084-.265,0-.113,0-.226.006-.341s.007-.227.007-.339V1.039L-.2.825c-.009-.1-.017-.163-.026-.2S-.25.554-.271.546A.162.162,0,0,1-.329.556.406.406,0,0,0-.4.566L-.472.575a.613.613,0,0,1-.065,0C-.753.579-.86.483-.86.294S-.735.009-.484.009a.227.227,0,0,0,.042,0A.071.071,0,0,1-.4.016l.213.026c.021,0,.047,0,.075,0A.585.585,0,0,0-.032.028L.056.019q.035,0,.087,0" transform="translate(0.86 0.094)" fill="#ff7d23"/></g><g transform="translate(117.874 31.722)"><path d="M.426.207c0,.1,0,.177-.007.233A.243.243,0,0,1,.381.569.135.135,0,0,1,.288.624,1.294,1.294,0,0,1,.116.634H-1.833c-.016,0-.026,0-.026.007a.994.994,0,0,0,.253.706.757.757,0,0,0,.6.278.764.764,0,0,0,.433-.129.588.588,0,0,0,.253-.33L-.259.989A.365.365,0,0,1-.146.834.29.29,0,0,1,.038.776c.224,0,.337.108.337.324a.965.965,0,0,1-.454.777,1.592,1.592,0,0,1-.977.323,1.4,1.4,0,0,1-1.107-.46,1.783,1.783,0,0,1-.4-1.216A1.893,1.893,0,0,1-2.136-.745,1.427,1.427,0,0,1-1-1.243a1.515,1.515,0,0,1,.576.1,1.37,1.37,0,0,1,.453.3A1.451,1.451,0,0,1,.426.207M-.279.052A.69.69,0,0,0-.493-.453.721.721,0,0,0-1-.667a.846.846,0,0,0-.556.233A.656.656,0,0,0-1.8.052Z" transform="translate(2.564 1.243)" fill="#ff7d23"/></g><g transform="translate(121.11 31.723)"><path d="M.145.016Q.358.016.4.184a1.112,1.112,0,0,1,.758-.278,1.3,1.3,0,0,1,.433.068,1,1,0,0,1,.337.194.905.905,0,0,1,.22.3.954.954,0,0,1,.077.388.751.751,0,0,1-.161.5.539.539,0,0,1-.434.191.458.458,0,0,1-.314-.11.345.345,0,0,1-.127-.272A.318.318,0,0,1,1.294.935a.34.34,0,0,1,.243-.1c.008,0,.008,0,0-.006l.016.006V.8A.293.293,0,0,0,1.423.559a.5.5,0,0,0-.314-.1A.528.528,0,0,0,.566.838,2.435,2.435,0,0,0,.475,1.6v.7a.751.751,0,0,0,.007.136c.021.19.049.285.084.285a.676.676,0,0,0,.071,0A.607.607,0,0,0,.7,2.715.507.507,0,0,1,.85,2.689c.2,0,.3.092.3.278,0,.2-.119.3-.356.3H.772c-.034,0-.076,0-.126-.006l-.171-.02c-.125-.013-.213-.02-.266-.02q-.122,0-.213,0c-.059,0-.114.006-.161.009l-.35.033c-.238,0-.356-.1-.356-.3,0-.181.112-.272.336-.272l.056,0A.113.113,0,0,1-.424,2.7l.077.02h.052a.027.027,0,0,0,.019.006h.007c.038,0,.061-.064.064-.194,0-.052,0-.1.007-.156s.007-.1.007-.155L-.211.831C-.22.671-.241.581-.276.559L-.34.566C-.375.57-.4.572-.411.572H-.4a.671.671,0,0,1-.162.02c-.2,0-.3-.094-.3-.285s.121-.3.363-.3a.267.267,0,0,0,.078.01c.043,0,.082.006.117.009a1,1,0,0,0,.1.009l.073,0H-.1A.352.352,0,0,0-.043.035a.07.07,0,0,0,.023,0,.081.081,0,0,1,.028,0A.732.732,0,0,1,.145.016" transform="translate(0.871 0.094)" fill="#ff7d23"/></g><g transform="translate(127.705 30.609)"><path d="M.234,0a1.458,1.458,0,0,1,.9.272A.262.262,0,0,1,1.419.058c.211,0,.316.119.316.356V.453a.174.174,0,0,1,0,.02.1.1,0,0,0,0,.026,2.061,2.061,0,0,0-.023.22C1.7.818,1.7.93,1.7,1.056a.13.13,0,0,0,0,.022.2.2,0,0,1,0,.042v.051a.5.5,0,0,0,.006.078l.02.239a.1.1,0,0,1,.009.049.242.242,0,0,0,0,.048q0,.388-.336.388a.3.3,0,0,1-.343-.336V1.6l.013-.175a.5.5,0,0,0,.006-.077V1.3A.637.637,0,0,0,.852.784.928.928,0,0,0,.234.6.86.86,0,0,0-.336.77a.585.585,0,0,0-.208.472.523.523,0,0,0,.3.5,1.009,1.009,0,0,0,.262.09c.114.027.25.052.4.078a6.321,6.321,0,0,1,.634.149,1.23,1.23,0,0,1,.42.194,1.218,1.218,0,0,1,.337.408,1.149,1.149,0,0,1,.117.524,1.3,1.3,0,0,1-.46,1.023,1.727,1.727,0,0,1-1.152.381,1.806,1.806,0,0,1-1.049-.3c0,.206-.107.31-.323.31a.306.306,0,0,1-.343-.35.256.256,0,0,1,.006-.051l.026-.324c.013-.159.02-.26.02-.3s0-.083-.009-.143-.014-.133-.023-.219-.015-.16-.019-.22S-1.4,2.869-1.4,2.821c0-.245.112-.369.337-.369s.349.124.349.369v.129A.2.2,0,0,0-.724,3v.071a.881.881,0,0,0,.268.676A1.038,1.038,0,0,0,.279,4a1.061,1.061,0,0,0,.676-.2A.66.66,0,0,0,1.2,3.255a.533.533,0,0,0-.174-.407,1,1,0,0,0-.486-.227L.188,2.557a4.868,4.868,0,0,1-.482-.1,3.449,3.449,0,0,1-.359-.117,1.035,1.035,0,0,1-.472-.4A1.124,1.124,0,0,1-1.3,1.313,1.212,1.212,0,0,1-.866.356,1.63,1.63,0,0,1,.234,0" transform="translate(1.404)" fill="#ff7d23"/></g><g transform="translate(131.42 31.723)"><path d="M.143.016a.245.245,0,0,1,.279.2A1.27,1.27,0,0,1,1.3-.094a1.355,1.355,0,0,1,.68.181H1.975a.987.987,0,0,1,.446.46,1.462,1.462,0,0,1,.1.576v1.47c0,.069.019.112.044.129l.084,0a.582.582,0,0,0,.084-.01L2.789,2.7a.512.512,0,0,1,.065,0,.3.3,0,0,1,.208.082.25.25,0,0,1,.09.19.27.27,0,0,1-.1.217.376.376,0,0,1-.252.087l-.1,0a.953.953,0,0,1-.139-.015c-.065-.009-.135-.016-.21-.023s-.142-.009-.2-.009-.087,0-.132,0a1.1,1.1,0,0,0-.12.009l-.233.029-.1.009c-.232,0-.35-.1-.35-.3,0-.181.1-.272.311-.272a.2.2,0,0,0,.051.007.323.323,0,0,1,.049,0,.328.328,0,0,0,.049,0l.051.01.033,0a.135.135,0,0,0,.026.006c.03,0,.047-.082.051-.246,0-.051,0-.1.007-.159s.007-.106.007-.159L1.852,1.8V1.329A2.069,2.069,0,0,0,1.819.9.5.5,0,0,0,1.748.718.517.517,0,0,0,1.625.585V.592a.686.686,0,0,0-.4-.129.674.674,0,0,0-.622.3,1.654,1.654,0,0,0-.128.777v.815a1.819,1.819,0,0,0,.015.3c.012.051.029.078.056.078L.59,2.727l.071-.013a.645.645,0,0,1,.075-.02.6.6,0,0,1,.087-.006.26.26,0,0,1,.3.292q0,.29-.35.29c-.021,0-.063,0-.126-.013s-.133-.017-.21-.026a1.946,1.946,0,0,0-.285-.02q-.059,0-.14.007c-.054,0-.118.01-.19.019l-.143.014a.633.633,0,0,1-.11.015l-.064,0c-.243,0-.363-.1-.363-.3s.1-.279.3-.279a.36.36,0,0,1,.055,0l.049.009a.719.719,0,0,0,.175.02c.051,0,.079-.089.084-.265,0-.113,0-.226.006-.341s.007-.227.007-.339V1.039L-.2.825c-.009-.1-.017-.163-.026-.2S-.25.554-.271.546A.162.162,0,0,1-.329.556.406.406,0,0,0-.4.566L-.472.575a.613.613,0,0,1-.065,0C-.753.579-.86.483-.86.294S-.735.009-.484.009a.227.227,0,0,0,.042,0A.071.071,0,0,1-.4.016l.213.026c.021,0,.047,0,.075,0A.585.585,0,0,0-.032.028L.056.019q.035,0,.087,0" transform="translate(0.86 0.094)" fill="#ff7d23"/></g><g transform="translate(135.588 31.722)"><path d="M.4.487A.66.66,0,0,1-.249.164,1.275,1.275,0,0,1-1.2.513,1.33,1.33,0,0,1-2.074.245.883.883,0,0,1-2.4-.47a.886.886,0,0,1,.133-.483A1,1,0,0,1-1.9-1.292a1.326,1.326,0,0,1,.3-.129A4.556,4.556,0,0,1-1.1-1.5a1.82,1.82,0,0,0,.627-.136.334.334,0,0,0,.11-.292.409.409,0,0,0-.146-.33.618.618,0,0,0-.411-.122.8.8,0,0,0-.46.142v-.007a.217.217,0,0,0-.045.052h.007a.355.355,0,0,1,.135.278.336.336,0,0,1-.119.266.447.447,0,0,1-.3.1.472.472,0,0,1-.344-.133.449.449,0,0,1-.135-.334A.777.777,0,0,1-1.8-2.664,1.462,1.462,0,0,1-.915-2.93Q.308-2.93.308-1.772V-.536q0,.129,0,.217A1.161,1.161,0,0,0,.321-.2c.022.094.057.142.1.142.073,0,.111-.1.111-.3v-.3c0-.185.1-.278.29-.278s.311.125.311.376v.031l-.007.35Q1.118.488.4.487M-.378-1.059c-.026.008-.05.019-.075.029A.7.7,0,0,1-.533-1a2.6,2.6,0,0,1-.551.09c-.406.04-.608.184-.608.434a.368.368,0,0,0,.139.3.593.593,0,0,0,.385.113A.779.779,0,0,0-.6-.264.755.755,0,0,0-.384-.813Z" transform="translate(2.397 2.93)" fill="#ff7d23"/></g><g transform="translate(139.257 31.723)"><path d="M.254.175a.364.364,0,0,1,.068-.23.37.37,0,0,1,.224-.12C.48-.378.3-.478.008-.478a.708.708,0,0,0-.6.31A1.39,1.39,0,0,0-.82.667a1.444,1.444,0,0,0,.213.841.686.686,0,0,0,.595.3.641.641,0,0,0,.4-.133A.673.673,0,0,0,.629,1.3l.077-.266A.327.327,0,0,1,1,.868a.349.349,0,0,1,.246.09.3.3,0,0,1,.1.233.946.946,0,0,1-.11.4,1.657,1.657,0,0,1-.253.392,1.375,1.375,0,0,1-.446.3,1.424,1.424,0,0,1-.563.111,1.4,1.4,0,0,1-1.094-.472,1.778,1.778,0,0,1-.4-1.211A1.886,1.886,0,0,1-1.112-.563,1.426,1.426,0,0,1,.021-1.054a1.372,1.372,0,0,1,.886.285.93.93,0,0,1,.357.744.635.635,0,0,1-.153.437.505.505,0,0,1-.4.171A.47.47,0,0,1,.387.463.374.374,0,0,1,.254.175" transform="translate(1.526 1.054)" fill="#ff7d23"/></g><g transform="translate(142.351 30.719)"><path d="M.192.353C.344.216.488.079.629-.055s.286-.269.436-.407l.013-.026L1.02-.475.956-.462c-.035.008-.069.015-.1.02a.955.955,0,0,1-.1.006C.544-.436.438-.531.438-.721s.125-.3.376-.3l.068,0,.08.01H.994c.142.016.266.029.372.035s.194.01.262.01c.03,0,.063,0,.1,0l.094,0L2.1-1.005a.566.566,0,0,1,.064-.01l.071,0c.267,0,.4.1.4.29s-.1.286-.31.286l-.078,0a.607.607,0,0,1-.078-.01c-.021,0-.044-.007-.07-.009l-.052,0a.425.425,0,0,0-.252.129L1.149.25h.007L1.118.288c0,.009,0,.013,0,.01s.013.007.029.029c.126.163.255.335.392.511s.267.348.392.512l-.007-.007q.285.35.35.35l.078-.007.061-.013a.331.331,0,0,1,.075-.007c.216,0,.323.093.323.279s-.127.3-.381.3c-.038,0-.087,0-.146-.006s-.124-.01-.2-.02L1.9,2.2c-.051,0-.094-.006-.129-.006s-.066,0-.11.006l-.162.02h.006c-.059.009-.115.015-.164.02s-.093.006-.133.006q-.336,0-.336-.3c0-.185.107-.279.323-.279a.581.581,0,0,1,.124.007s.006,0,.006,0,0,0,.007,0L1.26,1.564c-.1-.134-.2-.271-.308-.412S.745.878.644.749L.651.755.626.716.613.742.192,1.11v.35A.436.436,0,0,0,.2,1.583c.009.07.03.1.065.1a.471.471,0,0,0,.077-.006c.022,0,.042-.008.062-.01a.724.724,0,0,1,.08,0c.208,0,.311.1.311.286s-.112.29-.337.29c-.038,0-.086,0-.142-.006S.2,2.227.134,2.217L-.051,2.2a.94.94,0,0,0-.126-.01c-.043,0-.091,0-.142.007s-.108.01-.169.02c-.077.008-.142.015-.194.022a.959.959,0,0,1-.129.009q-.343,0-.343-.29c0-.19.112-.286.336-.286a.613.613,0,0,1,.065,0,.612.612,0,0,1,.064.01.391.391,0,0,0,.082.013h.042c.03,0,.049-.05.058-.149l.019-.239V-1.167a1.648,1.648,0,0,0-.038-.388c-.008-.021-.017-.033-.026-.033A.251.251,0,0,0-.6-1.581a.07.07,0,0,0-.023,0,.065.065,0,0,1-.022,0,.371.371,0,0,1-.1.023c-.029,0-.062,0-.1,0-.2,0-.3-.091-.3-.272,0-.2.114-.3.344-.3h.115a.279.279,0,0,1,.071.007H-.623a1.268,1.268,0,0,0,.175.019s.026,0,.064-.006.069-.008.091-.013l.078-.01.064,0h.045q.3,0,.3.343Z" transform="translate(1.154 2.125)" fill="#ff7d23"/></g><g transform="translate(146.519 31.684)"><path d="M.2.005A1.191,1.191,0,0,1,.8.148a.264.264,0,0,1,.285-.181c.2,0,.3.094.3.285a.1.1,0,0,1,0,.026.2.2,0,0,0,0,.045c0,.017,0,.037,0,.062a.674.674,0,0,0,0,.068.974.974,0,0,0-.02.117c0,.038-.006.076-.006.11a1.255,1.255,0,0,0,.019.2c.009.048.015.09.02.126a.807.807,0,0,1,.007.1c0,.216-.1.324-.3.324s-.3-.093-.311-.279L.772.944A.325.325,0,0,0,.593.688.76.76,0,0,0,.183.582.658.658,0,0,0-.213.7.352.352,0,0,0-.374,1a.3.3,0,0,0,.122.25.774.774,0,0,0,.323.132L.25,1.4l.178.026q1.139.156,1.138.945a.986.986,0,0,1-.381.79,1.519,1.519,0,0,1-.945.285,1.573,1.573,0,0,1-.777-.194.27.27,0,0,1-.31.245.294.294,0,0,1-.33-.336c.008-.065.015-.117.022-.155s.012-.073.016-.1.007-.062.009-.094,0-.078,0-.139a1.408,1.408,0,0,0-.009-.152c-.007-.054-.015-.1-.023-.153a.778.778,0,0,1-.019-.174.266.266,0,0,1,.3-.3c.139,0,.223.037.253.111a1.012,1.012,0,0,1,.051.356.438.438,0,0,0,.243.369,1.18,1.18,0,0,0,.618.142A.668.668,0,0,0,.71,2.746.394.394,0,0,0,.876,2.42q0-.343-.57-.4a5.151,5.151,0,0,1-.595-.1,1.49,1.49,0,0,1-.434-.169.721.721,0,0,1-.266-.274.9.9,0,0,1-.09-.421A.978.978,0,0,1-.986.627.952.952,0,0,1-.723.3a1.255,1.255,0,0,1,.4-.213A1.609,1.609,0,0,1,.2.005" transform="translate(1.176 0.033)" fill="#ff7d23"/></g><g transform="translate(152.68 30.719)"><path d="M.115.134c0-.25-.071-.376-.213-.376a.463.463,0,0,0-.11.013A1.144,1.144,0,0,1-.4-.209a.3.3,0,0,1-.211-.08A.276.276,0,0,1-.694-.5c0-.2.125-.3.376-.3h.052A.228.228,0,0,1-.208-.8l.323.045c.061.008.121.015.184.019s.124.007.184.007S.6-.73.675-.736.819-.75.892-.76L1.17-.8a.217.217,0,0,1,.056-.007h.048c.255,0,.383.1.383.3a.271.271,0,0,1-.091.211.3.3,0,0,1-.208.08.98.98,0,0,1-.188-.02.634.634,0,0,0-.115-.013c-.139,0-.208.126-.208.376V2.625c0,.251.069.376.208.376h.029a.342.342,0,0,0,.048-.006H1.17a1.238,1.238,0,0,1,.188-.02c.2,0,.3.094.3.285,0,.208-.127.311-.383.311H1.215a.081.081,0,0,0-.038-.007l-.33-.051C.791,3.5.736,3.5.682,3.493s-.107-.007-.16-.007c-.085,0-.166,0-.239.01S.139,3.51.07,3.519l-.285.045a.133.133,0,0,0-.045.007H-.324c-.246,0-.37-.1-.37-.311,0-.19.1-.285.3-.285l.019,0a.133.133,0,0,0,.033,0l.051,0a.676.676,0,0,0,.071,0L-.16,3-.1,3c.142,0,.213-.125.213-.376Z" transform="translate(0.694 0.805)" fill="#ff7d23"/></g><g transform="translate(155.14 30.715)"><path d="M.12.409V.374A.084.084,0,0,1,.133.331.386.386,0,0,0,.027.481.535.535,0,0,0-.015.7.611.611,0,0,0,.049.979.711.711,0,0,0,.224,1.2a.817.817,0,0,0,.265.146A1.1,1.1,0,0,0,.831,1.4.812.812,0,0,0,1.764.63C1.781.513,1.792.376,1.8.215s.009-.343.009-.549V-.529L1.8-1.52c0-.25-.069-.374-.208-.374a.555.555,0,0,0-.117.013.924.924,0,0,1-.181.019.312.312,0,0,1-.213-.08.267.267,0,0,1-.091-.21c0-.2.127-.3.383-.3h.051a.2.2,0,0,1,.051.006l.324.045c.061.009.122.015.188.02s.127.006.188.006.114,0,.188-.009.146-.014.219-.022l.272-.04a.117.117,0,0,1,.056-.009.4.4,0,0,0,.061,0c.251,0,.376.1.376.3s-.1.29-.3.29a1.031,1.031,0,0,1-.188-.019.416.416,0,0,0-.11-.013q-.213,0-.213.374V-.335c0,.32-.006.583-.016.793a2.819,2.819,0,0,1-.055.476,1.153,1.153,0,0,1-.113.281,1.761,1.761,0,0,1-.191.275,1.767,1.767,0,0,1-.576.388,1.879,1.879,0,0,1-.737.142A1.722,1.722,0,0,1-.281,1.666,1.177,1.177,0,0,1-.721.72,1.021,1.021,0,0,1-.443,0a.918.918,0,0,1,.7-.3.778.778,0,0,1,.514.164.527.527,0,0,1,.2.425A.447.447,0,0,1,.932.468a.491.491,0,0,1-.1.149.477.477,0,0,1-.142.1.378.378,0,0,1-.171.04.428.428,0,0,1-.278-.1A.31.31,0,0,1,.12.409" transform="translate(0.721 2.462)" fill="#ff7d23"/></g><g transform="translate(159.256 31.684)"><path d="M.2.005A1.191,1.191,0,0,1,.8.148a.264.264,0,0,1,.285-.181c.2,0,.3.094.3.285a.1.1,0,0,1,0,.026.2.2,0,0,0,0,.045c0,.017,0,.037,0,.062a.674.674,0,0,0,0,.068c-.008.038-.015.077-.02.117s-.006.076-.006.11a1.255,1.255,0,0,0,.019.2c.009.048.015.09.02.126a.807.807,0,0,1,.007.1c0,.216-.1.324-.3.324s-.3-.093-.311-.279L.772.944A.325.325,0,0,0,.593.688.76.76,0,0,0,.183.582.658.658,0,0,0-.213.7.352.352,0,0,0-.374,1a.3.3,0,0,0,.122.25.774.774,0,0,0,.323.132L.25,1.4l.178.026q1.139.156,1.138.945a.986.986,0,0,1-.381.79,1.519,1.519,0,0,1-.945.285,1.573,1.573,0,0,1-.777-.194.27.27,0,0,1-.31.245.294.294,0,0,1-.33-.336c.008-.065.015-.117.022-.155s.012-.073.016-.1.007-.062.009-.094,0-.078,0-.139a1.408,1.408,0,0,0-.009-.152c-.007-.054-.015-.1-.023-.153a.778.778,0,0,1-.019-.174.266.266,0,0,1,.3-.3c.139,0,.223.037.253.111a1.012,1.012,0,0,1,.051.356.438.438,0,0,0,.243.369,1.18,1.18,0,0,0,.618.142A.668.668,0,0,0,.71,2.746.394.394,0,0,0,.876,2.42q0-.343-.57-.4a5.151,5.151,0,0,1-.595-.1,1.49,1.49,0,0,1-.434-.169.721.721,0,0,1-.266-.274.9.9,0,0,1-.09-.421A.978.978,0,0,1-.986.627.952.952,0,0,1-.723.3a1.255,1.255,0,0,1,.4-.213A1.609,1.609,0,0,1,.2.005" transform="translate(1.176 0.033)" fill="#ff7d23"/></g></g><path d="M75.49-7.013H72.435V-29.855H75.49Zm7.031,0H79.466L75.648-18.179v-.191L78.83-29.855h2.8L78.416-18.5Z" transform="translate(12.048 34.319)" fill="#fff"/><path d="M83.537-29.855h3.055V-7.013H83.537Z" transform="translate(13.894 34.319)" fill="#fff"/><g transform="translate(103.348 4.464)"><path d="M.853.395V20.469H-2.2V.395H-5.128V-2.373H3.779V.395Z" transform="translate(5.128 2.373)" fill="#fff"/></g><g transform="translate(0 0)" clip-path="url(#a)"><g transform="translate(114.96 4.463)"><path d="M1.325,2.5V3.959q0,3.88-3.659,3.88H-4.306q-3.66,0-3.659-3.88V-11.121Q-7.965-15-4.306-15h1.972q3.658,0,3.659,3.882v2.578H-1.73V-10.9A1.2,1.2,0,0,0-3.1-12.234h-.6q-1.209,0-1.208,1.335V3.736q0,1.337,1.208,1.335h.764q1.209,0,1.208-1.335V2.5Z" transform="translate(7.965 15.003)" fill="#fff"/></g></g><g transform="translate(127.749 4.464)"><path d="M.971,3.257V-7.114H-2.784V3.257H-5.837V-19.585h3.053v9.7H.971v-9.7H4.025V3.257Z" transform="translate(5.837 19.585)" fill="#fff"/></g><g transform="translate(141.588 4.464)"><path d="M0,3.257V-19.585H7.572v2.768H3.055v6.935H7.063v2.769H3.055V.49H7.572V3.257Z" transform="translate(0 19.585)" fill="#fff"/></g><g transform="translate(152.467 4.464)"><path d="M.9,0V11.039L-2.374,0H-5.429V22.842h3.055V7.889L.9,18.293v4.55H3.956V0Z" transform="translate(5.429)" fill="#fff"/></g><g transform="translate(0 0)" clip-path="url(#a)"><g transform="translate(52.904 4.463)"><path d="M1.012,1.583q2.512.7,2.513,2.609V9.919q0,3.4-3.467,3.4H-6.083V-9.52H-.865q4.071,0,4.072,4.136V-.993a2.339,2.339,0,0,1-2.2,2.418ZM-3.028.12H-1.6Q.152.12.153-1.534V-5.1q0-1.655-1.368-1.655H-3.028Zm0,10.435H-.738q1.209,0,1.208-.986V4.511q0-1.624-1.814-1.624H-3.028Z" transform="translate(6.083 9.52)" fill="#a0ce44"/></g><g transform="translate(66.171 4.463)"><path d="M1.012,1.583q2.512.7,2.513,2.609V9.919q0,3.4-3.467,3.4H-6.083V-9.52H-.865q4.071,0,4.072,4.136V-.993a2.339,2.339,0,0,1-2.2,2.418ZM-3.028.12H-1.6Q.152.12.153-1.534V-5.1q0-1.655-1.368-1.655H-3.028Zm0,10.435H-.738q1.209,0,1.208-.986V4.511q0-1.624-1.814-1.624H-3.028Z" transform="translate(6.083 9.52)" fill="#a0ce44"/></g><text transform="translate(7.434 20.875)" fill="#fff" font-size="21" font-family="SegoeUI, Segoe UI"><tspan x="0" y="0">B</tspan></text><text transform="matrix(-1, 0, 0, 1, 36.358, 26.534)" fill="#fff" font-size="21" font-family="SegoeUI, Segoe UI"><tspan x="0" y="0">B</tspan></text></g><text transform="translate(10.022 32.889)" fill="#fff" font-size="10" font-family="SegoeUI, Segoe UI"><tspan x="0" y="0">kitchen</tspan></text><g transform="translate(0 0)" clip-path="url(#a)"><g transform="translate(44.737 23.804)"><path d="M.014.014C.038-.02.025-.1-.041-.083L-.086.049Z" transform="translate(0.086 0.085)" fill="#ff7d23"/></g><g transform="translate(44.271 23.659)"><path d="M.018,0A.272.272,0,0,0-.1.3C-.021.17,0,.224.079.072a.083.083,0,0,1,.1.091C.2.129.282.192.318.11a.2.2,0,0,0-.3-.022C-.011.059.013.024.018,0" transform="translate(0.111)" fill="#ff7d23"/></g><g transform="translate(38.043 23.453)"><path d="M0,0,.041.015A.085.085,0,0,0,0,0" fill="#ff7d23"/></g><g transform="translate(34.102 23.353)"><path d="M0,0c.03,0,.042-.016.044-.028C.017-.016-.007-.008,0,0" transform="translate(0.001 0.024)" fill="#ff7d23"/></g><g transform="translate(33.431 23.23)"><path d="M0,0,.04.01C.024,0,.009-.01,0,0" transform="translate(0 0.004)" fill="#ff7d23"/></g><g transform="translate(37.937 23.411)"><path d="M.015.006l-.1-.042C-.1.007-.036,0,.015.006" transform="translate(0.091 0.036)" fill="#ff7d23"/></g><g transform="translate(43.524 23.942)"><path d="M0,0A.138.138,0,0,0,.057-.03.454.454,0,0,1,0-.016C0-.009,0,0,0,0" transform="translate(0 0.03)" fill="#ff7d23"/></g><g transform="translate(39.779 23.292)"><path d="M0,.008H.031A.383.383,0,0,0,.058-.046Z" transform="translate(0 0.046)" fill="#ff7d23"/></g><g transform="translate(41.059 23.326)"><path d="M.007,0c-.03,0-.041.107-.052.156A.113.113,0,0,1,.021.079.258.258,0,0,0,.007,0" transform="translate(0.045 0)" fill="#ff7d23"/></g><g transform="translate(43.225 23.508)"><path d="M0,0,.037-.013C.028-.008.012,0,0,0" transform="translate(0 0.013)" fill="#ff7d23"/></g><g transform="translate(38.812 23.281)"><path d="M0,.006A.112.112,0,0,0-.011-.035.073.073,0,0,0,0,.006" transform="translate(0.011 0.035)" fill="#ff7d23"/></g><g transform="translate(32.2 23.085)"><path d="M0,0,.006,0C.038-.01.02-.007,0,0" transform="translate(0 0.006)" fill="#ff7d23"/></g><g transform="translate(20.824 23.174)"><path d="M.011,0C.139.1-.2.128,0,.239-.023.2.171.065.011,0" transform="translate(0.066)" fill="#ff7d23"/></g><g transform="translate(43.434 23.962)"><path d="M.008,0A.426.426,0,0,1-.047,0,.118.118,0,0,0,.008,0" transform="translate(0.047)" fill="#ff7d23"/></g><g transform="translate(20.885 23.414)"><path d="M0,0H0l.02.01L0,0" fill="#ff7d23"/></g><g transform="translate(29.364 23.159)"><path d="M0,0A.137.137,0,0,0,.029.049.093.093,0,0,0,0,0" fill="#ff7d23"/></g><g transform="translate(31.424 23.303)"><path d="M.007,0-.045-.013A.141.141,0,0,0,.007,0" transform="translate(0.045 0.013)" fill="#ff7d23"/></g><g transform="translate(28.19 23.302)"><path d="M.011,0C-.017-.006-.028-.021-.066-.007A.047.047,0,0,0-.054.007c.014-.015.033-.022.065,0" transform="translate(0.066 0.013)" fill="#ff7d23"/></g><g transform="translate(27.125 23.318)"><path d="M0,0A.189.189,0,0,0,.021.022L.057.016Z" fill="#ff7d23"/></g><g transform="translate(4.92 24.009)"><path d="M.014.014a.345.345,0,0,1-.052-.1c.017.079-.15.107.052.1" transform="translate(0.087 0.086)" fill="#ff7d23"/></g><g transform="translate(43.489 23.914)"><path d="M0,0C0,.028-.012.042-.029.048L.008.042A.051.051,0,0,0,0,0" transform="translate(0.029)" fill="#ff7d23"/></g><g transform="translate(28.04 24.184)"><path d="M.026,0-.155-.014A.928.928,0,0,0,.026,0" transform="translate(0.155 0.014)" fill="#ff7d23"/></g><g transform="translate(13.17 24.094)"><path d="M.006,0-.036.014A.043.043,0,0,0,.006,0" transform="translate(0.036)" fill="#ff7d23"/></g><g transform="translate(27.377 24.124)"><path d="M.018.011a.25.25,0,0,0-.1-.077.076.076,0,0,0-.022.028Z" transform="translate(0.106 0.066)" fill="#ff7d23"/></g><g transform="translate(4.968 24.008)"><path d="M0,0H0" fill="#ff7d23"/></g><g transform="translate(0 22.993)"><path d="M.538.183C.711.186.62.038.656-.046c.206-.042.1.108.166.184.129-.04.227-.175.324-.169.007.024.026.033,0,.063.136-.117.4,0,.563-.152a.075.075,0,0,1,.02.036.5.5,0,0,1-.024-.2c.078,0,.145-.093.174,0-.048,0-.051.037-.073.066l.08-.042c.073.139-.111.048-.111.15.159-.045.343-.16.464-.12.026.135-.283.045-.121.166L1.933-.114C2.076.1,1.819-.129,1.95.1c.247.04.276-.069.523-.029.056-.076-.017-.112.037-.187.35-.135.276.339.533.16.068-.09.093-.261.276-.171L3.257.026c.239.014.138-.22.387-.118-.044.061-.188.051-.152.069.162.121.114-.086.239-.086l.026.135c.255-.021.535-.119.818-.143-.015.04-.064.083,0,.124a2.772,2.772,0,0,1,1.1.1L5.81-.013c.03,0,.057.052.024.076.133.044.006-.075.071-.12.076-.008.1.066.052.1a1.313,1.313,0,0,1,.92-.087L6.829-.01c.194.048.219-.239.4-.131l-.035.021c.42.051.884-.056,1.2.12.062-.168.416.076.443-.16.24.117.171.159.509.237.091.01.135-.147.246-.171L9.6.03,9.751-.1l.08.147.1-.031c-.041-.007-.087-.055-.082-.091a.39.39,0,0,1,.4.149l.386-.1c-.008.049-.072.066-.124.1.206-.126.037.129.226.014-.026-.028.014-.073.019-.1a.68.68,0,0,0,.468.044L11.2.113c.287.021.605-.041.927-.04a.1.1,0,0,1,.006-.2L12.17,0c.061-.08-.1-.049.026-.147.121.015.082.147.013.19L12.354,0c.009.038-.026.059-.034.108.059-.08.252.131.338-.009l.008.038c.322,0,.468-.044.73-.05,0-.112.107-.087.185-.177a2.847,2.847,0,0,0,.639.114c.162-.056.047-.1.12-.162.012.1.244.092.124.166a3.075,3.075,0,0,0,.708-.1c-.037-.042-.08-.059-.058-.1.064-.016.146.043.136.092l-.017.01c.4-.153.913.3,1.228.085l-.017.01.327-.111c.15.017-.091.077.021.14.352-.17.556.024.847-.089.224.3.8-.021,1.1.171L18.721.069c.078-.07.094.041.153.056-.008-.055-.085-.063-.037-.1a9.592,9.592,0,0,1,2.05.167c.25.02.141-.366.455-.2l-.089.132c.5-.157,1.026.006,1.519-.128-.03.03-.03.07-.078.069.1.1.384,0,.386-.073.076.009.016.07.064.111.1.056.261-.122.317-.027.009.015-.029.03-.049.037.068-.045.316.013.251-.1.185.052.353-.049.5.016.1-.124.315.059.346-.115-.014.181.323.146.44.061-.04.055.1.056.056.133.133,0,.254-.037.232-.129.245.216.492-.174.631.1a9.131,9.131,0,0,1,1.116-.2c-.013.18-.393.017-.378.206.337-.075.532-.229.867-.185.087.024-.049.078-.078.108.337-.073.652.017.952-.08,0,.016-.033.035-.064.048.059-.006.139.027.132-.055l-.057.022c-.1-.119.234-.247.245-.31-.1.234.3.059.136.355.038-.015.089-.054.079-.108.057.016.076.048.017.11.211-.044.136-.131.328-.129,0,.04-.038.055-.059.1a.405.405,0,0,1,.358-.121c-.01.024.009.056-.04.055.279-.012.475-.205.78-.131-.091.171.1.056.12.205l.164-.044-.066-.072c.143,0,.271-.106.4-.057l-.107.062.269-.029-.153-.056c.146-.077-.015-.188.176-.147-.038.015.145,0,.219.09h0a.268.268,0,0,1,.252-.061c.027.048-.022.164,0,.2.07-.124.337-.034.426-.167a.159.159,0,0,0-.022.126l.059-.1c.066.033.077.048.066.11.2.02-.064-.188.174-.106-.019.007-.009.022-.049.038.239.042.462-.064.681-.015.065.15-.191.037-.118.163a5.2,5.2,0,0,1,.962-.143L33.59-.263c.043-.211.229.1.384,0-.037.016-.05.118-.04.094a2.311,2.311,0,0,0,.748-.119l-.04.055a2.931,2.931,0,0,0,.46.052c.038-.055.115-.045.069-.125.413.309.786-.166,1.151.092-.043,0-.1.048-.069.048l.311-.05c-.024-.092-.041-.056-.106-.127a.272.272,0,0,1,.2-.1c-.14.061,0,.148.062.2-.01-.028.01-.058.006-.087.162.163.027-.185.248-.075l-.012.048c.083-.024.16-.089.25-.075.037.106-.089.05-.094.138.126-.007.248-.2.363-.1-.054.029-.131.03-.184.059a.279.279,0,0,0,.231.113l-.009,0,.213.056-.055-.034c.157-.278.321-.051.533-.233-.205.173-.034.1-.05.22.055.034.138.071.114.1.1-.1.167.077.308-.065.007.04.107,0,.085.1.129-.03-.031-.068-.02-.117.2-.133.472.161.762-.021.248-.075.3-.205.527-.271.077.062-.065.141-.065.141a.4.4,0,0,0,.341,0c-.024.034,0,.062.036.106.1-.01.064-.141.189-.084a.528.528,0,0,1-.094.155c.112-.035.223-.107.339-.142.03.068-.07.1-.112.147.132-.03.339-.062.379-.169l-.084-.038c.048,0,.026.092-.01.112-.112.084-.161-.037-.168-.076l.083-.026c-.084-.227-.332.037-.5.023l.069-.166-.17.138c-.036-.043-.062-.135.021-.16-.12-.083-.106.058-.209-.033-.012-.014-.006-.022,0-.029l-.117.05c.022-.035-.02-.118.051-.093-.209-.1-.337.125-.416,0l.017-.01c-.29.056-.028.121-.245.265l-.147-.3L39.1-.537c-.03,0-.089-.014-.078-.062-.112.083.019.052-.045.131-.145-.111-.4.052-.43-.142-.052.093.138.071-.016.136-.043-.209-.178.035-.31-.061.041-.107.166-.05.034-.146C38.179-.5,38-.721,37.891-.686c-.006.145-.241.061-.429.108.012-.048-.351-.079-.524-.132l0-.023c-.034.146-.212.118-.343.148a.161.161,0,0,1,.1-.161h-.122a.2.2,0,0,1-.147.087l.03-.108c-.162,0-.328.128-.538.055-.012.1.167.285-.055.352-.008-.055-.017-.149.041-.171-.019.007-.068.045-.106.022L35.89-.6c-.1-.041-.049.078-.126.069,0-.078-.056-.056-.045-.118.02-.008.066.031.1,0a.348.348,0,0,1-.225-.12c.008.044,0,.106-.063.115-.163.006-.055-.094-.15-.134-.04.055-.143,0-.146.115-.048,0-.057-.056-.076-.087-.084.052-.394.015-.3.14l.021.008s-.008,0-.013,0h0c-.278.118-.575-.066-.85-.016V-.662c-.164.044-.365.026-.483.111-.048,0-.114-.072-.093-.119-.125.03-.139.075-.321.009.127-.069-.043-.061.129-.05-.162-.034-.2-.1-.374.01.059-.1-.122-.127-.2-.1l.114.072a.832.832,0,0,1-.241,0l.042-.132c-.332-.162-.6.274-.854,0-.089.092.181.064.1.174-.153-.019-.313-.209-.36-.21-.21-.072-.2.195-.415.145.028.047.055.173-.11.218-.154-.017-.188-.2-.091-.237.036,0,.054.01.052.027.049-.017.114-.037.054-.089l-.02.047c-.076-.048-.287-.042-.237-.12-.117.045-.05.078.035.1-.2-.069-.307,0-.51-.048.033.026.063.082.03.08-.3-.058-.131.09-.332.111-.114-.072.042-.173-.161-.112-.124-.049-.026-.126.022-.164-.184.091-.344-.059-.449-.077l.1-.037a.373.373,0,0,1-.154.021l.055.1c-.057-.017-.1-.017-.1-.056-.058.062.045.156-.072.241-.076-.048-.231.051-.258-.073.24.042-.026-.127.176-.147a.224.224,0,0,1-.143,0c-.009-.014.008-.026.023-.034-.229-.112-.1.143-.342.14a.091.091,0,0,0-.094-.119c.1,0,.045.118-.042.171-.152-.055-.166.042-.245.035l.091.026c-.03.071-.107.062-.213.084-.008-.055.1-.038.059-.062-.118.124-.266-.129-.432-.045-.075-.048-.007-.133-.073-.164-.184.091-.2-.1-.393-.021.056.094.066.071-.07.163l.317-.066-.2.138c.1,0,.2-.059.259-.043-.1.078-.087.054-.041.133-.132-.142-.261.083-.413-.014l0-.234c-.227-.1-.4.12-.7.062l.094.041c-.04.093-.183.013-.279.05.009-.078-.051-.107-.092-.156.006.059-.217,0-.244.152l-.132-.1c-.239-.042-.273.224-.5.2.07-.085-.035-.141.119-.2-.076,0-.146-.014-.147.04-.044-.049-.212.106-.283.031-.031.035-.043.117-.128.111a.048.048,0,0,1,0-.04c0,.04-.135.052-.059.14-.237-.245-.661.017-.868-.192a4.8,4.8,0,0,1-.521.057c.009-.023,0-.04.029-.03-.21-.073-.129.225-.367.143-.122-.127.126-.069.05-.117-.033-.259-.288.035-.449-.117l.038-.015c-.122-.087-.3.1-.5.08a.051.051,0,0,0,0-.04,1.219,1.219,0,0,1-.59.212c.061-.1.087-.054.051-.156-.086.014.026.166-.148.194-.055-.055-.181-.1-.2-.213l.162-.006c-.083-.142-.211,0-.3-.02l.01-.062c-.25.02-.253.176-.521.166l.028.047c-.147.155-.124-.086-.269.028l-.044-.157a2.876,2.876,0,0,1-.513.182,1.474,1.474,0,0,1,.428-.245c-.1,0-.327.01-.377.089.038-.015.087-.054.126-.03a.6.6,0,0,1-.464.183c.034-.306-.5-.077-.637-.315-.338.113-.671-.048-1.065-.029.139.237-.115.007-.091.25-.092.016-.127.012-.135,0l-.279-.146c-.065-.071.089-.054.079-.108-.2-.019-.084-.1-.217-.168.027.087-.07.125-.184.092l.161.112c-.281.129-.243-.2-.526-.076l.09-.077c-.146.045-.537,0-.679.195-.026-.029-.058-.1,0-.113-.346-.029-.772.208-1.043.089l.027-.061c-.065.017-.113.112-.194.052,0-.024.026-.059,0-.063-.034.021-.171.1-.258.07L14.7-.945c-.338-.078-.519.163-.8.2,0-.175-.266-.232-.4-.261l0-.024a3.982,3.982,0,0,0-1.035.215C12.243-1,11.7-.893,11.337-1c.056.031-.008.136-.073.155-.085-.036-.237.121-.223-.04l.03,0c-.064-.157-.24-.115-.378-.12l-.022.211c-.358-.307-.94.112-1.136-.162-.086.052-.194.052-.28.1L9.261-.96A2.508,2.508,0,0,0,8.6-.977l.061-.08c-.168-.007-.212.325-.366.332L8.253-.894c-.293,0-.588-.145-.876.008,0-.024.013-.073.061-.08-.138,0-.532-.114-.482.117,0-.15-.3-.014-.458.052l.024-.112c-.133.142-.138.181-.323.22-.044-.014-.038-.089.02-.061C6.072-.808,6.1-.643,5.928-.7l.065-.071c-.15-.008-.139.029-.222.112A.262.262,0,0,1,5.462-.79a.169.169,0,0,1-.191.114c-.013-.037.02-.062.036-.073-.252-.075-.374.129-.549.02A.082.082,0,0,0,4.73-.795a1.982,1.982,0,0,1,.346.016c0-.1-.162-.12-.033-.261-.131.077-.352.245-.511.2a.134.134,0,0,1-.021-.036L4.528-.89a.119.119,0,0,0-.1.017A.4.4,0,0,0,4.3-.9C4.28-.99,4.112-.95,4.031-.955c.007.112-.1.094,0,.187-.013-.008.015-.013.069-.019A.1.1,0,0,0,4.135-.8l-.006.009c.054,0,.122-.006.2-.007-.063.057-.131.1-.219.042C4.069-.68,4.023-.607,4-.572c-.111-.156-.323-.24-.353-.337-.246.063-.581.042-.736.252-.07.028-.08-.061-.106-.093.041-.021.089-.017.111-.048-.141.054-.416.021-.449.168-.176-.066.1-.135-.143-.111l.033-.045c-.477-.236-.777.376-1.306.073.037.019.056.027.063.052C.507-.794-.134-.537-.73-.747-.9-.79-.918-.7-1.021-.624l-.036-.12-.176.139c-.251.1-.434-.3-.751-.1l.041.082c-.114-.015-.362.048-.343-.045-.01.015-.036.084-.082.042l0-.063-.279.107c-.217-.044.034-.25-.283-.261-.118.024-.335.183-.29.225.048,0,.121.038.125.1l-.107.033c-.02.185-.1.376.161.505L-2.862-.1l.059.09L-2.957,0c.089.084.145.009.206-.042a.158.158,0,0,0,.077.1l.181-.177c.022.072-.08.143.041.183.084-.082-.082-.162.058-.216.087.084.063.153.166.08a.078.078,0,0,1-.048.1c.092-.058.243-.026.29-.124.092.1.31-.027.3.148a.472.472,0,0,1,.246-.145c-.154.21.316.013.275.238.114-.189.413-.084.616-.189C-.558-.028-.58,0-.6-.009c.113.016.147.073.22.108.014-.155.191-.191.287-.288.14.15-.084.184-.041.329C-.138.014.111.014.063-.091.171,0,.156-.046.21.083.229-.112.309.05.4-.07c.155.1.041.183.21.124C.69.113.538.183.538.183M4.575-.154h0l-.083.007.083-.008m.341,0a1.171,1.171,0,0,0-.148,0c-.012-.038,0-.078.035-.076-.017.026.062.048.113.08M4.2-.932c.054-.016.072.006.079.029a.726.726,0,0,0-.093.013.078.078,0,0,0-.007.014A.152.152,0,0,1,4.2-.932" transform="translate(3.235 1.098)" fill="#ff7d23"/></g><g transform="translate(7.313 23.304)"><path d="M0,0C-.005,0-.009.007-.019.008A.226.226,0,0,0,.014.034C.019.021.026.009.032,0H0" transform="translate(0.019 0.001)" fill="#ff7d23"/></g><g transform="translate(38.084 23.469)"><path d="M0,0-.006,0A.051.051,0,0,1,.009.014C0,.008,0,0,0,0" transform="translate(0.006 0.002)" fill="#ff7d23"/></g><g transform="translate(40.613 23.856)"><path d="M0,0A.056.056,0,0,0,.024.029C.023.021.013.012,0,0" fill="#ff7d23"/></g><g transform="translate(41.42 23.881)"><path d="M0,0,.114.04A.612.612,0,0,0,0,0" fill="#ff7d23"/></g><g transform="translate(42.041 23.887)"><path d="M0,.007A.148.148,0,0,0,.012-.041h0Z" transform="translate(0 0.042)" fill="#ff7d23"/></g><g transform="translate(32.121 24.068)"><path d="M.007,0A.076.076,0,0,0-.016.006C-.073.027-.035.019.007,0" transform="translate(0.045)" fill="#ff7d23"/></g><g transform="translate(35.015 23.806)"><path d="M.013,0A.507.507,0,0,1-.081.052C-.029.062.012.064.013,0" transform="translate(0.081)" fill="#ff7d23"/></g><g transform="translate(28.874 24.2)"><path d="M0,0V0a.113.113,0,0,1-.02,0Z" transform="translate(0.017 0.002)" fill="#ff7d23"/></g><g transform="translate(34.879 23.848)"><path d="M0,0A.174.174,0,0,0,.136,0,.247.247,0,0,0,0,0" transform="translate(0 0.008)" fill="#ff7d23"/></g><g transform="translate(44.731 23.974)"><path d="M0,0l.03,0a.026.026,0,0,1,0-.017Z" transform="translate(0 0.011)" fill="#ff7d23"/></g><g transform="translate(44.764 23.961)"><path d="M0,0,.033-.011C.017-.011,0-.011,0,0" transform="translate(0 0.011)" fill="#ff7d23"/></g><g transform="translate(44.797 23.932)"><path d="M.01,0-.06.028c.024,0,.054,0,.07-.028" transform="translate(0.06)" fill="#ff7d23"/></g><g transform="translate(43.9 23.935)"><path d="M0,0-.008.041A.1.1,0,0,0,0,0" transform="translate(0.008)" fill="#ff7d23"/></g><g transform="translate(43.66 23.929)"><path d="M0,0C.059.012.149.089.233.064L.24.032C.2.092.057-.066,0,0" transform="translate(0 0.015)" fill="#ff7d23"/></g><g transform="translate(42.617 23.325)"><path d="M0,.017.209.05C.173.007.125-.052.219-.062-.044-.192.274.035,0,.017" transform="translate(0 0.102)" fill="#ff7d23"/></g><g transform="translate(41.913 23.295)"><path d="M.008.012c.112-.02,0-.063,0-.087-.071.04-.089.049,0,.087" transform="translate(0.048 0.075)" fill="#ff7d23"/></g><g transform="translate(37.253 23.28)"><path d="M0,.014l.012-.1c-.087.014,0,.038-.012.1" transform="translate(0.024 0.087)" fill="#ff7d23"/></g><g transform="translate(27.982 23.212)"><path d="M0,0,.027.126C.085.1.1-.038,0,0" transform="translate(0 0.006)" fill="#ff7d23"/></g><g transform="translate(24.392 23.275)"><path d="M.027.01A.125.125,0,0,0-.164-.031c.076.008.152.057.191.041" transform="translate(0.164 0.062)" fill="#ff7d23"/></g><g transform="translate(25.345 2.617)"><path d="M0,0A.177.177,0,0,1,.054.178Z" fill="#a2cf44"/></g><g transform="translate(24.092 2.044)"><path d="M.031.005C-.063-.014-.128-.022-.184-.028A.489.489,0,0,1,.031.005" transform="translate(0.184 0.03)" fill="#a2cf44"/></g><g transform="translate(26.104 2.564)"><path d="M.026,0-.158.017A.468.468,0,0,1,.026,0" transform="translate(0.158 0.003)" fill="#a2cf44"/></g><g transform="translate(36.414 5.521)"><path d="M.007,0C.055.182.1.35.136.472-.141.3-.014.146.007,0" transform="translate(0.041)" fill="#a2cf44"/></g><g transform="translate(19.449 0.351)"><path d="M.012,0-.032.094C-.081.052-.106.01.012,0" transform="translate(0.073)" fill="#a2cf44"/></g><g transform="translate(23.979 0.493)"><path d="M.011,0A.194.194,0,0,1-.013.125.521.521,0,0,1-.067.1Z" transform="translate(0.067)" fill="#a2cf44"/></g><g transform="translate(27.019 2.363)"><path d="M0,0a.089.089,0,0,1,.01-.01L.16.05C.08.069.029.052,0,0" transform="translate(0 0.009)" fill="#a2cf44"/></g><g transform="translate(17.895 0.012)"><path d="M.026.03A.828.828,0,0,1-.155-.179c.14.044.205.136.181.209" transform="translate(0.155 0.179)" fill="#a2cf44"/></g><g transform="translate(24.064 2.043)"><path d="M0,0S0,0,0,0L.026,0C.017,0,.01,0,0,0" transform="translate(0.002 0.004)" fill="#a2cf44"/></g><g transform="translate(25.32 0.54)"><path d="M.034.008C-.045-.008-.119-.02-.2-.041A.278.278,0,0,1,.034.008" transform="translate(0.204 0.049)" fill="#a2cf44"/></g><g transform="translate(36.414 5.372)"><path d="M.007.021c-.015-.05-.03-.1-.047-.149A.169.169,0,0,1,.007.021" transform="translate(0.04 0.128)" fill="#a2cf44"/></g><g transform="translate(40.111 13.284)"><path d="M0,.031A.18.18,0,0,1,.109-.188.524.524,0,0,1,0,.031" transform="translate(0.003 0.188)" fill="#a2cf44"/></g><g transform="translate(3.522 16.596)"><path d="M0,0-.01.055A.091.091,0,0,1,0,0" transform="translate(0.01)" fill="#a2cf44"/></g><g transform="translate(5.269 11.451)"><path d="M0,.005A.334.334,0,0,1,.1-.032C.1.019.052.026,0,.005" transform="translate(0 0.032)" fill="#a2cf44"/></g><g transform="translate(2.477 0)"><path d="M.465.832c-.12.4-.583.569-.778.855l.162-.034-.271.237.145.086c-.369.441-.556,1.136-.885,1.193l.269.068c-.154.142-.316.282-.465.429.1-.076.212-.147.318-.219a7.2,7.2,0,0,1-.54.967c-.184.3-.35.546-.378.611l.117-.015c0,.119-.091.173-.163.265l.171-.022c-.418.906-.19,1.276-.69,2.262-.056.3.1-.142.178-.12.065.192-.16.52-.25.58.252-.014.322-.47.4-.082-.184.2.259-.094.085.3l-.337.076c-.019.246.212.113.077.469-.244.385-.185-.609-.418.058-.075.352.482.891.175,1.507.031.6.523-.194.281.568l.3-.454c.055.146.222.1.087.416a.865.865,0,0,0-.376.437c.362-.676.22.693.638.08l-.056.243a.04.04,0,0,1,.066-.01l-.031.321c.092-.181.21-.652.388-.391-.01.155-.02.318-.021.456.18-.076.229.075.366.066.164-.376.366-.83.568-1.24-.111.03-.215.209-.3.115-.008-.378.243-.251.187-.618l-.166.118c.056-.015.083-.058.083.019.056.138-.055.166-.136.148-.14-.157.055-.474.195-.545.09-.44-.273-.166-.3-.275.335-.153.192-.732.4-.965l-.229.12A.864.864,0,0,1-.386,8.1l-.168.028c.18-.447-.223-.853.414-1.012l-.113.013c.026-.2.024-.528.248-.644a.167.167,0,0,1-.1-.17c.236-.02.16-.274.25-.556-.128.157-.353-.008-.492.161-.072-.535.446-.268.595-.618-.031-.267-.22.126-.335.135C.276,4.963-.118,4.049.54,3.964l.031.306C.785,4.116.843,4,.786,4c-.021.076-.077.073-.134.073.1-.767.888-.77,1.176-1.41-.113-.012-.195.056-.268.013.091-.338.605.027.735-.513l-.154.014c.045-.183.255-.188.269-.147-.358-.3.689-.841.507-1.5A1.862,1.862,0,0,0,3.569.294a1.05,1.05,0,0,0,.439-.4c.065-.416-.419-.036-.5-.3.2-.174.467-.071.7-.39.157.2-.23.877.387.538L4.585-.43c-.047.057-.086.164-.184.2-.248.016-.016-.209-.023-.294.213-.136.435-.26.65-.391.2.19-.192.4-.188.482.215-.2.4-.483.637-.715a2.457,2.457,0,0,1,.357-.327,1.135,1.135,0,0,1,.409-.166L6.149-1.7c.721-.119.173-.632.865-.463.253-.18-.21-.227.215-.418.125-.041.085.079.075.118.567-.078.163-.32.732-.24l-.185-.24a5.494,5.494,0,0,1,1.012.178,1.579,1.579,0,0,0,.875.042c-.055-.215-.379-.152-.537-.3a3.189,3.189,0,0,0,1.244.085,3.314,3.314,0,0,1,1.2.041c-.205.188.327.436-.114.592-.114-.286-.322-.1-.558-.129.381.622,1.6-.3,1.713.237l.1-.222c.1.033.374.2.189.269l.76-.142c-.267-.167-.829-.551-1.007-.311-.216-.236.311-.156.12-.425.509.367.313-.155.84-.076-.239.32.524.433.5.587a1.089,1.089,0,0,1,.7.2,7.85,7.85,0,0,1,1.493-.117c-.185-.1-.478-.232-.457-.435.24.115.5.113.549-.124-.851-.433-.275.542-1.045.264a1.069,1.069,0,0,0-.8-.414c.181-.155.1-.222.176-.408.485.569,1.263.055,1.9.336.267.167.065.524.673.585l-.521.174c.573-.157.134.168.608.231l-.189-.184a.587.587,0,0,1,.556.131l-.245-.286c.156-.035.446-.071.449.1a.337.337,0,0,0,.055-.174c.03.048.1.078.287.069-.107-.033-.184-.014-.187-.1.7.068.162-.309.594-.281-.068-.066.055-.148.21-.183-.01.449.844.509,1.071.757l0-.007.583.181c-.118-.036.009-.16.18-.206H20.8c.185-.069-.22-.488.335-.358l.293.133c-.052-.016,0-.085.026-.119l.3.121c.46-.419.869.237,1.409.031-.155.035-.393,0-.292-.133a.363.363,0,0,1,.344.064l-.027-.05,1.03.278c-.083-.152-.659-.163-.4-.335.153-.2.449.013.633.028-.023.118-.365.224-.02.287.042-.058.37-.181.216-.266.079.03.21.058.255.085.068.028.1.068.2.114a1.5,1.5,0,0,1,.455.346c.1-.028-.024-.111-.068-.139l-.03.027c-.17-.1.038-.308-.359-.264.04-.392.571.006.913.058-.152-.136-.309-.271-.472-.4a2.118,2.118,0,0,1,1.591.323c.5.283.942.664,1.352.895-.3-.024-.451-.234-.56.051a7.444,7.444,0,0,0,.853.648l-.033-.041c.335.028.491.5.8.4-.006-.211-.427-.119-.243-.4.192.149.388.3.573.454-.058-.3-.571-.461-.78-.647-.178-.093.314.262.108.391a1.555,1.555,0,0,1-.72-1.081c-.073-.31.39-.061.5.01A2.6,2.6,0,0,0,30.26-.577c.155.01.307.03.458.054.1.411-.308.632.15,1.015l0-.257a.591.591,0,0,1,.268.135c-.084-.283-.176-.6-.267-.871.548-.05.617.867.884,1.3.021-.052-.089-.2-.05-.307.6.535.7,1.478.935,2.006.276.125-.156-.478.12-.512.079.321.46.513.3.7.229-.288.362.637.353-.056a6.848,6.848,0,0,1,.965,3.449.224.224,0,0,1,.245-.07,2.145,2.145,0,0,1-.027-1.25c.243.2-.035.667.084.707.04-.152-.042-.407.118-.463.281.279.093.541.115.784L34.8,5.684c-.049.791-.46.539-.211,1.279.252.239.164-.034.413-.09-.07.2.328.749.076.984-.024-.157-.061-.314-.1-.469a4.719,4.719,0,0,1-.031.892c.051-.029.1-.056.118-.129-.051.274.021.608-.143.758l.276.05c-.124-.149-.21-.611-.069-.709.239.016.162.513.187.721a2.943,2.943,0,0,1,.152-.947,1.072,1.072,0,0,0-.061-.826l-.058.147a1.188,1.188,0,0,1-.146-.732,2.914,2.914,0,0,0-.033-.715c.083.106.185.108.216.04A26.367,26.367,0,0,0,34.194,3.1c.037-.142.059-.281.087-.423l-.191.073c-.336-.448.2-.239.012-.551.065.122.024.117-.007.166-.11-.686-.344-.219-.47-.563-.093.258.287.634-.045.639-.1-.667-.772-1.407-.444-1.773-.45-.422-.856-.96-1.293-1.456a9.834,9.834,0,0,0-1.274-1.3c-.166-.014.031.106-.054.129-.159-.491-1.239-.59-1.11-.8a.664.664,0,0,0-.444.117,2.344,2.344,0,0,0-.694-.6l.185.168-.038.019-.264-.236.017-.009c-.721-.411-1.624-.661-2.313-1.1.392.265-.177.271,0,.416a.9.9,0,0,0-.321-.311,1.208,1.208,0,0,0-.259-.12,1.376,1.376,0,0,0-.4-.078A5.627,5.627,0,0,0,23.8-4.508c0,.084-.049.153.03.219l-.4-.166.052.1c-.708.075-1.48-.374-1.948-.184.289.049.292.133.32.268A8.118,8.118,0,0,1,20.285-4.4a.113.113,0,0,1,.052.084,1.1,1.1,0,0,1-.5-.114l-.021.2c-.3-.093-.7.01-1.056-.152-.141.223-.874-.205-1.289-.112-.16-.049.346.233-.1.22-.063-.44-.58-.01-.615-.484l-.391.173-.086-.236c-.331.443-.505-.2-1-.058.026.051.079.068.054.1-.16-.05-.527-.079-.243-.2-.264,0-1.158-.107-.757.142-.028-.135.339-.02.5.029-.021.2-.418.122-.514.343a.741.741,0,0,0-.1-.09l-.057.126c-.495-.224-1-.063-1.356-.351-.021.062-.107.111-.278.1l-.007-.253-.526.006.247.369c-.587.077-.962-.352-1.479-.4-.12.434-1.06-.136-1.488.324L9.7-4.58a3.407,3.407,0,0,0-.932.164,2.747,2.747,0,0,1-.885.181c.66-.288.661-.23,1.652-.7a8.3,8.3,0,0,1-1.412.209,4.006,4.006,0,0,0-.665.106,2.675,2.675,0,0,0-.646.287c.094.076.343.065.153.234-.255-.167-.837.325-.8.034-.246.2-.2.434-.348.534-.337.047-.676.112-1.025.176l.051.029A6.871,6.871,0,0,1,2.893-1.895l-.517.3q-.247.164-.486.349a3.51,3.51,0,0,0-.83.892l.125.064C1.039-.231.907-.162.767-.1,1.073-.267.81.12.889.214.588.421.3.644.021.875.1.963.36,1.069.465.832M12.5-4.65l.226.019a.174.174,0,0,1,.143.012l-.143-.012c-.117.033-.2.14-.226-.019M32.671.28c-.019.166-.131-.108-.2-.155.082.1.153.212.226.321.086,0,0-.11-.026-.166M12.51-3.01l-.126.169-.161-.133Zm-3.153.133.318.057-.022.037-.315-.058Zm-3.9-.181a.4.4,0,0,1,.076,0,.326.326,0,0,1-.076,0c-.3.021-.25.327-.584.185.11-.359.4-.205.584-.185m5.918-1.311a.412.412,0,0,0,.238.031c-.056-.1-.271-.251-.113-.286.108.117.476.147.481.316-.318-.183-.545.293-.605-.062m7.547.112-.08.017.294.132Zm1.369.173c.164.218.583.18.872.227.076-.187-.219-.4-.56-.383-.4-.166-.152.288-.313.155M8.8-3.856l.111.136-.077.029.344.052c-.394.246-.759-.034-1-.057.2-.029.787.218.625-.161m14.415-.122c.293.133.82.3.771.449.019-.288-.4-.419-.535-.418a.412.412,0,0,1-.236-.031m-.015.541c-.425-.131-.453-.266-.777-.533a.349.349,0,0,1,.485.4c.292.132.236-.054.391-.089Zm-.44-.807-.173.04c-.2.119-.247.446-.533.12l.533-.12a.276.276,0,0,1,.173-.04m3.789.36-.153-.148c.177.061.184.111.153.148l.124.127c-.415-.022-.189-.055-.124-.127M23.6-4.151l-.5-.029c.029.135.342.064.5.029m2.756.478c-.218-.051-.8-.148-.713-.146.087-.142.6.022.713.146M34.231,4.1c-.031-.1-.068-.2-.108-.3l.252.064ZM32.242.933h.129l.1.156Zm-2.5-2.343a.174.174,0,0,0,.066-.133.222.222,0,0,1-.05-.14.145.145,0,0,1,.05.14.608.608,0,0,0,.383.227c.014-.113-.173-.226-.2-.33.418-.007.526,1.015.8.349.063.147.288.6.089.58a2.66,2.66,0,0,0-1.138-.693.117.117,0,0,1-.128,0,.271.271,0,0,1,.128,0M25.515-3.155a.475.475,0,0,1-.192-.1c-.1-.073-.17-.162-.12-.251.257.133.066.177.12.251a.809.809,0,0,0,.192.1m-.787-.061a1.489,1.489,0,0,1,.379.154,1.166,1.166,0,0,0-.175-.173,5.2,5.2,0,0,1,.547.383.7.7,0,0,1-.483-.1c-.111-.072-.239-.163-.268-.259m-.148.133-.087-.164.133.168-.045,0,.02.037-.711-.094Zm-7.269-.33c-.266.569.629.4.769.679.029-.191.3-.488-.4-.481.6-.191.376.37.734-.108a1.628,1.628,0,0,1-.686-.128l.339-.02c-.192-.353-.521.174-.76.058m-3.652.086-.447-.013.423.047ZM3.527-.241c.11.08-.114.641-.39.558.176-.224.406-.432.39-.558M.638,3.428l.349-.371c.213.239-.233.373-.306.6-.173,0,.007-.113-.043-.231m-1.4,2.923-.1.129.342-.044ZM-.3,6.3c.09.141.275-.143.288-.223ZM-.98,9.1l.038-.2-.31.1Zm-.211-.4c.2.009.436.1.456-.38-.188-.08-.226.043-.4-.2a.57.57,0,0,0-.057.362c.062-.092.02-.237.156-.224a.518.518,0,0,1-.155.44.22.22,0,0,0-.184.056A.207.207,0,0,0-1.191,8.7M-.854,7a.318.318,0,0,0-.029-.162l.058-.009c.059.091.02.136-.029.171,0,.075-.006.157-.01.243.142.106.363-.157.483-.2-.1.126-.3.194-.272.421.056-.009.08.027.12-.094l-.056.276c-.331.225-.3-.086-.275-.4a.218.218,0,0,1-.084-.126C-.955,7.059-.9,7.031-.854,7M-1.918,9.07l.089-.139c.086-.059.138.008.194,0-.063.171-.238.374-.282.143M2.24.609c-.03.112.283.063.4-.145l.107.261c-.129-.108-.427.253-.467.288-.231-.083-.048-.168-.04-.4m9.866-4.123c.085.321.686.128.818.212-.311.07-1.022.145-.818-.212m1.04-.129c.164,0,.211-.027.194.134.08.068.21-.019.29.048-.32.142-.3-.114-.484-.182a1.211,1.211,0,0,1-.153-.014.283.283,0,0,1,.153.014m-6.432.778-.3-.129-.323.157ZM3.241-1.21c.112.085-.2.349-.3.364.136.107.329-.085.506-.213a.313.313,0,0,0,.124-.076.694.694,0,0,0-.124.076c-.089.021-.1-.084-.146-.132l.05-.111-.266.163ZM-.922,4.084c.017.28-.04.283-.156.409-.038-.076.04-.282.156-.409M4.83-2.563c-.313.3.311.122.124.343l.174-.131c-.2.348-.318-.038-.5.141l.124-.119c.023-.216-.282.04-.385-.056.133-.166.595-.3.468-.178M-1.193,4.382c-.019.441-.306.229-.437.443-.007-.363.26-.189.437-.443m3.547-5.7,0-.043-.321.176,0,.044Z" transform="translate(2.797 5.002)" fill="#a2cf44"/></g><g transform="translate(5.414 10.572)"><path d="M.011,0A.423.423,0,0,1-.068.19.824.824,0,0,1,.011,0" transform="translate(0.068)" fill="#a2cf44"/></g><g transform="translate(19.376 2.482)"><path d="M0,.012A.114.114,0,0,1,.089-.073C.083-.046.061-.018,0,.012" transform="translate(0 0.073)" fill="#a2cf44"/></g><g transform="translate(20.139 2.678)"><path d="M0,0H.029L.052.016Z" fill="#a2cf44"/></g><g transform="translate(39.76 13.029)"><path d="M.015.039c-.2.185-.055-.148-.071-.275C-.04-.11.118-.08.015.039" transform="translate(0.09 0.236)" fill="#a2cf44"/></g><g transform="translate(39.992 12.241)"><path d="M.011,0A.653.653,0,0,0-.057.338.458.458,0,0,1,.011,0" transform="translate(0.067)" fill="#a2cf44"/></g><g transform="translate(40.003 12.579)"><path d="M.015.072a1.766,1.766,0,0,1-.1-.505.963.963,0,0,1,.1.505" transform="translate(0.09 0.433)" fill="#a2cf44"/></g><g transform="translate(39.093 9.587)"><path d="M.029,0A.458.458,0,0,0,.056.3a1.672,1.672,0,0,0,.071.16c-.334-.592-.19.208-.28.29C-.226.346-.079.294.029,0" transform="translate(0.173)" fill="#a2cf44"/></g><g transform="translate(39.022 8.731)"><path d="M0,0A.6.6,0,0,0,.1.161.284.284,0,0,1,0,0" fill="#a2cf44"/></g><g transform="translate(38.78 8.042)"><path d="M0,.073A.725.725,0,0,1,.087-.44c.238.2.082.484.138.688C.153.1.1-.057,0,.073" transform="translate(0.018 0.44)" fill="#a2cf44"/></g><g transform="translate(33.488 3.876)"><path d="M.034.009c.035.04.139.1.1.174L-.182,0c-.1-.117.143-.014.216.008" transform="translate(0.205 0.054)" fill="#a2cf44"/></g><g transform="translate(32.366 2.713)"><path d="M.047.033C-.224-.1-.165.163-.285.058L-.159-.2Z" transform="translate(0.285 0.201)" fill="#a2cf44"/></g><g transform="translate(33.44 1.693)"><path d="M0,0,.081.069-.018.01Z" transform="translate(0.018)" fill="#a2cf44"/></g><g transform="translate(31.211 2.712)"><path d="M.006,0,.1.365C-.1.214-.035-.028.006,0" transform="translate(0.037 0.002)" fill="#a2cf44"/></g><g transform="translate(29.919 2.68)"><path d="M.04,0A.32.32,0,0,0,.13.116,1.07,1.07,0,0,1-.007.048,1.184,1.184,0,0,0-.243,0l.2,0A.429.429,0,0,1,.04,0" transform="translate(0.243 0.003)" fill="#a2cf44"/></g></g><g transform="translate(29.069 2.513)"><path d="M.057.011.108-.056-.34-.069Z" transform="translate(0.34 0.069)" fill="#87c846"/></g><g transform="translate(0 0)" clip-path="url(#a)"><g transform="translate(13.269 2.269)"><path d="M0,.056C-.13-.2.491-.232.65-.335.609.029.143-.352,0,.056" transform="translate(0.016 0.335)" fill="#a0ce44"/></g><g transform="translate(5.605 9.534)"><path d="M0,.071l.313-.5c-.1.455-.055.113-.313.5" transform="translate(0 0.429)" fill="#a0ce44"/></g><g transform="translate(3.924 27.936)"><path d="M0,.013A.713.713,0,0,0-.011-.08C.034-.008.05.031,0,.013" transform="translate(0.011 0.08)" fill="#a0ce44"/></g><g transform="translate(3.473 26.894)"><path d="M.01,0A3.556,3.556,0,0,1,.388,1.042C.24.811-.244.215.01,0" transform="translate(0.062)" fill="#a0ce44"/></g><g transform="translate(3.408 27.915)"><path d="M.012.056-.07-.338c.177.168.022.2.082.394" transform="translate(0.07 0.338)" fill="#a0ce44"/></g><g transform="translate(19.301 36.625)"><path d="M.007.026a.2.2,0,0,1-.043-.18Z" transform="translate(0.043 0.154)" fill="#a0ce44"/></g><g transform="translate(20.231 37.341)"><path d="M0,0A1.46,1.46,0,0,0,.183.029.341.341,0,0,1,0,0" fill="#a0ce44"/></g><g transform="translate(18.558 36.831)"><path d="M0,0,.155-.013A.319.319,0,0,1,0,0" transform="translate(0 0.013)" fill="#a0ce44"/></g><g transform="translate(9.352 34.295)"><path d="M.022.058C-.035-.1-.089-.245-.133-.349c.267.1.163.267.155.407" transform="translate(0.133 0.349)" fill="#a0ce44"/></g><g transform="translate(24.402 38.816)"><path d="M0,.014l.033-.1C.078-.043.1,0,0,.014" transform="translate(0 0.083)" fill="#a0ce44"/></g><g transform="translate(20.462 38.799)"><path d="M0,.018A.216.216,0,0,1,.02-.107a.438.438,0,0,1,.048.022Z" transform="translate(0.001 0.107)" fill="#a0ce44"/></g><g transform="translate(17.807 36.957)"><path d="M.019.009.009.019-.113-.046c.068-.015.11,0,.132.055" transform="translate(0.113 0.051)" fill="#a0ce44"/></g><g transform="translate(25.669 38.963)"><path d="M0,0A.8.8,0,0,1,.172.2C.047.162-.016.073,0,0" transform="translate(0.002)" fill="#a0ce44"/></g><g transform="translate(20.414 37.37)"><path d="M0,0s0,0,0,0L-.019,0A.141.141,0,0,0,0,0" transform="translate(0.019)" fill="#a0ce44"/></g><g transform="translate(19.151 38.823)"><path d="M0,0C.07.017.134.029.209.051A.225.225,0,0,1,0,0" fill="#a0ce44"/></g><g transform="translate(9.507 34.702)"><path d="M0,0,.049.134A.154.154,0,0,1,0,0" transform="translate(0.001)" fill="#a0ce44"/></g><g transform="translate(4.553 28.854)"><path d="M0,0A.157.157,0,0,1-.028.217.436.436,0,0,1,0,0" transform="translate(0.03)" fill="#a0ce44"/></g><g transform="translate(41.126 26.916)"><path d="M0,.006.022-.035A.063.063,0,0,1,0,.006" transform="translate(0 0.035)" fill="#a0ce44"/></g><g transform="translate(38.317 30.6)"><path d="M.014,0a.3.3,0,0,1-.1,0c.006-.045.054-.034.1,0" transform="translate(0.083 0.028)" fill="#a0ce44"/></g><g transform="translate(4.002 26.388)"><path d="M4.671,1.278c.183-.313.638-.293.878-.469L5.4.781c.1-.034.19-.077.287-.117L5.574.537C5.99.275,6.322-.254,6.64-.179L6.411-.335c.173-.066.339-.141.512-.212l-.335.08A12.427,12.427,0,0,1,7.783-1.5l-.108-.027c.022-.106.12-.118.209-.171l-.162-.042c.6-.626.468-1.026,1.167-1.691.117-.236-.121.091-.2.041-.01-.181.265-.391.363-.412-.238-.071-.4.3-.387-.061.216-.11-.26-.006-.012-.287l.332.049c.075-.2-.173-.166.037-.421.315-.248.035.577.4.085.146-.28-.248-.906.17-1.333.1-.513-.535,0-.142-.562-.124.1-.254.194-.383.287-.021-.14-.185-.148.008-.373a.725.725,0,0,0,.448-.253c-.486.455-.066-.638-.59-.254l.1-.183a.043.043,0,0,1-.065-.01c.031-.084.069-.176.092-.248-.12.111-.327.468-.443.2.034-.117.085-.26.1-.355-.187.008-.206-.12-.338-.155-.048.042-.113.118-.176.185l-.194.21c-.133.14-.264.28-.407.416.11.01.248-.1.308,0-.072.31-.281.128-.3.446L7.8-6.468c-.055-.006-.089.021-.073-.042-.026-.131.084-.119.157-.078.1.173-.145.372-.294.384-.18.33.22.225.22.322-.342.02-.33.546-.581.666l.24-.022c.019.366-.281.484-.433.583l.162.034c-.266.308.008.784-.6.7l.1.027c-.059.167-.142.433-.372.454a.162.162,0,0,1,.057.18c-.217-.065-.212.169-.348.385.149-.09.315.128.481.036-.055.478-.451.083-.676.314-.037.233.233-.022.339.009-.456.257-.293,1.2-.9,1.036.016-.087.026-.183.037-.275-.219.063-.306.127-.251.149.035-.055.086-.033.139-.012-.278.605-.962.351-1.362.8.1.052.189.026.245.089-.162.252-.54-.246-.769.187L3.46-.5a.168.168,0,0,1-.269.037c.127.184-.059.335-.283.5S2.429.38,2.449.718a1.243,1.243,0,0,0-.611.028c-.211.055-.407.121-.46.229-.126.367.363.156.391.427-.2.1-.421-.07-.679.156C.981,1.33,1.434.812.83.951l-.016.16c.049-.044.1-.128.2-.138.224.056-.019.2-.026.279l-.619.222c-.149-.225.222-.341.227-.42a2.937,2.937,0,0,0-.32.259l-.339.268a1.276,1.276,0,0,1-.728.324l.076.079c-.645,0-.192.6-.8.313-.234.132.17.251-.211.371-.11.03-.071-.086-.061-.124-.495.028-.149.3-.643.173l.156.255a2.877,2.877,0,0,1-.439-.085l-.439-.157a1.1,1.1,0,0,0-.764-.062c.054.215.335.155.472.3a1.828,1.828,0,0,0-1.077-.051,2.919,2.919,0,0,1-1.042.02c.161-.2-.31-.414.052-.6.119.278.28.077.483.093-.372-.6-1.333.406-1.472-.125l-.07.226c-.092-.026-.331-.174-.18-.255l-.634.183c.236.155.742.505.876.254.2.219-.255.175-.072.43-.46-.332-.257.175-.711.122.182-.33-.475-.406-.463-.561a.825.825,0,0,1-.609-.162c-.26-.012-.84.276-1.26.177.161.094.415.217.407.421-.21-.108-.434-.1-.463.141.745.4.21-.549.878-.3a.876.876,0,0,0,.7.374c-.146.163-.075.225-.128.416-.446-.54-1.086,0-1.642-.261-.234-.156-.076-.52-.594-.563l.437-.19c-.482.176-.12-.162-.523-.211l.164.178a.435.435,0,0,1-.474-.114l.215.28c-.132.042-.376.078-.383-.09a.386.386,0,0,0-.042.175c-.027-.048-.09-.077-.245-.065.092.031.156.013.161.1-.592-.058-.133.311-.5.289.058.065-.044.149-.176.187,0-.448-.723-.5-.911-.756l0,.007-.486-.185c.1.037-.01.159-.154.205l.023,0c-.157.068.176.49-.292.355l-.241-.142c.043.017,0,.084-.026.118l-.247-.132c-.411.406-.717-.267-1.176-.1.133-.026.328.021.233.15a.264.264,0,0,1-.282-.086l.019.052c-.281-.11-.552-.238-.818-.362.048.157.519.225.29.371-.149.188-.371-.057-.519-.09.036-.115.327-.187.056-.282-.044.058-.321.131-.211.237-.133-.083-.3-.161-.454-.246a1.346,1.346,0,0,1-.376-.328c-.084.031.014.108.052.132l.026-.029c.142.1-.045.3.3.253-.045.385-.5.01-.764-.027a3.774,3.774,0,0,0,.373.376,1.092,1.092,0,0,1-.633.038,1.122,1.122,0,0,1-.3-.114.58.58,0,0,1-.213-.177l-.017-.043-.083-.014a9.087,9.087,0,0,1-1.377-.53c.258-.042.411.113.463-.184a5.5,5.5,0,0,0-.777-.415l.03.03c-.286.038-.458-.366-.723-.2.017.205.385.009.244.321a4.462,4.462,0,0,1-.535-.31c.069.285.537.314.729.454.161.054-.292-.189-.122-.353A1.29,1.29,0,0,1-20,2.359c.1.282-.328.14-.435.1a1.963,1.963,0,0,0-1.228-1,3.911,3.911,0,0,1-.414.047c-.119-.364.243-.673-.21-.913l.017.236a.44.44,0,0,1-.255-.063l.308.75c-.236.076-.4-.1-.533-.318a4.463,4.463,0,0,0-.366-.7c-.014.052.1.163.07.272A1.753,1.753,0,0,1-23.7-.009a7.206,7.206,0,0,0-.426-.808c-.133-.023-.084.076-.033.192s.119.238-.01.292c-.128-.252-.483-.345-.36-.554-.17.316-.435-.454-.323.148a3.54,3.54,0,0,1-.527-.553,7.071,7.071,0,0,1-.406-.674A11.552,11.552,0,0,1-26.4-3.4a.256.256,0,0,1-.21.142,1.547,1.547,0,0,1,.3,1.043c-.274-.085-.1-.575-.224-.57-.006.143.12.332-.016.433-.318-.141-.187-.432-.272-.62l.132.047c-.154-.665.3-.605-.132-1.128-.294-.106-.143.089-.359.223.008-.189-.483-.5-.33-.78l.218.348A5.737,5.737,0,0,1-27.53-5c-.038.043-.079.084-.069.147-.037-.238-.2-.478-.1-.661l-.269.066c.157.072.384.408.281.541-.224.077-.308-.348-.394-.505.3.737-.048.947.435,1.459l.016-.142a.9.9,0,0,1,.323.547,2.147,2.147,0,0,0,.21.574c-.1-.058-.2-.023-.211.043a6.3,6.3,0,0,1,.8.979A9.216,9.216,0,0,0-25.65-.918l-.013.388.167-.119c.378.292-.149.264.069.479-.078-.086-.04-.093-.016-.145.194.567.342.1.5.373.062-.258-.332-.492-.028-.585.164.573.885,1.044.605,1.466.212.149.441.3.655.483s.416.383.639.561.422.378.634.542.422.31.615.43c.147-.015-.036-.1.037-.134.089.211.394.292.646.352s.482.068.439.191a.631.631,0,0,0,.381-.2,1.774,1.774,0,0,0,.722.419l-.2-.115.031-.027.286.161-.014.013a2.737,2.737,0,0,0,.391.092,2.174,2.174,0,0,0,.216.031,2.513,2.513,0,0,0,.267.02l-.871-.492a1.334,1.334,0,0,0,.114.164l.052.056c.031.035.066.069.1.1.061.052.1.078.148.117a2.518,2.518,0,0,0,.25.161c.166.1.281.146.421.224a5.339,5.339,0,0,1,.685.379c-.341-.248.166-.275.012-.413.236.481,1.036.624,1.652.644.007-.084.062-.146,0-.22.112.068.227.139.339.2l-.038-.1a2.68,2.68,0,0,1,.939.206,1.244,1.244,0,0,0,.78.08c-.254-.058-.252-.143-.272-.28a8.039,8.039,0,0,1,1.382.173.127.127,0,0,1-.045-.084c.136-.034.3.068.439.118l.019-.2c.267.1.605-.015.921.143.118-.226.766.2,1.126.091.14.044-.307-.222.08-.224.069.436.5-.008.549.463l.334-.185.085.233c.269-.456.45.187.872.019-.026-.049-.072-.063-.051-.1.14.041.462.052.22.188.229-.016,1.012.048.648-.181.034.134-.293.037-.434,0,.008-.2.355-.143.427-.369a.753.753,0,0,0,.094.085l.041-.128c.441.2.867.014,1.2.275.013-.064.085-.118.232-.115l.024.253.455-.04-.24-.352c.491-.112.875.28,1.29.31.05-.414.857.062,1.194-.365l-.355-.068c.736-.029.811-.281,1.5-.259a7.516,7.516,0,0,0-1.355.612A3.319,3.319,0,0,1-2.5,4.727a2.106,2.106,0,0,0,1.081-.286c-.077-.084-.283-.1-.122-.247.2.174.713-.191.669.083.215-.145.185-.38.316-.454l.868.01L.268,3.795a2.445,2.445,0,0,1,.878-.534,5.149,5.149,0,0,1,.933-.309,6.214,6.214,0,0,0,.968-.282,3.157,3.157,0,0,0,.871-.542l-.1-.1.408-.021c-.309.037.007-.2-.045-.314l.889-.3c-.056-.107-.261-.29-.4-.118M-6.158,4.741l-.2,0a.139.139,0,0,1-.125,0l.125,0c.1-.042.163-.154.2,0M-23.912,1.183c0-.152.133.064.2.094l-.239-.236c-.08.022.014.1.041.141M-6.288,3.107l.1-.177.147.122Zm2.709-.285-.279-.059.019-.037.275.061Zm3.35.6a.277.277,0,0,1-.064-.012.22.22,0,0,1,.064.012c.253.036.231-.28.506-.068-.125.316-.353.122-.506.068m-4.984.961a.318.318,0,0,0-.206-.015c.056.1.252.232.119.278-.1-.11-.421-.114-.439-.283.289.161.446-.328.526.021m-6.533.217.069-.02-.255-.128Zm-1.193-.173c-.139-.219-.5-.184-.753-.237-.07.187.181.407.479.39.346.169.135-.288.274-.153m9.857-.624-.1-.139.065-.027-.293-.057c.329-.255.651.089.854.125-.169.009-.674-.289-.53.1m-12.4.412c-.246-.146-.687-.366-.626-.513-.051.282.308.463.422.465a.326.326,0,0,1,.2.048m.058-.539c.353.159.37.3.636.583-.376.1-.449-.283-.394-.432-.241-.152-.208.037-.345.062Zm.323.835.155-.028c.189-.1.24-.434.475-.1-.157.033-.315.071-.475.1a.225.225,0,0,1-.155.028m-3.248-.552.14.148c-.164-.059-.174-.113-.14-.148l-.119-.138c.212.031.251.036.238.057s-.083.049-.119.08m2.508.4.44.064c-.015-.138-.3-.086-.44-.064m-2.317-.606c.206.054.71.131.636.129-.038.069-.171.071-.307.041a.785.785,0,0,1-.329-.17m-7.683-5.528.154.227-.243.02ZM-23.582.5-23.7.526-23.8.4Zm2.436,1.643a.2.2,0,0,0-.048.14.179.179,0,0,1,.058.122.131.131,0,0,1-.058-.122.53.53,0,0,0-.358-.138c-.006.114.167.188.2.275-.373.089-.546-.86-.743-.17-.071-.125-.307-.5-.125-.526a1.876,1.876,0,0,0,.526.292,1.292,1.292,0,0,0,.544.127.1.1,0,0,1,.114-.024.245.245,0,0,1-.114.024m3.757,1.084a.341.341,0,0,1,.162.1c.082.072.14.156.093.246-.215-.126-.05-.175-.093-.246a.533.533,0,0,0-.162-.1m.686.087-.33-.189.152.178a5.487,5.487,0,0,1-.465-.379.572.572,0,0,1,.644.39m.143-.111.049.175-.086-.185.037.01-.01-.04c.191.062.388.111.584.168-.192-.043-.385-.08-.574-.128m6.187.53c.21-.578-.549-.383-.674-.661-.02.19-.246.491.35.475-.511.2-.329-.364-.626.119a1.239,1.239,0,0,1,.591.119l-.292.024c.174.352.444-.182.651-.076m3.125-.24.383-.009-.364-.026Zm9.03-2.246c-.045-.055.015-.183.106-.288S2.1.769,2.217.847c-.094.08-.2.153-.282.22s-.149.115-.153.175m3.286-2.3-.393.2c-.139-.285.29-.24.4-.413.154.065-.03.1-.012.216m1.922-2,.127-.072L6.79-3.214Zm-.43-.118c-.049-.152-.283.022-.314.084ZM7.8-5.284l-.082.153.314.017Zm.107.4c-.184-.073-.39-.234-.505.166.156.131.217.038.328.3.115-.082.106-.222.129-.286-.078.056-.068.194-.192.136a.371.371,0,0,1,.24-.316.225.225,0,0,0,.184.014.215.215,0,0,0-.184-.014M7.222-3.571a.282.282,0,0,0-.007.15L7.16-3.433c-.035-.1.009-.124.062-.138a1.782,1.782,0,0,1,.063-.2c-.11-.14-.369.008-.486.006.117-.073.318-.061.341-.261-.054-.013-.068-.05-.132.037L7.121-4.2c.357-.076.259.175.163.429a.221.221,0,0,1,.049.134c-.006.049-.063.054-.112.066M8.674-4.956l-.113.09c-.093.022-.127-.052-.182-.059.1-.124.3-.239.3-.03M3.06.87c.048-.091-.238-.149-.379,0L2.637.6c.093.14.422-.09.47-.1C3.3.657,3.11.657,3.06.87M-5.905,3.583c-.1-.315-.6-.083-.715-.159.261-.09.863-.211.715.159m-.882.2c-.141.006-.18.038-.175-.124-.073-.063-.18.029-.252-.033.264-.159.264.1.427.156a.9.9,0,0,1,.132,0,.212.212,0,0,1-.132,0m5.5-.756.252.177c.1-.033.192-.058.286-.1-.18-.017-.36-.051-.538-.078m3.168-.8c-.084-.108.225-.267.323-.241-.1-.146-.3-.022-.476.043a.238.238,0,0,0-.12.034.522.522,0,0,0,.12-.034c.08.006.079.108.107.164l-.059.087L2.027,2.2ZM6.622-1.063c.048-.247.1-.23.236-.3.017.08-.1.229-.236.3M.344,3.076c.3-.206-.257-.19-.071-.352L.107,2.8c.21-.28.273.113.451-.012l-.119.083c-.042.2.247.031.324.147-.131.124-.54.138-.42.054m6.593-4.3c.118-.372.341-.08.507-.22-.077.315-.29.063-.507.22M2.636,2.59l0,.04a2.211,2.211,0,0,0,.306-.059l0-.042a2.557,2.557,0,0,1-.3.062" transform="translate(28.083 7.683)" fill="#a0ce44"/></g><g transform="translate(38.012 31.198)"><path d="M0,.019A.307.307,0,0,1,.111-.117.606.606,0,0,1,0,.019" transform="translate(0 0.117)" fill="#a0ce44"/></g><g transform="translate(24.334 36.693)"><path d="M.01,0A.109.109,0,0,1-.06.09c0-.027.02-.056.07-.09" transform="translate(0.06)" fill="#a0ce44"/></g></g><g transform="translate(24.359 36.606)"><path d="M0,0H.027L-.018-.013Z" transform="translate(0.018 0.013)" fill="#87c846"/></g><g transform="translate(17.068 36.705)"><path d="M0,.009.37.051.049-.055Z" transform="translate(0 0.055)" fill="#87c846"/></g></g></g></svg>