<svg xmlns="http://www.w3.org/2000/svg" width="193.347" height="55.498" viewBox="0 0 193.347 55.498">
  <g id="Group_1527" data-name="Group 1527" transform="translate(-54.238 -1254.973)">
    <path id="Path_1297" data-name="Path 1297" d="M68.539,33.794l.927,1.212h-4.27a1.3,1.3,0,0,1,.6-1.527,1.922,1.922,0,0,1,2.74.315" transform="translate(5.67 1229.503)" fill="#365424"/>
    <path id="Path_1298" data-name="Path 1298" d="M37.043,8a4.767,4.767,0,0,1-4.768,4.77H23.054a4.45,4.45,0,0,0-4.532-3.794,4.451,4.451,0,0,0-4.534,3.794H4.768a4.769,4.769,0,1,1,0-9.538H32.275A4.768,4.768,0,0,1,37.043,8" transform="translate(54.238 1251.74)" fill="#f27c00"/>
    <path id="Path_1299" data-name="Path 1299" d="M71.2,37.282a4.508,4.508,0,0,1-3.008,2.29l-1.87-2.713a4.8,4.8,0,0,1-1.13-1.853,1.3,1.3,0,0,1,.6-1.527,1.921,1.921,0,0,1,2.74.315l.927,1.212c.51.667,1.155,1.51,1.737,2.275" transform="translate(5.669 1229.503)" fill="#fff"/>
    <path id="Path_1300" data-name="Path 1300" d="M90.336,47.706l-9.783,6.98a52.049,52.049,0,0,0-6.218-3.819,29.861,29.861,0,0,0-4.426-1.738c-.686,0-2.688-1.106-2.74-1.9s.157-1.265,1.265-1.951,3.846.212,3.846.212l-4.085-5.922-1.87-2.713a4.8,4.8,0,0,1-1.13-1.853,1.3,1.3,0,0,1,.6-1.527,1.921,1.921,0,0,1,2.74.315l.927,1.212c.51.667,1.155,1.51,1.737,2.276.547.718,1.038,1.366,1.307,1.729.86,1.16,1.088,1.686,1.773,1.212S73.44,37.9,73.44,37.9a9.252,9.252,0,0,1,.9-.369,1.875,1.875,0,0,1,2.372.9c.737,1.212,1.369,1.055,1.79.58s-1-2.152-1-2.152,2.055-.851,2.741,0,.843,1.572,1.949,1.2-.632-2.107-.632-2.107a4.826,4.826,0,0,1,3.267.9,15.531,15.531,0,0,1,3.424,6.473c.106,1.317,2.09,4.373,2.09,4.373" transform="translate(5.67 1229.5)" fill="#2a2929"/>
    <path id="Path_1301" data-name="Path 1301" d="M159.889,13.881a21.135,21.135,0,0,1,4.922-2.935,8.232,8.232,0,0,1,2.853-.541,11.474,11.474,0,0,1,3.126.495c.374.106.964.185,1.176.552a1.043,1.043,0,0,1-.02.94,2.112,2.112,0,0,1-.942.856,3.562,3.562,0,0,1-1.271.5c-.266.024-.781-.262-.356-.46a4.986,4.986,0,0,1,1.325-.266,21.767,21.767,0,0,1,3.13-.229,22.368,22.368,0,0,1,6.93,1.083c.512.165.732-.64.222-.8a22.982,22.982,0,0,0-11.088-.759,2.02,2.02,0,0,0-1.315.557A1,1,0,0,0,168.7,14.2c.8.826,2.2.119,2.985-.39a2.232,2.232,0,0,0,1.139-2.463,1.6,1.6,0,0,0-1.042-1.017,12.44,12.44,0,0,0-1.759-.488,10.053,10.053,0,0,0-3.723-.162c-2.572.411-4.773,1.983-6.833,3.476-.431.312-.015,1.036.421.72" transform="translate(-64.52 1247.009)" fill="#f27c00"/>
    <path id="Path_1302" data-name="Path 1302" d="M230.366,16.946l2.37,3.2-.042-.322c-.079.32-.682.253-.928.245-.649-.022-1.3-.047-1.945-.07l-3.828-.138c-.537-.019-.536.815,0,.835l3.389.122,1.631.059a7.909,7.909,0,0,0,1.391,0,1.348,1.348,0,0,0,.932-.48.727.727,0,0,0,.162-.575,2.145,2.145,0,0,0-.412-.6l-2-2.7c-.316-.427-1.04-.011-.72.421" transform="translate(-113.954 1241.963)" fill="#f27c00"/>
    <path id="Path_1303" data-name="Path 1303" d="M367.819,162.821q1.66-.949,3.324-1.891a5.231,5.231,0,0,1,2.994-.966,3.051,3.051,0,0,1,2.322,1.472c.255.435.743,1.65.073,1.974-.611.3-1.322-.323-1.482-.877a1.53,1.53,0,0,1,.985-1.89,4.253,4.253,0,0,1,2.561.089,27.59,27.59,0,0,0,3.418.98,4.661,4.661,0,0,0,3.157-.6,6.726,6.726,0,0,0,2.21-2.358.451.451,0,0,0-.779-.455,5.55,5.55,0,0,1-2.2,2.208,4.464,4.464,0,0,1-3.353.062,17.613,17.613,0,0,0-3.651-.975,3.358,3.358,0,0,0-2.648.814,2.455,2.455,0,0,0-.273,3.014,2.069,2.069,0,0,0,2.345.841,1.9,1.9,0,0,0,.785-2.433,3.924,3.924,0,0,0-2.2-2.447,4.464,4.464,0,0,0-3.848.293c-1.435.715-2.811,1.572-4.2,2.368a.451.451,0,0,0,.455.779" transform="translate(-219.493 1136.282)" fill="#f27c00"/>
    <path id="Path_1304" data-name="Path 1304" d="M433.55,148.526l3.911-2.793c.137-.1.412-.412.53-.174a1.6,1.6,0,0,1,.042.8,12.484,12.484,0,0,1-.378,2.174.451.451,0,0,0,.87.24,13.013,13.013,0,0,0,.428-2.658c.036-.711-.3-1.691-1.2-1.544a2.959,2.959,0,0,0-1.129.656l-1.177.841-2.355,1.682a.463.463,0,0,0-.162.617.454.454,0,0,0,.617.162" transform="translate(-268.497 1146.369)" fill="#f27c00"/>
    <path id="Path_1307" data-name="Path 1307" d="M581.983,12.179A21.15,21.15,0,0,1,586.9,9.244a8.243,8.243,0,0,1,2.853-.541,11.475,11.475,0,0,1,3.126.495c.374.106.964.185,1.176.552a1.042,1.042,0,0,1-.02.94,2.11,2.11,0,0,1-.942.856,3.556,3.556,0,0,1-1.271.5c-.266.024-.781-.262-.356-.461a5,5,0,0,1,1.325-.266,21.767,21.767,0,0,1,3.13-.229,22.366,22.366,0,0,1,6.93,1.083c.513.165.732-.64.222-.8a22.982,22.982,0,0,0-11.088-.759,2.021,2.021,0,0,0-1.315.556,1,1,0,0,0,.119,1.336c.8.826,2.2.119,2.985-.39a2.232,2.232,0,0,0,1.139-2.463,1.6,1.6,0,0,0-1.042-1.017,12.447,12.447,0,0,0-1.759-.488,10.054,10.054,0,0,0-3.723-.162c-2.572.411-4.773,1.983-6.833,3.475-.431.312-.015,1.036.421.72" transform="translate(-379.219 1248.278)" fill="#f27c00"/>
    <path id="Path_1308" data-name="Path 1308" d="M652.46,15.244l2.37,3.2q-.021-.161-.042-.322c-.079.32-.682.253-.928.245-.649-.022-1.3-.047-1.945-.07l-3.828-.138c-.537-.019-.536.815,0,.835l3.389.122,1.632.059a7.905,7.905,0,0,0,1.39,0,1.348,1.348,0,0,0,.933-.48.726.726,0,0,0,.162-.575,2.144,2.144,0,0,0-.412-.6l-2-2.7c-.316-.427-1.041-.011-.721.421" transform="translate(-428.653 1243.232)" fill="#f27c00"/>
    <text id="_1" data-name="1" transform="translate(59.404 1277.295)" fill="#2a2929" font-size="12" font-family="SegoeUI, Segoe UI"><tspan x="0" y="0">1</tspan></text>
    <path id="Path_1309" data-name="Path 1309" d="M229.49,48.2a2.416,2.416,0,0,0-2.864,2.559c-.2,3.06,0,22.328,0,22.328s-.456,1.953,1.953,2.018,35.217,0,35.217,0,1.758-.065,1.823-2.539,0-22.393,0-22.393a2.179,2.179,0,0,0-2.474-1.973Z" transform="translate(-114.662 1218.229)" fill="#2a2929"/>
    <path id="Path_1310" data-name="Path 1310" d="M237.709,55.2a2.146,2.146,0,0,0-2.565,2.174c-.175,2.6,0,18.971,0,18.971s-.408,1.659,1.749,1.715,31.537,0,31.537,0S270,78,270.063,75.9s0-19.026,0-19.026S270,55.2,267.848,55.2Z" transform="translate(-121.02 1213.01)" fill="#fff"/>
    <rect id="Rectangle_70" data-name="Rectangle 70" width="37.3" height="4.557" transform="translate(112.94 1287.542)" fill="#2a2929"/>
    <path id="Path_1311" data-name="Path 1311" d="M275.2,154.15s-.26,3.291-.391,4.072-.586.846-.586.846h-2.734s-.716.976,0,.976h15.688s.716-1.139,0-1.155-2.669,0-2.669,0-.347.049-.412-.928-.3-3.812-.3-3.812Z" transform="translate(-147.937 1139.213)" fill="#2a2929"/>
    <path id="Path_1312" data-name="Path 1312" d="M240.905,186.307H235.99s-.879-.325-1.269,1.2-1.92,5.924-1.92,5.924-.651,1.777,1.888,1.777h32.548a1.451,1.451,0,0,0,1.465-1.842c-.358-1.823-1.953-6.249-1.953-6.249a2,2,0,0,0-1.855-.843c-1.335.062-23.988.029-23.988.029" transform="translate(-119.275 1115.259)" fill="#2a2929"/>
    <path id="Path_1313" data-name="Path 1313" d="M260.5,197.9H259.43a.441.441,0,0,1-.441-.441V197.2a.441.441,0,0,1,.441-.441H260.5a.441.441,0,0,1,.441.441v.258a.441.441,0,0,1-.441.441" transform="translate(-138.856 1107.44)" fill="#aabd00"/>
    <path id="Path_1314" data-name="Path 1314" d="M273.976,197.9H272.9a.441.441,0,0,1-.441-.441V197.2a.441.441,0,0,1,.441-.441h1.071a.441.441,0,0,1,.441.441v.258a.441.441,0,0,1-.441.441" transform="translate(-148.902 1107.44)" fill="#aabd00"/>
    <path id="Path_1315" data-name="Path 1315" d="M287.791,197.9H286.72a.441.441,0,0,1-.441-.441V197.2a.441.441,0,0,1,.441-.441h1.071a.441.441,0,0,1,.441.441v.258a.441.441,0,0,1-.441.441" transform="translate(-159.202 1107.44)" fill="#aabd00"/>
    <path id="Path_1316" data-name="Path 1316" d="M301.692,197.9h-1.072a.441.441,0,0,1-.441-.441V197.2a.441.441,0,0,1,.441-.441h1.072a.44.44,0,0,1,.44.441v.258a.441.441,0,0,1-.44.441" transform="translate(-169.566 1107.44)" fill="#aabd00"/>
    <path id="Path_1317" data-name="Path 1317" d="M315.338,197.9h-1.071a.441.441,0,0,1-.441-.441V197.2a.441.441,0,0,1,.441-.441h1.071a.44.44,0,0,1,.441.441v.258a.441.441,0,0,1-.441.441" transform="translate(-179.74 1107.44)" fill="#aabd00"/>
    <path id="Path_1318" data-name="Path 1318" d="M329.168,197.9H328.1a.441.441,0,0,1-.441-.441V197.2a.441.441,0,0,1,.441-.441h1.071a.441.441,0,0,1,.441.441v.258a.441.441,0,0,1-.441.441" transform="translate(-190.051 1107.44)" fill="#aabd00"/>
    <path id="Path_1319" data-name="Path 1319" d="M342.472,197.9H341.4a.441.441,0,0,1-.441-.441V197.2a.441.441,0,0,1,.441-.441h1.071a.441.441,0,0,1,.441.441v.258a.441.441,0,0,1-.441.441" transform="translate(-199.97 1107.44)" fill="#aabd00"/>
    <path id="Path_1320" data-name="Path 1320" d="M342.472,207.027H341.4a.441.441,0,0,1-.441-.441v-.258a.441.441,0,0,1,.441-.441h1.071a.441.441,0,0,1,.441.441v.258a.441.441,0,0,1-.441.441" transform="translate(-199.97 1100.636)" fill="#aabd00"/>
    <path id="Path_1321" data-name="Path 1321" d="M329.168,207.027H328.1a.441.441,0,0,1-.441-.441v-.258a.441.441,0,0,1,.441-.441h1.071a.441.441,0,0,1,.441.441v.258a.441.441,0,0,1-.441.441" transform="translate(-190.051 1100.636)" fill="#aabd00"/>
    <path id="Path_1322" data-name="Path 1322" d="M315.338,207.027h-1.071a.441.441,0,0,1-.441-.441v-.258a.441.441,0,0,1,.441-.441h1.071a.44.44,0,0,1,.441.441v.258a.441.441,0,0,1-.441.441" transform="translate(-179.74 1100.636)" fill="#aabd00"/>
    <path id="Path_1323" data-name="Path 1323" d="M301.564,207.027h-1.072a.441.441,0,0,1-.441-.441v-.258a.441.441,0,0,1,.441-.441h1.072a.441.441,0,0,1,.441.441v.258a.441.441,0,0,1-.441.441" transform="translate(-169.471 1100.636)" fill="#aabd00"/>
    <path id="Path_1324" data-name="Path 1324" d="M287.791,207.027H286.72a.441.441,0,0,1-.441-.441v-.258a.441.441,0,0,1,.441-.441h1.071a.441.441,0,0,1,.441.441v.258a.441.441,0,0,1-.441.441" transform="translate(-159.202 1100.636)" fill="#aabd00"/>
    <path id="Path_1325" data-name="Path 1325" d="M273.976,207.027H272.9a.441.441,0,0,1-.441-.441v-.258a.441.441,0,0,1,.441-.441h1.071a.441.441,0,0,1,.441.441v.258a.441.441,0,0,1-.441.441" transform="translate(-148.902 1100.636)" fill="#aabd00"/>
    <path id="Path_1326" data-name="Path 1326" d="M260.16,207.027h-1.071a.441.441,0,0,1-.441-.441v-.258a.441.441,0,0,1,.441-.441h1.071a.44.44,0,0,1,.441.441v.258a.441.441,0,0,1-.441.441" transform="translate(-138.601 1100.636)" fill="#aabd00"/>
    <path id="Path_1327" data-name="Path 1327" d="M300.341,141.463H298.2a.377.377,0,1,1,0-.755h2.143a.377.377,0,0,1,0,.755" transform="translate(-167.807 1149.236)" fill="#aabd00"/>
    <rect id="Rectangle_71" data-name="Rectangle 71" width="21.833" height="13.019" transform="translate(121.11 1271.747)" fill="none" stroke="#f27c00" stroke-miterlimit="10" stroke-width="1"/>
    <path id="Path_1328" data-name="Path 1328" d="M262.826,69.18l10.321,8.137,11.511-8.137Z" transform="translate(-141.716 1202.569)" fill="none" stroke="#f27c00" stroke-miterlimit="10" stroke-width="1"/>
    <path id="Path_1329" data-name="Path 1329" d="M262.826,87.352l4.776-3.374,5.546,4.372,5.756-4.069,5.756,3.461" transform="translate(-141.716 1191.535)" fill="none" stroke="#f27c00" stroke-miterlimit="10" stroke-width="1"/>
    <text id="_2" data-name="2" transform="translate(101.776 1304.875)" fill="#2a2929" font-size="12" font-family="SegoeUI, Segoe UI"><tspan x="0" y="0">2</tspan></text>
    <path id="Path_1330" data-name="Path 1330" d="M463.826,10.157a4.977,4.977,0,0,1,1.607,3.243,1.282,1.282,0,0,1-1.607,1.41s-1.8.141-.536,1.692,5.951,6.064,5.951,6.064,1.213,1.128,1.608-.451.508-1.89,1.184-1.861a6.984,6.984,0,0,1,3.1,1.128c.451.508.508,1.043.113,2.341a5.148,5.148,0,0,1-1.72,2.256s8.743.282,5.7-11.648-18.177-8.207-19.961-5.753-6.014,5.415-4.322,12.861,9.222,9.307,10.492,9.392,2.51-.028,2.708.762-.282,1.29-2.059,1.139-11.2-2.408-12.748-11.348,5.274-15.23,9.082-16.471,10.914-1.72,15.145,3.525,4.428,9.138,3.3,13.679-6.12,6.91-10.774,5.048-10.294-9.448-10.294-9.448-1.523-3.187-.226-5.3,3.658-2.92,4.259-2.256" transform="translate(-283.585 1251.092)" fill="#aabd00"/>
    <path id="Path_1331" data-name="Path 1331" d="M510.111,21.206v1.481s4.04.042,5.965,2.306,2.306,3.152,2.475,4.4.211,1.946.211,1.946h1.417s.381-2.327-1.629-5.563a10.574,10.574,0,0,0-8.44-4.569" transform="translate(-326.083 1238.339)" fill="#aabd00"/>
    <path id="Path_1332" data-name="Path 1332" d="M510.111,31.431v1.1s2.987.032,4.41,1.714,1.7,2.342,1.829,3.27.157,1.446.157,1.446h1.047a6.576,6.576,0,0,0-1.2-4.135,7.8,7.8,0,0,0-6.239-3.4" transform="translate(-326.083 1230.715)" fill="#aabd00"/>
    <text id="_3" data-name="3" transform="translate(163.432 1280.592)" fill="#2a2929" font-size="12" font-family="SegoeUI, Segoe UI"><tspan x="0" y="0">3</tspan></text>
    <path id="Path_1333" data-name="Path 1333" d="M609.153,47.588a2.416,2.416,0,0,0-2.864,2.559c-.2,3.06,0,22.328,0,22.328s-.456,1.953,1.953,2.018,35.217,0,35.217,0,1.758-.065,1.823-2.539,0-22.393,0-22.393a2.179,2.179,0,0,0-2.474-1.973Z" transform="translate(-397.726 1218.688)" fill="#2a2929"/>
    <path id="Path_1334" data-name="Path 1334" d="M617.372,54.583a2.146,2.146,0,0,0-2.565,2.174c-.175,2.6,0,18.971,0,18.971s-.408,1.659,1.749,1.715,31.537,0,31.537,0,1.574-.055,1.632-2.157,0-19.026,0-19.026-.058-1.676-2.215-1.676Z" transform="translate(-404.084 1213.469)" fill="#fff"/>
    <rect id="Rectangle_74" data-name="Rectangle 74" width="37.3" height="4.557" transform="translate(209.539 1287.385)" fill="#2a2929"/>
    <path id="Path_1335" data-name="Path 1335" d="M654.862,153.534s-.26,3.291-.391,4.072-.586.846-.586.846h-2.734s-.716.976,0,.976h15.688s.716-1.139,0-1.155-2.669,0-2.669,0-.347.049-.412-.928-.3-3.812-.3-3.812Z" transform="translate(-431.001 1139.672)" fill="#2a2929"/>
    <path id="Path_1336" data-name="Path 1336" d="M620.568,185.691h-4.915s-.879-.325-1.269,1.2-1.92,5.924-1.92,5.924-.651,1.777,1.888,1.777H646.9a1.451,1.451,0,0,0,1.465-1.843c-.358-1.823-1.953-6.249-1.953-6.249a2,2,0,0,0-1.855-.843c-1.334.062-23.988.029-23.988.029" transform="translate(-402.339 1115.718)" fill="#2a2929"/>
    <path id="Path_1337" data-name="Path 1337" d="M640.164,197.286h-1.072a.441.441,0,0,1-.441-.441v-.258a.441.441,0,0,1,.441-.441h1.072a.44.44,0,0,1,.441.441v.258a.441.441,0,0,1-.441.441" transform="translate(-421.919 1107.899)" fill="#aabd00"/>
    <path id="Path_1338" data-name="Path 1338" d="M653.639,197.286h-1.071a.441.441,0,0,1-.441-.441v-.258a.44.44,0,0,1,.441-.441h1.071a.441.441,0,0,1,.441.441v.258a.441.441,0,0,1-.441.441" transform="translate(-431.966 1107.899)" fill="#aabd00"/>
    <path id="Path_1339" data-name="Path 1339" d="M667.454,197.286h-1.071a.441.441,0,0,1-.441-.441v-.258a.441.441,0,0,1,.441-.441h1.071a.441.441,0,0,1,.441.441v.258a.441.441,0,0,1-.441.441" transform="translate(-442.266 1107.899)" fill="#aabd00"/>
    <path id="Path_1340" data-name="Path 1340" d="M681.356,197.286h-1.071a.441.441,0,0,1-.441-.441v-.258a.441.441,0,0,1,.441-.441h1.071a.441.441,0,0,1,.441.441v.258a.441.441,0,0,1-.441.441" transform="translate(-452.631 1107.899)" fill="#aabd00"/>
    <path id="Path_1341" data-name="Path 1341" d="M695,197.286H693.93a.441.441,0,0,1-.441-.441v-.258a.441.441,0,0,1,.441-.441H695a.441.441,0,0,1,.441.441v.258a.441.441,0,0,1-.441.441" transform="translate(-462.804 1107.899)" fill="#aabd00"/>
    <path id="Path_1342" data-name="Path 1342" d="M708.831,197.286H707.76a.441.441,0,0,1-.441-.441v-.258a.44.44,0,0,1,.441-.441h1.071a.441.441,0,0,1,.441.441v.258a.441.441,0,0,1-.441.441" transform="translate(-473.115 1107.899)" fill="#aabd00"/>
    <path id="Path_1345" data-name="Path 1345" d="M708.831,206.411H707.76a.441.441,0,0,1-.441-.441v-.258a.44.44,0,0,1,.441-.441h1.071a.441.441,0,0,1,.441.441v.258a.441.441,0,0,1-.441.441" transform="translate(-473.115 1101.095)" fill="#aabd00"/>
    <path id="Path_1346" data-name="Path 1346" d="M695,206.411H693.93a.441.441,0,0,1-.441-.441v-.258a.441.441,0,0,1,.441-.441H695a.441.441,0,0,1,.441.441v.258a.441.441,0,0,1-.441.441" transform="translate(-462.804 1101.095)" fill="#aabd00"/>
    <path id="Path_1347" data-name="Path 1347" d="M681.228,206.411h-1.071a.441.441,0,0,1-.441-.441v-.258a.441.441,0,0,1,.441-.441h1.071a.44.44,0,0,1,.441.441v.258a.441.441,0,0,1-.441.441" transform="translate(-452.535 1101.095)" fill="#aabd00"/>
    <path id="Path_1348" data-name="Path 1348" d="M667.454,206.411h-1.071a.441.441,0,0,1-.441-.441v-.258a.441.441,0,0,1,.441-.441h1.071a.441.441,0,0,1,.441.441v.258a.441.441,0,0,1-.441.441" transform="translate(-442.266 1101.095)" fill="#aabd00"/>
    <path id="Path_1349" data-name="Path 1349" d="M653.639,206.411h-1.071a.441.441,0,0,1-.441-.441v-.258a.44.44,0,0,1,.441-.441h1.071a.441.441,0,0,1,.441.441v.258a.441.441,0,0,1-.441.441" transform="translate(-431.966 1101.095)" fill="#aabd00"/>
    <path id="Path_1350" data-name="Path 1350" d="M639.823,206.411h-1.071a.441.441,0,0,1-.441-.441v-.258a.441.441,0,0,1,.441-.441h1.071a.441.441,0,0,1,.441.441v.258a.441.441,0,0,1-.441.441" transform="translate(-421.665 1101.095)" fill="#aabd00"/>
    <path id="Path_1351" data-name="Path 1351" d="M680,140.847h-2.143a.377.377,0,1,1,0-.755H680a.377.377,0,1,1,0,.755" transform="translate(-450.871 1149.696)" fill="#aabd00"/>
    <rect id="Rectangle_75" data-name="Rectangle 75" width="21.833" height="13.019" transform="translate(217.709 1271.591)" fill="none" stroke="#f27c00" stroke-miterlimit="10" stroke-width="1"/>
    <path id="Path_1352" data-name="Path 1352" d="M642.489,68.564,652.811,76.7l11.511-8.137Z" transform="translate(-424.78 1203.028)" fill="none" stroke="#f27c00" stroke-miterlimit="10" stroke-width="1"/>
    <path id="Path_1353" data-name="Path 1353" d="M642.489,86.735l4.776-3.374,5.546,4.372,5.755-4.069,5.756,3.461" transform="translate(-424.78 1191.995)" fill="none" stroke="#f27c00" stroke-miterlimit="10" stroke-width="1"/>
    <text id="_4" data-name="4" transform="translate(197.812 1304.982)" fill="#2a2929" font-size="12" font-family="SegoeUI, Segoe UI"><tspan x="0" y="0">4</tspan></text>
  </g>
</svg>
