<svg xmlns="http://www.w3.org/2000/svg" width="218.997" height="60.552" viewBox="0 0 218.997 60.552">
  <g id="Group_1530" data-name="Group 1530" transform="translate(-147.027 -1379.237)">
    <path id="Path_1356" data-name="Path 1356" d="M422,418.307H404.871a5.7,5.7,0,0,1-5.7-5.7V395.154a5.7,5.7,0,0,1,5.7-5.7H422a5.7,5.7,0,0,1,5.7,5.7v17.454a5.7,5.7,0,0,1-5.7,5.7" transform="translate(-243.372 991.474)" fill="#f27c00"/>
    <rect id="Rectangle_78" data-name="Rectangle 78" width="24.591" height="14.236" transform="translate(157.766 1389.145)" fill="#fff"/>
    <path id="Path_1357" data-name="Path 1357" d="M428.848,467.069H409.537a2.64,2.64,0,0,1-2.64-2.64v-4.147a2.64,2.64,0,0,1,2.64-2.64h19.311a2.64,2.64,0,0,1,2.64,2.64v4.147a2.64,2.64,0,0,1-2.64,2.64" transform="translate(-249.131 940.636)" fill="#fff"/>
    <path id="Path_1358" data-name="Path 1358" d="M406.9,401.838s.081-3.536,2.219-3.939,20.044-.179,20.044-.179a3.743,3.743,0,0,1,2.149,2.778c.134,1.878,0,1.564,0,1.564H406.9Z" transform="translate(-249.131 985.363)" fill="#fff"/>
    <path id="Path_1359" data-name="Path 1359" d="M419.365,391.109h-.2a1.17,1.17,0,0,1-1.17-1.17v-3.7a1.17,1.17,0,0,1,1.17-1.17h.2a1.17,1.17,0,0,1,1.17,1.17v3.7a1.17,1.17,0,0,1-1.17,1.17" transform="translate(-257.404 994.751)" fill="#2a2929"/>
    <path id="Path_1360" data-name="Path 1360" d="M436.028,391.109h-.2a1.17,1.17,0,0,1-1.17-1.17v-3.7a1.17,1.17,0,0,1,1.17-1.17h.2a1.17,1.17,0,0,1,1.17,1.17v3.7a1.17,1.17,0,0,1-1.17,1.17" transform="translate(-269.828 994.751)" fill="#2a2929"/>
    <path id="Path_1361" data-name="Path 1361" d="M453.179,391.109h-.2a1.17,1.17,0,0,1-1.17-1.17v-3.7a1.17,1.17,0,0,1,1.17-1.17h.2a1.17,1.17,0,0,1,1.17,1.17v3.7a1.17,1.17,0,0,1-1.17,1.17" transform="translate(-282.615 994.751)" fill="#2a2929"/>
    <path id="Path_1362" data-name="Path 1362" d="M471.561,391.109h-.2a1.17,1.17,0,0,1-1.17-1.17v-3.7a1.17,1.17,0,0,1,1.17-1.17h.2a1.17,1.17,0,0,1,1.17,1.17v3.7a1.17,1.17,0,0,1-1.17,1.17" transform="translate(-296.32 994.751)" fill="#2a2929"/>
    <path id="Path_1363" data-name="Path 1363" d="M488.657,391.109h-.2a1.17,1.17,0,0,1-1.17-1.17v-3.7a1.17,1.17,0,0,1,1.17-1.17h.2a1.17,1.17,0,0,1,1.17,1.17v3.7a1.17,1.17,0,0,1-1.17,1.17" transform="translate(-309.066 994.751)" fill="#2a2929"/>
    <rect id="Rectangle_79" data-name="Rectangle 79" width="3.145" height="3.145" transform="translate(162.887 1390.959)" fill="#aabd00"/>
    <rect id="Rectangle_80" data-name="Rectangle 80" width="3.145" height="3.145" transform="translate(168.437 1390.959)" fill="#aabd00"/>
    <rect id="Rectangle_81" data-name="Rectangle 81" width="3.145" height="3.145" transform="translate(174.092 1390.959)" fill="#aabd00"/>
    <rect id="Rectangle_82" data-name="Rectangle 82" width="3.145" height="3.145" transform="translate(162.887 1396.263)" fill="#aabd00"/>
    <rect id="Rectangle_83" data-name="Rectangle 83" width="3.145" height="3.145" transform="translate(168.437 1396.263)" fill="#aabd00"/>
    <rect id="Rectangle_84" data-name="Rectangle 84" width="3.145" height="3.145" transform="translate(174.092 1396.263)" fill="#aabd00"/>
    <rect id="Rectangle_85" data-name="Rectangle 85" width="3.145" height="3.145" transform="translate(162.887 1401.42)" fill="#aabd00"/>
    <rect id="Rectangle_86" data-name="Rectangle 86" width="3.145" height="3.145" transform="translate(168.437 1401.42)" fill="#aabd00"/>
    <rect id="Rectangle_87" data-name="Rectangle 87" width="3.145" height="3.145" transform="translate(174.092 1401.42)" fill="#aabd00"/>
    <path id="Path_1364" data-name="Path 1364" d="M1120.193,385.782l2.515,5.8s.258,1.032-.58,3.675-1.16,3.417-1.16,3.417l-5.223,14.765s.709,2.257.451,2.9a19.569,19.569,0,0,1-1.1,2l3.823,9.865.3,9.22-7.479-16.893-5.867,16.506-.838-8.833,3.432-9.994s-1.533-3.095,0-5.223,8.755-26.371,8.755-26.371.387-2.966,2.966-.838" transform="translate(-769.643 994.783)" fill="#aabd00"/>
    <path id="Path_1365" data-name="Path 1365" d="M1104.316,461.292l-1.884,5.838L1099.466,460s3.9,0,4.85,1.289" transform="translate(-765.486 938.876)" fill="#aabd00"/>
    <path id="Path_1366" data-name="Path 1366" d="M1086.542,394.288l1.805-4.384s1.354-1.483,2.321,0a22.8,22.8,0,0,1,1.87,4.384s-4.062-.645-6,0" transform="translate(-755.851 991.636)" fill="#aabd00"/>
    <path id="Path_1367" data-name="Path 1367" d="M1072.649,553.867a7.2,7.2,0,1,1-7.2-7.2,7.2,7.2,0,0,1,7.2,7.2" transform="translate(-734.761 874.254)" fill="#aabd00"/>
    <path id="Path_1368" data-name="Path 1368" d="M1078.377,564.411a3.6,3.6,0,1,1-3.6-3.6,3.6,3.6,0,0,1,3.6,3.6" transform="translate(-744.397 863.709)" fill="#fff"/>
    <path id="Path_1369" data-name="Path 1369" d="M1168.312,552.822a7.2,7.2,0,1,1-7.2-7.2,7.2,7.2,0,0,1,7.2,7.2" transform="translate(-806.084 875.768)" fill="#aabd00"/>
    <path id="Path_1370" data-name="Path 1370" d="M1174.04,563.366a3.6,3.6,0,1,1-3.6-3.6,3.6,3.6,0,0,1,3.6,3.6" transform="translate(-815.72 865.224)" fill="#fff"/>
    <path id="Path_1371" data-name="Path 1371" d="M1014.573,423v8.575s5.674.9,9.736-.516a37.811,37.811,0,0,0,7.415-3.63,7.326,7.326,0,0,1,4.449-1.012,14.721,14.721,0,0,1,5.545,1.547l2.9-7.866s-4-1.805-6.577-1.676-7.995.516-9.8,1.547-4.707,3.095-7.092,3.353a35.865,35.865,0,0,1-6.577-.322" transform="translate(-702.193 969.882)" fill="#f27c00"/>
    <path id="Path_1372" data-name="Path 1372" d="M1159.053,424.546s5.932.387,8.188-2.063,6.512-2.772,6.512-2.772v8.317a60.513,60.513,0,0,1-7.35,3.74,20.074,20.074,0,0,1-6.77,1.057c-2.837-.025-3.509,0-3.509,0Z" transform="translate(-807.729 978.052)" fill="#f27c00"/>
    <path id="Path_1381" data-name="Path 1381" d="M613.6,513.911H596.151a2.756,2.756,0,0,1-2.755-2.756V486.474a2.755,2.755,0,0,1,2.755-2.755H613.6a2.755,2.755,0,0,1,2.755,2.755v24.682a2.756,2.756,0,0,1-2.755,2.756" transform="translate(-388.178 921.189)" fill="#f27c00"/>
    <path id="Path_1382" data-name="Path 1382" d="M667.9,475.714l-3.683,3.387-8.165-7.508,3.683-3.387Z" transform="translate(-434.894 932.759)" fill="#fff"/>
    <path id="Path_1383" data-name="Path 1383" d="M602.048,576.842a17.607,17.607,0,0,0,2.633-1.82c.393-.328.761-.681,1.129-1.036a1.442,1.442,0,0,1,.983-.547l-.561-.561q-.048,1.55-.1,3.1a.565.565,0,0,0,.844.484l2.343-1.519c.225-.146.467-.42.706-.209.27.237.478.515.77.734a3.987,3.987,0,0,0,4,.364.565.565,0,0,0,.2-.768.574.574,0,0,0-.767-.2,2.772,2.772,0,0,1-1.762.152,3,3,0,0,1-1.552-.979,1.491,1.491,0,0,0-.979-.518,1.9,1.9,0,0,0-1.128.422l-2.4,1.553.844.484.1-3.1a.57.57,0,0,0-.561-.561c-1.106-.028-1.815.956-2.564,1.619a16.036,16.036,0,0,1-2.747,1.938.561.561,0,0,0,.566.969" transform="translate(-394.002 855.133)" fill="#fff"/>
    <path id="Path_1384" data-name="Path 1384" d="M653.21,483.711v6.672l.945.865h7.465V484.9l-6.966-1.193Z" transform="translate(-432.773 921.201)" fill="#fff"/>
    <path id="Path_1385" data-name="Path 1385" d="M657.3,483.708s-.511,0-.53.818,0,4.89,0,4.89-.143.433.53.519,6.087.173,6.087.173a.615.615,0,0,0,.33-.389c.047-.26-6.416-6.011-6.416-6.011" transform="translate(-435.414 921.201)" fill="#f27c00"/>
    <path id="Path_1386" data-name="Path 1386" d="M689.469,515.668l4.142,3.679,1.742-1.839s1.083-2.272-.706-3.138a4.5,4.5,0,0,0-3.248-.346Z" transform="translate(-459.807 898.712)" fill="none" stroke="#aabd00" stroke-miterlimit="10" stroke-width="1"/>
    <path id="Path_1387" data-name="Path 1387" d="M654.341,520.43l-9.03,8.785a2.757,2.757,0,0,0-.967,1.9c-.005,1.125,0,3.109,0,3.109a1.483,1.483,0,0,0,1.411.959,36.96,36.96,0,0,0,4.132-.216,5.434,5.434,0,0,0,1.7-1.125c.941-.866,2.872-2.553,2.872-2.553Z" transform="translate(-426.161 893.819)" fill="#fff" stroke="rgba(0,0,0,0)" stroke-width="1"/>
    <path id="Path_1388" data-name="Path 1388" d="M614.663,508.032H605.54a.429.429,0,0,1-.429-.429v-.18a.429.429,0,0,1,.429-.429h9.123a.429.429,0,0,1,.429.429v.18a.429.429,0,0,1-.429.429" transform="translate(-396.912 903.84)" fill="#fff"/>
    <path id="Path_1389" data-name="Path 1389" d="M615.062,522.958h-9.123a.429.429,0,0,1-.429-.429v-.18a.429.429,0,0,1,.429-.429h9.123a.429.429,0,0,1,.429.429v.18a.429.429,0,0,1-.429.429" transform="translate(-397.21 892.711)" fill="#fff"/>
    <path id="Path_1390" data-name="Path 1390" d="M615.062,537.884h-9.123a.429.429,0,0,1-.429-.429v-.18a.429.429,0,0,1,.429-.429h9.123a.429.429,0,0,1,.429.429v.18a.429.429,0,0,1-.429.429" transform="translate(-397.21 881.582)" fill="#fff"/>
    <path id="Path_1391" data-name="Path 1391" d="M659.151,524.633l4.11,3.561-9.223,8.612-3.743.518s-.435.218-.395-.388.315-3.678.315-3.678Z" transform="translate(-430.305 890.685)" fill="none" stroke="#aabd00" stroke-miterlimit="10" stroke-width="1"/>
    <path id="Path_1392" data-name="Path 1392" d="M615.062,552.81h-9.123a.429.429,0,0,1-.429-.429v-.18a.429.429,0,0,1,.429-.429h9.123a.429.429,0,0,1,.429.429v.18a.429.429,0,0,1-.429.429" transform="translate(-397.21 870.452)" fill="#fff"/>
    <path id="Path_1394" data-name="Path 1394" d="M779.811,418.756H773.42v3.334h25.611v-3.334h-3.2a13.553,13.553,0,0,0-2.288-8.826,8.761,8.761,0,0,0-8.041-3.53s-9.218-.457-8.891,11.637l.011.577" transform="translate(-522.398 978.879)" fill="none" stroke="#f27c00" stroke-miterlimit="10" stroke-width="1"/>
    <line id="Line_14" data-name="Line 14" x1="13.664" transform="translate(259.766 1397.634)" fill="none" stroke="#f27c00" stroke-miterlimit="10" stroke-width="1"/>
    <path id="Path_1395" data-name="Path 1395" d="M814.211,413.084V405.43s.022-.624.479-.6,4.228,0,4.228,0a1.227,1.227,0,0,1,.349.48c.067.243.141,7.954.141,7.954" transform="translate(-552.81 980.017)" fill="none" stroke="#f27c00" stroke-miterlimit="10" stroke-width="1"/>
    <path id="Path_1396" data-name="Path 1396" d="M852.252,391.1l5.554-5.535,13.667,13.6" transform="translate(-581.172 994.381)" fill="none" stroke="#aabd00" stroke-miterlimit="10" stroke-width="1"/>
    <path id="Path_1397" data-name="Path 1397" d="M855.156,439.007v13.38s.479,1.918-1.743,1.918H837.461A2.351,2.351,0,0,1,835.8,452c.043-1.831,0-5.339,0-5.339" transform="translate(-568.909 954.53)" fill="none" stroke="#aabd00" stroke-miterlimit="10" stroke-width="1"/>
    <path id="Path_1398" data-name="Path 1398" d="M891.731,392.84v-3.51h3.51V396" transform="translate(-610.606 991.572)" fill="none" stroke="#aabd00" stroke-miterlimit="10" stroke-width="1"/>
    <path id="Path_1399" data-name="Path 1399" d="M907.457,539.46a18.767,18.767,0,0,0,5.991,3.3,9.114,9.114,0,0,0,3.622.185,14.167,14.167,0,0,0,1.815-.384,3.379,3.379,0,0,0,1.581-.69,1.9,1.9,0,0,0-.169-2.557,4.094,4.094,0,0,0-1.336-.882,2.733,2.733,0,0,0-1.619-.363,1.2,1.2,0,0,0-.971,1,1.043,1.043,0,0,0,.753,1.068,7.643,7.643,0,0,0,1.7.323c.623.084,1.249.145,1.877.178a23.1,23.1,0,0,0,8.275-1.082c.509-.164.291-.97-.222-.8a22.326,22.326,0,0,1-6.1,1.071,22.618,22.618,0,0,1-3.13-.112q-.768-.081-1.528-.22c-.176-.032-.93-.1-.759-.418.216-.405.878-.1,1.169.022a4.3,4.3,0,0,1,1.127.642c.556.482.828,1.449-.029,1.771a9.731,9.731,0,0,1-5.985.409,18.669,18.669,0,0,1-5.637-3.169c-.435-.316-.852.408-.421.72" transform="translate(-622.196 880.691)" fill="#f27c00"/>
    <path id="Path_1400" data-name="Path 1400" d="M979.075,537.376l2-2.7a2.214,2.214,0,0,0,.412-.6.727.727,0,0,0-.162-.575,1.346,1.346,0,0,0-.933-.48,7.919,7.919,0,0,0-1.391,0l-1.632.059-3.389.122c-.535.019-.538.854,0,.835l3.828-.138,1.883-.068c.25-.009.908-.091.991.243l.042-.322-2.37,3.2c-.32.432.4.848.72.421" transform="translate(-671.629 884.457)" fill="#f27c00"/>
    <path id="Path_1403" data-name="Path 1403" d="M445.973,521.954c1.211.074,2.422.147,3.632.228a5.9,5.9,0,0,1,3.022.717,3.052,3.052,0,0,1,1.3,2.2c.056.646-.069,1.77-.76,2.083a.668.668,0,0,1-.738-.248,1.29,1.29,0,0,1-.314-1.107,1.536,1.536,0,0,1,1.875-1.2,4.465,4.465,0,0,1,2.265,1.654c.653.773,1.23,1.616,1.957,2.324a4.8,4.8,0,0,0,2.959,1.412,6.523,6.523,0,0,0,3.4-.76c.521-.255.065-1.033-.455-.779a5.219,5.219,0,0,1-3.372.568,5,5,0,0,1-2.671-1.944,15.34,15.34,0,0,0-2.3-2.57,3.224,3.224,0,0,0-2.967-.722,2.445,2.445,0,0,0-1.583,2.576,1.9,1.9,0,0,0,1.992,1.717c.961-.163,1.453-1.254,1.579-2.114a3.954,3.954,0,0,0-.831-3.067,4.7,4.7,0,0,0-3.391-1.573c-1.526-.149-3.065-.207-4.6-.3-.58-.035-.578.867,0,.9" transform="translate(-277.941 893.357)" fill="#f27c00"/>
    <path id="Path_1404" data-name="Path 1404" d="M510.021,543.538l4.779-.191c.144-.006.5-.1.541.078.057.249-.288.61-.424.782a13.177,13.177,0,0,1-1.51,1.6c-.433.389.207,1.025.638.638a12.88,12.88,0,0,0,1.807-1.988c.442-.607.637-1.686-.279-1.973a3.517,3.517,0,0,0-1.167-.027l-1.462.059-2.924.117c-.579.023-.582.925,0,.9" transform="translate(-325.692 877.421)" fill="#f27c00"/>
    <path id="Path_1405" data-name="Path 1405" d="M605.938,432.242a21.135,21.135,0,0,1,4.922-2.935,8.232,8.232,0,0,1,2.853-.541,11.466,11.466,0,0,1,3.126.495c.374.106.964.185,1.176.552a1.043,1.043,0,0,1-.02.94,2.112,2.112,0,0,1-.942.856,3.561,3.561,0,0,1-1.271.5c-.266.024-.781-.262-.356-.46a4.984,4.984,0,0,1,1.325-.266,21.754,21.754,0,0,1,3.13-.229,22.366,22.366,0,0,1,6.93,1.083c.512.165.732-.64.222-.8a22.982,22.982,0,0,0-11.088-.759,2.02,2.02,0,0,0-1.315.557,1,1,0,0,0,.119,1.336c.8.826,2.2.119,2.985-.39a2.233,2.233,0,0,0,1.139-2.463,1.6,1.6,0,0,0-1.042-1.017,12.439,12.439,0,0,0-1.759-.488,10.054,10.054,0,0,0-3.723-.162c-2.572.411-4.773,1.983-6.833,3.475-.431.312-.015,1.036.421.721" transform="translate(-397.079 962.784)" fill="#f27c00"/>
    <path id="Path_1406" data-name="Path 1406" d="M676.415,435.308l2.37,3.2-.042-.322c-.079.32-.682.253-.928.245-.649-.022-1.3-.047-1.945-.07l-3.828-.138c-.537-.019-.536.815,0,.835l3.389.122,1.631.059a7.916,7.916,0,0,0,1.391,0,1.348,1.348,0,0,0,.932-.48.727.727,0,0,0,.162-.575,2.144,2.144,0,0,0-.412-.6l-2-2.7c-.316-.427-1.04-.011-.72.421" transform="translate(-446.513 957.737)" fill="#f27c00"/>
    <text id="_9" data-name="9" transform="translate(147.027 1409.382)" fill="#2a2929" font-size="12" font-family="SegoeUI, Segoe UI"><tspan x="0" y="0">9</tspan></text>
    <text id="_10" data-name="10" transform="translate(193.976 1435.043)" fill="#2a2929" font-size="12" font-family="SegoeUI, Segoe UI"><tspan x="0" y="0">10</tspan></text>
    <text id="_11" data-name="11" transform="translate(243.797 1411.748)" fill="#2a2929" font-size="12" font-family="SegoeUI, Segoe UI"><tspan x="0" y="0">11</tspan></text>
    <text id="_12" data-name="12" transform="translate(308.797 1436.789)" fill="#2a2929" font-size="12" font-family="SegoeUI, Segoe UI"><tspan x="0" y="0">12</tspan></text>
  </g>
</svg>
