<svg xmlns="http://www.w3.org/2000/svg" width="205.119" height="61.874" viewBox="0 0 205.119 61.874">
  <g id="Group_1529" data-name="Group 1529" transform="translate(-262.699 -1254.148)">
    <path id="Path_1354" data-name="Path 1354" d="M968.365,17.231h5s-1.046,5.143,2.441,4.664,2.558-4.664,2.558-4.664h7.673V39.476h-7.789s1.163,4.545-2.209,4.664c0,0-3.471.478-3.247-4.425l-7.8-.12v-8.9s-4.069,1.847-4.651-2.219,4.651-2.512,4.651-2.512V17.231Z" transform="translate(-665.515 1241.3)" fill="#aabd00"/>
    <path id="Path_1355" data-name="Path 1355" d="M878.136,8.3v5.143s-5-1.076-4.534,2.512,4.534,2.631,4.534,2.631v7.894H856.512V18.464s-4.418,1.2-4.534-2.272c0,0-.465-3.57,4.3-3.34L856.4,4.83h8.655s-1.8-4.186,2.157-4.784,2.442,4.784,2.442,4.784h8.487Z" transform="translate(-584.745 1254.148)" fill="#f27c00"/>
    <text id="_5" data-name="5" transform="translate(262.699 1285.315)" fill="#2a2929" font-size="12" font-family="SegoeUI, Segoe UI"><tspan x="0" y="0">5</tspan></text>
    <path id="Rectangle_98" data-name="Rectangle 98" d="M6.407,0H22.3A6.406,6.406,0,0,1,28.7,6.406V29.077A6.407,6.407,0,0,1,22.3,35.484H6.407A6.407,6.407,0,0,1,0,29.077V6.407A6.407,6.407,0,0,1,6.407,0Z" transform="translate(346.89 1274.356)" fill="none" stroke="#aabd00" stroke-miterlimit="10" stroke-width="1"/>
    <path id="Path_1393" data-name="Path 1393" d="M1124.121,58.916s-.66-1.435,1.684-2.271,15.349-6.766,15.349-6.766,1.6-.526,1.721,1.028a25.7,25.7,0,0,1,0,3.251l2.821-.311s1.148.359,1.124,1.291,0,2.2,0,2.2" transform="translate(-775.465 1217.023)" fill="none" stroke="#aabd00" stroke-miterlimit="10" stroke-width="1"/>
    <line id="Line_13" data-name="Line 13" y1="3.18" x2="14.25" transform="translate(353.161 1271.182)" fill="none" stroke="#aabd00" stroke-miterlimit="10" stroke-width="1"/>
    <path id="Rectangle_99" data-name="Rectangle 99" d="M5.961,0h9.214a5.96,5.96,0,0,1,5.96,5.96v.512a5.961,5.961,0,0,1-5.961,5.961H5.961A5.961,5.961,0,0,1,0,6.472V5.961A5.961,5.961,0,0,1,5.961,0Z" transform="translate(350.81 1278.088)" fill="none" stroke="#aabd00" stroke-miterlimit="10" stroke-width="1"/>
    <rect id="Rectangle_100" data-name="Rectangle 100" width="20.849" height="1.339" rx="0.669" transform="translate(351.097 1301.037)" fill="none" stroke="#aabd00" stroke-miterlimit="10" stroke-width="1"/>
    <rect id="Rectangle_101" data-name="Rectangle 101" width="20.849" height="1.339" rx="0.669" transform="translate(351.097 1304.575)" fill="none" stroke="#aabd00" stroke-miterlimit="10" stroke-width="1"/>
    <text id="_6" data-name="6" transform="translate(334.233 1313.022)" fill="#2a2929" font-size="12" font-family="SegoeUI, Segoe UI"><tspan x="0" y="0">6</tspan></text>
    <path id="Path_1413" data-name="Path 1413" d="M994.215,132.621q1.775.4,3.548.81a6.121,6.121,0,0,1,2.82,1.117,3.1,3.1,0,0,1,1.026,2.414c-.028.661-.341,1.774-1.079,1.986-.323.093-.6-.177-.741-.437a1.3,1.3,0,0,1-.023-1.215,1.55,1.55,0,0,1,2.144-.658,5.01,5.01,0,0,1,1.913,2.11,22.093,22.093,0,0,0,1.581,2.588,4.64,4.64,0,0,0,2.687,1.734,6.662,6.662,0,0,0,3.306-.22.451.451,0,0,0-.24-.87,5.473,5.473,0,0,1-3.243.11,4.452,4.452,0,0,1-2.36-2.126,23.9,23.9,0,0,0-1.841-2.99,3.515,3.515,0,0,0-2.7-1.443,2.456,2.456,0,0,0-2.268,2.11,1.955,1.955,0,0,0,1.576,2.226c1.023.068,1.718-.972,2-1.824a3.943,3.943,0,0,0-.35-3.212,4.721,4.721,0,0,0-3.049-2.05c-1.475-.388-2.974-.693-4.461-1.029-.566-.128-.807.742-.24.87" transform="translate(-683.001 1156.922)" fill="#f27c00"/>
    <path id="Path_1414" data-name="Path 1414" d="M1053.953,164.843l4.692.574a2.163,2.163,0,0,1,.416.062c.107.035.076.017.09.092.045.237-.381.56-.524.691a12.511,12.511,0,0,1-1.735,1.341c-.487.312-.035,1.094.455.779a12.977,12.977,0,0,0,2.11-1.663,1.784,1.784,0,0,0,.588-1.063.954.954,0,0,0-.508-.956,3.769,3.769,0,0,0-1.229-.225l-1.452-.178-2.9-.355a.454.454,0,0,0-.451.451.462.462,0,0,0,.451.451" transform="translate(-727.445 1132.914)" fill="#f27c00"/>
    <g id="Group_1528" data-name="Group 1528" transform="translate(333.631 -119.592)">
      <path id="Path_1373" data-name="Path 1373" d="M60.277,415.363a3.149,3.149,0,0,1,2.942-2.439s21.3.3,25.359,0,3.516-2.823,3.516-2.823.068-18.05,0-20.067-3.313-2.37-3.313-2.37H85.264v5.042l-20.558-.2s-.406-.2-2.434.252a2.383,2.383,0,0,0-2.029,2.218s-.2,20.369,0,21.932,2.84,1.916,2.84,1.916H66.8l-.034-5.748" transform="translate(9.39 990.81)" fill="none" stroke="#f27c00" stroke-miterlimit="10" stroke-width="1"/>
      <path id="Path_1374" data-name="Path 1374" d="M165.68,424.08s-.037-.807-1.676-1.664-5.157-.618-5.157-.618V407.48" transform="translate(-64.193 976.037)" fill="none" stroke="#f27c00" stroke-miterlimit="10" stroke-width="1"/>
      <rect id="Rectangle_88" data-name="Rectangle 88" width="8.893" height="3.731" transform="translate(72.304 1387.006)" fill="none" stroke="#f27c00" stroke-miterlimit="10" stroke-width="1"/>
      <path id="Path_1375" data-name="Path 1375" d="M125.688,415.094h-8.279a.29.29,0,1,1,0-.58h8.279a.29.29,0,0,1,0,.58Z" transform="translate(-33.082 972.795)" fill="none" stroke="#f27c00" stroke-miterlimit="10" stroke-width="1"/>
      <path id="Path_1376" data-name="Path 1376" d="M125.688,425.5h-8.279a.29.29,0,1,1,0-.58h8.279a.29.29,0,0,1,0,.58Z" transform="translate(-33.082 965.038)" fill="none" stroke="#f27c00" stroke-miterlimit="10" stroke-width="1"/>
      <path id="Path_1377" data-name="Path 1377" d="M124.592,435.9h-8.279a.29.29,0,1,1,0-.58h8.279a.29.29,0,0,1,0,.58Z" transform="translate(-32.265 957.281)" fill="none" stroke="#f27c00" stroke-miterlimit="10" stroke-width="1"/>
      <path id="Path_1378" data-name="Path 1378" d="M124.592,446.3h-8.279a.29.29,0,1,1,0-.58h8.279a.29.29,0,0,1,0,.58Z" transform="translate(-32.265 949.524)" fill="none" stroke="#f27c00" stroke-miterlimit="10" stroke-width="1"/>
      <path id="Path_1379" data-name="Path 1379" d="M79.641,446.3H71.362a.29.29,0,1,1,0-.58h8.279a.29.29,0,0,1,0,.58Z" transform="translate(1.249 949.524)" fill="none" stroke="#f27c00" stroke-miterlimit="10" stroke-width="1"/>
      <path id="Path_1380" data-name="Path 1380" d="M79.641,435.9H71.362a.29.29,0,1,1,0-.58h8.279a.29.29,0,0,1,0,.58Z" transform="translate(1.249 957.281)" fill="none" stroke="#f27c00" stroke-miterlimit="10" stroke-width="1"/>
      <path id="Rectangle_89" data-name="Rectangle 89" d="M.29,0H5.672a.29.29,0,0,1,.29.29v0a.29.29,0,0,1-.29.29H.29A.29.29,0,0,1,0,.29v0A.29.29,0,0,1,.29,0Z" transform="translate(79.177 1397.762)" fill="none" stroke="#f27c00" stroke-miterlimit="10" stroke-width="1"/>
      <path id="Rectangle_90" data-name="Rectangle 90" d="M.29,0H5.672a.29.29,0,0,1,.29.29v0a.29.29,0,0,1-.29.29H.29A.29.29,0,0,1,0,.29v0A.29.29,0,0,1,.29,0Z" transform="translate(87.242 1397.762)" fill="none" stroke="#f27c00" stroke-miterlimit="10" stroke-width="1"/>
      <path id="Rectangle_91" data-name="Rectangle 91" d="M.29,0H5.672a.29.29,0,0,1,.29.29v0a.29.29,0,0,1-.29.29H.29A.29.29,0,0,1,0,.29v0A.29.29,0,0,1,.29,0Z" transform="translate(71.772 1397.762)" fill="none" stroke="#f27c00" stroke-miterlimit="10" stroke-width="1"/>
      <path id="Rectangle_92" data-name="Rectangle 92" d="M.29,0H5.672a.29.29,0,0,1,.29.29v0a.29.29,0,0,1-.29.29H.29A.29.29,0,0,1,0,.29v0A.29.29,0,0,1,.29,0Z" transform="translate(71.772 1398.393)" fill="none" stroke="#f27c00" stroke-miterlimit="10" stroke-width="1"/>
      <path id="Rectangle_93" data-name="Rectangle 93" d="M.29,0H5.672a.29.29,0,0,1,.29.29v0a.29.29,0,0,1-.29.29H.29A.29.29,0,0,1,0,.29v0A.29.29,0,0,1,.29,0Z" transform="translate(79.177 1398.393)" fill="none" stroke="#f27c00" stroke-miterlimit="10" stroke-width="1"/>
      <path id="Rectangle_94" data-name="Rectangle 94" d="M.29,0H5.672a.29.29,0,0,1,.29.29v0a.29.29,0,0,1-.29.29H.29A.29.29,0,0,1,0,.29v0A.29.29,0,0,1,.29,0Z" transform="translate(87.089 1398.393)" fill="none" stroke="#f27c00" stroke-miterlimit="10" stroke-width="1"/>
      <path id="Rectangle_95" data-name="Rectangle 95" d="M.29,0H5.672a.29.29,0,0,1,.29.29v0a.29.29,0,0,1-.29.29H.29A.29.29,0,0,1,0,.29v0A.29.29,0,0,1,.29,0Z" transform="translate(87.242 1401.024)" fill="none" stroke="#f27c00" stroke-miterlimit="10" stroke-width="1"/>
      <path id="Rectangle_96" data-name="Rectangle 96" d="M.29,0H5.672a.29.29,0,0,1,.29.29v0a.29.29,0,0,1-.29.29H.29A.29.29,0,0,1,0,.29v0A.29.29,0,0,1,.29,0Z" transform="translate(79.177 1401.024)" fill="none" stroke="#f27c00" stroke-miterlimit="10" stroke-width="1"/>
      <path id="Rectangle_97" data-name="Rectangle 97" d="M.29,0H5.672a.29.29,0,0,1,.29.29v0a.29.29,0,0,1-.29.29H.29A.29.29,0,0,1,0,.29v0A.29.29,0,0,1,.29,0Z" transform="translate(71.772 1401.024)" fill="none" stroke="#f27c00" stroke-miterlimit="10" stroke-width="1"/>
      <text id="_7" data-name="7" transform="translate(59.778 1399.583)" fill="#2a2929" font-size="1" font-family="SegoeUI, Segoe UI"><tspan x="0" y="0">7</tspan></text>
      <path id="Path_1407" data-name="Path 1407" d="M246.443,504.218V502.2s-.674-.673,1.8-.617a27.04,27.04,0,0,0,2.863,0s.786-.558.617-1.288.225-1.179-1.964-1.123-6.9,0-6.9,0-.617-.388-1.908,1.071S236.677,505,236.677,505a1.43,1.43,0,0,0-.225,1.909c.786.954,2.3,0,2.3,0l1.628-1.964.056,15.154s-.337,1.628,1.235,1.628a1.575,1.575,0,0,0,1.684-1.4v-8.251s-.112-.9.954-.9.954,1.908.954,1.908" transform="translate(-121.83 907.711)" fill="none" stroke="#f27c00" stroke-miterlimit="10" stroke-width="1"/>
      <path id="Path_1408" data-name="Path 1408" d="M257.589,473.185a2.582,2.582,0,1,1-2.582-2.582A2.582,2.582,0,0,1,257.589,473.185Z" transform="translate(-133.962 928.973)" fill="none" stroke="#f27c00" stroke-miterlimit="10" stroke-width="1"/>
      <path id="Path_1409" data-name="Path 1409" d="M288.12,532.668a2.856,2.856,0,1,1-2.856-2.856A2.856,2.856,0,0,1,288.12,532.668Z" transform="translate(-156.316 881.463)" fill="none" stroke="#2a2929" stroke-miterlimit="10" stroke-width="1"/>
      <path id="Path_1410" data-name="Path 1410" d="M273.209,564.4v-8.588s.739-3.411,5.2-3.558a4.285,4.285,0,0,1,4.738,3.895V564.4Z" transform="translate(-149.458 864.734)" fill="none" stroke="#2a2929" stroke-miterlimit="10" stroke-width="1"/>
      <path id="Path_1411" data-name="Path 1411" d="M106.19,518.078c1.211.074,2.421.147,3.632.228a5.907,5.907,0,0,1,3.022.717,3.053,3.053,0,0,1,1.3,2.2c.056.646-.069,1.77-.76,2.083a.668.668,0,0,1-.738-.248,1.29,1.29,0,0,1-.314-1.107,1.536,1.536,0,0,1,1.875-1.2,4.464,4.464,0,0,1,2.265,1.654c.653.773,1.23,1.616,1.957,2.324a4.8,4.8,0,0,0,2.959,1.412,6.519,6.519,0,0,0,3.4-.76c.522-.255.065-1.033-.455-.779a5.221,5.221,0,0,1-3.372.568,5,5,0,0,1-2.671-1.944,15.338,15.338,0,0,0-2.3-2.57,3.223,3.223,0,0,0-2.967-.722,2.444,2.444,0,0,0-1.583,2.576,1.9,1.9,0,0,0,1.992,1.717c.961-.163,1.453-1.254,1.579-2.114a3.955,3.955,0,0,0-.831-3.066,4.7,4.7,0,0,0-3.391-1.573c-1.526-.149-3.065-.207-4.6-.3-.58-.035-.578.867,0,.9" transform="translate(-24.61 894.247)" fill="#f27c00"/>
      <path id="Path_1412" data-name="Path 1412" d="M170.237,539.662l4.779-.191c.145-.006.5-.1.541.078.057.249-.288.61-.424.782a13.161,13.161,0,0,1-1.51,1.6c-.433.389.207,1.026.638.638a12.871,12.871,0,0,0,1.806-1.988c.442-.607.637-1.686-.279-1.973a3.511,3.511,0,0,0-1.167-.027l-1.462.058-2.924.117c-.579.023-.582.925,0,.9" transform="translate(-72.361 878.311)" fill="#f27c00"/>
      <text id="_8" data-name="8" transform="translate(107.051 1427.063)" fill="#2a2929" font-size="12" font-family="SegoeUI, Segoe UI"><tspan x="0" y="0">8</tspan></text>
      <text id="_7-2" data-name="7" transform="translate(59.051 1410.063)" fill="#2a2929" font-size="12" font-family="SegoeUI, Segoe UI"><tspan x="0" y="0">7</tspan></text>
    </g>
    <path id="Path_1732" data-name="Path 1732" d="M740.874,161.821q1.66-.949,3.324-1.891a5.231,5.231,0,0,1,2.995-.966,3.052,3.052,0,0,1,2.322,1.472c.255.435.743,1.65.073,1.974-.611.3-1.322-.323-1.482-.877a1.53,1.53,0,0,1,.985-1.89,4.253,4.253,0,0,1,2.561.089,27.574,27.574,0,0,0,3.418.98,4.662,4.662,0,0,0,3.157-.6,6.726,6.726,0,0,0,2.21-2.358.452.452,0,0,0-.779-.455,5.549,5.549,0,0,1-2.2,2.208,4.464,4.464,0,0,1-3.353.062,17.609,17.609,0,0,0-3.651-.975,3.358,3.358,0,0,0-2.648.814,2.455,2.455,0,0,0-.273,3.014,2.069,2.069,0,0,0,2.345.841,1.9,1.9,0,0,0,.785-2.433,3.924,3.924,0,0,0-2.2-2.447,4.464,4.464,0,0,0-3.848.293c-1.435.715-2.812,1.572-4.2,2.368a.452.452,0,0,0,.456.779" transform="translate(-358.921 1141.516)" fill="#f27c00"/>
    <path id="Path_1733" data-name="Path 1733" d="M806.6,147.526l3.911-2.793c.137-.1.412-.412.53-.174a1.6,1.6,0,0,1,.042.8,12.47,12.47,0,0,1-.378,2.174.452.452,0,0,0,.87.24,13.013,13.013,0,0,0,.428-2.658c.036-.711-.3-1.691-1.2-1.544a2.957,2.957,0,0,0-1.129.656l-1.178.841-2.355,1.682a.463.463,0,0,0-.162.617.454.454,0,0,0,.617.162" transform="translate(-407.924 1151.602)" fill="#f27c00"/>
  </g>
</svg>
