<svg xmlns="http://www.w3.org/2000/svg" width="50.609" height="50.609" viewBox="0 0 50.609 50.609"><path d="M25.3,0a25.3,25.3,0,1,0,25.3,25.3A25.3,25.3,0,0,0,25.3,0M38.45,22.388h0c-.259.026-.519.039-.78.04A8.454,8.454,0,0,1,30.591,18.6V31.624A9.624,9.624,0,1,1,20.968,22c.2,0,.4.019.6.031v4.742a4.818,4.818,0,0,0-.6-.06,4.912,4.912,0,0,0,0,9.824,5.033,5.033,0,0,0,5.109-4.85l.047-22.114h4.537a8.449,8.449,0,0,0,7.788,7.544Z" transform="translate(0 0.001)" fill="#fff"/><rect width="50.609" height="50.609" fill="none"/><path d="M25.3,0a25.3,25.3,0,1,0,25.3,25.3A25.3,25.3,0,0,0,25.3,0M38.45,22.388h0c-.259.026-.519.039-.78.04A8.454,8.454,0,0,1,30.591,18.6V31.624A9.624,9.624,0,1,1,20.968,22c.2,0,.4.019.6.031v4.742a4.818,4.818,0,0,0-.6-.06,4.912,4.912,0,0,0,0,9.824,5.033,5.033,0,0,0,5.109-4.85l.047-22.114h4.537a8.449,8.449,0,0,0,7.788,7.544Z" transform="translate(0 0.001)" fill="#fff"/><rect width="50.609" height="50.609" fill="none"/></svg>